# This file uses centimeters as units for non-parametric coordinates.

v -22.171399 6.521680 -7.105030
v -22.171399 6.598568 -7.181917
v -22.171399 6.703597 -7.210059
v -22.171399 6.808627 -7.181917
v -22.171399 6.885514 -7.105030
v -22.171399 6.913657 -7.000000
v -22.171399 6.885514 -6.894970
v -22.171399 6.808627 -6.818083
v -22.171399 6.703597 -6.789941
v -22.171399 6.598568 -6.818083
v -22.171399 6.521680 -6.894970
v -22.171399 6.493538 -7.000000
v -21.828603 6.521680 -7.105030
v -21.828603 6.598568 -7.181917
v -21.828603 6.703597 -7.210059
v -21.828603 6.808627 -7.181917
v -21.828603 6.885514 -7.105030
v -21.828603 6.913657 -7.000000
v -21.828603 6.885514 -6.894970
v -21.828603 6.808627 -6.818083
v -21.828603 6.703597 -6.789941
v -21.828603 6.598568 -6.818083
v -21.828603 6.521680 -6.894970
v -21.828603 6.493538 -7.000000
v -22.171399 6.703597 -7.000000
v -21.828603 6.703597 -7.000000
v -21.377350 6.703597 -7.000000
v -21.693194 6.521680 -7.105030
v -21.469859 6.543110 -7.092657
v -21.377350 6.594845 -7.062788
v -21.377350 6.640809 -7.108752
v -21.469859 6.610940 -7.160487
v -21.693194 6.598568 -7.181917
v -21.377350 6.703597 -7.125576
v -21.469859 6.703597 -7.185315
v -21.693194 6.703597 -7.210059
v -21.377350 6.703597 -6.874424
v -21.693194 6.703597 -6.789941
v -21.469859 6.703597 -6.814685
v -21.377350 6.640809 -6.891248
v -21.469859 6.610940 -6.839513
v -21.693194 6.598568 -6.818083
v -21.377350 6.594845 -6.937212
v -21.469859 6.543110 -6.907343
v -21.693194 6.521680 -6.894970
v -21.377350 6.578021 -7.000000
v -21.469859 6.518283 -7.000000
v -21.693194 6.493538 -7.000000
vt 0.368272 0.661064
vt 0.438984 0.661064
vt 0.438984 0.943913
vt 0.368272 0.943913
vt 0.509697 0.661064
vt 0.509697 0.943913
vt 0.316507 0.661064
vt 0.316507 0.943913
vt 0.561462 0.661064
vt 0.561462 0.943913
vt 0.053757 0.001884
vt 0.124470 0.001884
vt 0.124470 0.284733
vt 0.053757 0.284733
vt 0.195182 0.001884
vt 0.195182 0.284733
vt 0.124470 0.396462
vt 0.053757 0.396462
vt 0.001992 0.001884
vt 0.001992 0.284733
vt 0.246947 0.001884
vt 0.246947 0.284733
vt 0.195182 0.396462
vt 0.062087 0.580742
vt 0.124470 0.580742
vt 0.001992 0.396462
vt 0.246947 0.396462
vt 0.186852 0.580742
vt 0.016420 0.580742
vt 0.082197 0.657072
vt 0.124470 0.657072
vt 0.232520 0.580742
vt 0.166743 0.657072
vt 0.051251 0.657072
vt 0.197689 0.657072
vt 0.549843 0.001884
vt 0.691268 0.001884
vt 0.691268 0.374223
vt 0.606722 0.374223
vt 0.566502 0.297892
vt 0.549843 0.113613
vt 0.775814 0.374223
vt 0.832693 0.001884
vt 0.832693 0.113613
vt 0.816033 0.297892
vt 0.734105 0.448927
vt 0.785870 0.397162
vt 0.856583 0.519640
vt 0.856583 0.378215
vt 0.715158 0.519640
vt 0.927296 0.397162
vt 0.734105 0.590352
vt 0.979061 0.448927
vt 0.785870 0.642118
vt 0.998008 0.519640
vt 0.856583 0.661065
vt 0.979061 0.590352
vt 0.927296 0.642118
vt 0.709023 0.661065
vt 0.638310 0.642118
vt 0.709023 0.519640
vt 0.586545 0.590352
vt 0.567597 0.519640
vt 0.586545 0.448927
vt 0.638310 0.397162
vt 0.709023 0.378215
vt 0.299044 0.787883
vt 0.268098 0.818829
vt 0.225825 0.745610
vt 0.225825 0.830156
vt 0.310371 0.745610
vt 0.299044 0.703337
vt 0.268098 0.672391
vt 0.225825 0.661064
vt 0.395027 0.657072
vt 0.324314 0.657072
vt 0.324314 0.374223
vt 0.395027 0.374223
vt 0.253602 0.657072
vt 0.253602 0.374223
vt 0.324314 0.262494
vt 0.395027 0.262494
vt 0.386697 0.078215
vt 0.324314 0.078215
vt 0.366587 0.001884
vt 0.324314 0.001884
vt 0.401722 0.001884
vt 0.472435 0.001884
vt 0.472435 0.284733
vt 0.401722 0.284733
vt 0.543147 0.001884
vt 0.543147 0.284733
vt 0.543147 0.396462
vt 0.472435 0.396462
vt 0.472435 0.580742
vt 0.534817 0.580742
vt 0.472435 0.657072
vt 0.514708 0.657072
vn 0.000000 -0.707105 -0.707109
vn 0.000000 -0.707105 -0.707109
vn 0.000000 -0.500000 -0.866026
vn 0.000000 -0.707105 -0.707109
vn 0.000000 -0.258820 -0.965926
vn 0.000000 -0.258820 -0.965926
vn 0.000000 -0.258820 -0.965925
vn -0.000000 0.258820 -0.965926
vn -0.000000 0.258820 -0.965926
vn -0.000000 0.258820 -0.965926
vn -0.000000 0.258820 -0.965926
vn -0.000000 0.707105 -0.707109
vn -0.000000 0.707105 -0.707109
vn -0.000000 0.707105 -0.707109
vn -0.000000 0.707105 -0.707109
vn -0.000000 0.965926 -0.258818
vn -0.000000 0.965926 -0.258818
vn -0.000000 0.965926 -0.258818
vn -0.000000 0.965926 -0.258818
vn -0.000000 0.965926 0.258818
vn -0.000000 0.965926 0.258818
vn -0.000000 0.965926 0.258818
vn -0.000000 0.965926 0.258818
vn -0.000000 0.707106 0.707108
vn -0.000000 0.707106 0.707108
vn -0.000000 0.707106 0.707108
vn -0.000000 0.707106 0.707108
vn -0.000000 0.258819 0.965926
vn -0.000000 0.258819 0.965926
vn -0.000000 0.258819 0.965926
vn -0.000000 0.258819 0.965926
vn 0.000000 -0.258819 0.965926
vn 0.000000 -0.258819 0.965926
vn 0.000000 -0.500000 0.866026
vn 0.000000 -0.258819 0.965926
vn 0.000000 -0.707106 0.707108
vn 0.000000 -0.707106 0.707108
vn 0.000000 -0.707105 0.707108
vn 0.000000 -0.965926 0.258818
vn 0.000000 -0.965926 0.258818
vn 0.000000 -1.000000 0.000000
vn 0.000000 -0.965926 0.258818
vn 0.000000 -0.965926 -0.258818
vn 0.000000 -0.965926 -0.258818
vn 0.000000 -0.965926 -0.258818
vn -1.000000 -0.000000 0.000000
vn -1.000000 -0.000000 0.000000
vn -1.000000 -0.000000 0.000000
vn -1.000000 -0.000000 0.000000
vn -1.000000 -0.000000 0.000000
vn -1.000000 -0.000000 0.000000
vn -1.000000 -0.000000 0.000000
vn -1.000000 -0.000000 0.000000
vn -1.000000 -0.000000 0.000000
vn -1.000000 -0.000000 0.000000
vn -1.000000 -0.000000 0.000000
vn -1.000000 -0.000000 0.000000
vn -1.000000 -0.000000 0.000000
vn 1.000000 0.000000 0.000000
vn 1.000000 0.000000 0.000000
vn 1.000000 0.000000 0.000000
vn 1.000000 0.000000 0.000000
vn 1.000000 0.000000 0.000000
vn 1.000000 0.000000 0.000000
vn 1.000000 0.000000 0.000000
vn 1.000000 0.000000 0.000000
vn 0.730607 -0.591320 -0.341399
vn 0.542482 -0.727519 -0.420034
vn 0.542482 -0.420034 -0.727519
vn 0.730608 -0.341399 -0.591320
vn 0.110122 -0.860758 -0.496960
vn 0.066839 -0.864088 -0.498883
vn 0.066838 -0.498882 -0.864089
vn 0.110121 -0.496959 -0.860758
vn 0.718679 -0.179968 0.671649
vn 0.529241 -0.219600 0.819561
vn 0.542483 -0.420034 0.727519
vn 0.730608 -0.341399 0.591320
vn 0.106412 -0.257350 0.960441
vn 0.064570 -0.258279 0.963910
vn 0.066838 -0.498882 0.864089
vn 0.110121 -0.496959 0.860758
vn 1.000000 0.000000 0.000000
vn 0.718679 -0.179968 -0.671649
vn 0.730607 -0.591320 0.341399
vn 0.730607 -0.682798 -0.000000
vn 0.064570 -0.258280 -0.963910
vn 0.066839 -0.864089 0.498882
vn 0.066839 -0.997764 0.000000
vn -0.000000 1.000000 0.000000
vn -0.000000 1.000000 0.000000
vn -0.000000 1.000000 0.000000
vn -0.000000 1.000000 0.000000
vn -0.000000 1.000000 0.000000
vn -0.000000 1.000000 0.000000
vn -0.000000 1.000000 0.000000
vn -0.000000 1.000000 0.000000
vn -0.000000 1.000000 0.000000
vn -0.000000 1.000000 0.000000
vn 0.529241 -0.219601 -0.819560
vn 0.106412 -0.257351 -0.960441
vn 0.542482 -0.727519 0.420034
vn 0.110122 -0.860758 0.496959
vn 0.542482 -0.840067 0.000000
vn 0.110122 -0.993918 0.000000
s 1
f 1/15/1 2/21/2 14/22/3 13/16/4
f 2/75/5 3/76/6 15/77/7 14/78/3
s off
f 3/76/8 4/79/9 16/80/10 15/77/11
f 4/7/12 5/1/13 17/4/14 16/8/15
f 5/1/16 6/2/17 18/3/18 17/4/19
f 6/2/20 7/5/21 19/6/22 18/3/23
f 7/5/24 8/9/25 20/10/26 19/6/27
f 8/87/28 9/88/29 21/89/30 20/90/31
s 1
f 9/88/32 10/91/33 22/92/34 21/89/35
f 10/19/36 11/11/37 23/14/38 22/20/34
f 11/11/39 12/12/40 24/13/41 23/14/42
f 12/12/43 1/15/44 13/16/45 24/13/41
s 7
f 2/46/46 1/47/47 25/48/48
f 3/50/49 2/46/46 25/48/48
f 4/52/50 3/50/49 25/48/48
f 5/54/51 4/52/50 25/48/48
f 6/56/52 5/54/51 25/48/48
f 7/58/53 6/56/52 25/48/48
f 8/57/54 7/58/53 25/48/48
f 9/55/55 8/57/54 25/48/48
f 10/53/56 9/55/55 25/48/48
f 11/51/57 10/53/56 25/48/48
f 12/49/58 11/51/57 25/48/48
f 1/47/47 12/49/58 25/48/48
s 8
f 15/59/59 16/60/60 26/61/61
f 16/60/60 17/62/62 26/61/61
f 17/62/62 18/63/63 26/61/61
f 18/63/63 19/64/64 26/61/61
f 19/64/64 20/65/65 26/61/61
f 20/65/65 21/66/66 26/61/61
s 9
f 30/33/67 29/28/68 32/32/69 31/35/70
s 1
f 29/28/71 28/23/72 33/27/73 32/32/74
s 9
f 37/97/75 39/95/76 41/96/77 40/98/78
s 1
f 39/95/79 38/94/80 42/93/81 41/96/82
s 9
f 30/67/67 31/68/70 27/69/83
f 31/68/70 34/70/84 27/69/83
f 37/74/75 40/73/78 27/69/83
f 40/73/78 43/72/85 27/69/83
f 43/72/85 46/71/86 27/69/83
f 46/71/86 30/67/67 27/69/83
s 1
f 13/16/4 14/22/3 33/27/73 28/23/72
f 14/78/3 15/77/7 36/81/87 33/82/73
f 21/89/35 22/92/34 42/93/81 38/94/80
f 22/20/34 23/14/38 45/18/88 42/26/81
f 23/14/42 24/13/41 48/17/89 45/18/88
f 24/13/41 13/16/45 28/23/72 48/17/89
s 12
f 15/36/90 26/37/91 27/38/92 34/39/93 35/40/94 36/41/95
f 37/42/96 27/38/92 26/37/91 21/43/97 38/44/98 39/45/99
s 9
f 31/85/70 32/83/69 35/84/100 34/86/84
s 1
f 32/83/74 33/82/73 36/81/87 35/84/101
s 9
f 40/34/78 41/29/77 44/24/102 43/30/85
s 1
f 41/29/82 42/26/81 45/18/88 44/24/103
s 9
f 43/30/85 44/24/102 47/25/104 46/31/86
s 1
f 44/24/103 45/18/88 48/17/89 47/25/105
f 28/23/72 29/28/71 47/25/105 48/17/89
s 9
f 29/28/68 30/33/67 46/31/86 47/25/104
