# This file uses centimeters as units for non-parametric coordinates.

v 17.234296 0.694652 2.446384
v 16.291340 1.019310 2.591884
v 15.540578 1.632891 2.866868
v 15.083406 2.452526 3.234199
v 14.981567 3.367520 3.644266
v 15.248816 4.254298 4.041688
v 15.849058 4.993095 4.372790
v 16.701228 5.484133 4.592855
v 17.690235 5.661094 4.672163
v 18.682509 5.500079 4.600002
v 19.544037 5.022834 4.386118
v 20.158466 4.293813 4.059397
v 20.442813 3.411475 3.663965
v 20.358675 2.494984 3.253227
v 19.917417 1.668117 2.882656
v 19.178631 1.042548 2.602298
v 18.242096 0.702763 2.450019
v 17.221661 0.680933 2.303256
v 16.253890 1.014135 2.452585
v 15.483372 1.643862 2.734805
v 15.014169 2.485067 3.111803
v 14.909650 3.424140 3.532661
v 15.183931 4.334254 3.940541
v 15.799969 5.092493 4.280357
v 16.674565 5.596453 4.506213
v 17.689599 5.778071 4.587608
v 18.707985 5.612819 4.513548
v 19.592185 5.123015 4.294035
v 20.222783 4.374809 3.958717
v 20.514613 3.469251 3.552878
v 20.428261 2.528642 3.131332
v 19.975390 1.680016 2.751008
v 19.217163 1.037984 2.463273
v 18.255983 0.689258 2.306986
v 17.196392 0.551252 2.245137
v 16.178991 0.901541 2.402124
v 15.368959 1.563562 2.698818
v 14.875695 2.447906 3.095148
v 14.765816 3.435136 3.537589
v 15.054163 4.391923 3.966386
v 15.701792 5.189046 4.323628
v 16.621239 5.718850 4.561067
v 17.688326 5.909782 4.646636
v 18.758937 5.736055 4.568778
v 19.688481 5.221132 4.338008
v 20.351417 4.434557 3.985494
v 20.658212 3.482560 3.558843
v 20.567432 2.493715 3.115679
v 20.091337 1.601570 2.715851
v 19.294227 0.926614 2.413361
v 18.283755 0.560003 2.249059
v 17.183757 0.435290 2.330147
v 16.141542 0.794122 2.490963
v 15.311752 1.472290 2.794893
v 14.806457 2.378203 3.200890
v 14.693898 3.389512 3.654122
v 14.989278 4.369635 4.093378
v 15.652704 5.186200 4.459333
v 16.594576 5.728927 4.702563
v 17.687689 5.924515 4.790219
v 18.784413 5.746551 4.710462
v 19.736628 5.219070 4.474063
v 20.415734 4.413310 4.112951
v 20.730012 3.438094 3.675895
v 20.637018 2.425130 3.221921
v 20.149311 1.511225 2.812342
v 19.332759 0.819807 2.502473
v 18.297641 0.444255 2.334165
v 17.196392 0.449009 2.473275
v 16.178991 0.799298 2.630262
v 15.368959 1.461319 2.926956
v 14.875695 2.345662 3.323286
v 14.765816 3.332893 3.765727
v 15.054163 4.289679 4.194524
v 15.701792 5.086803 4.551766
v 16.621239 5.616607 4.789205
v 17.688326 5.807539 4.874774
v 18.758937 5.633812 4.796916
v 19.688481 5.118889 4.566146
v 20.351417 4.332314 4.213632
v 20.658212 3.380317 3.786981
v 20.567432 2.391472 3.343817
v 20.091337 1.499326 2.943989
v 19.294227 0.824370 2.641499
v 18.283755 0.457760 2.477197
v 17.221661 0.578690 2.531394
v 16.253890 0.911892 2.680723
v 15.483372 1.541619 2.962943
v 15.014169 2.382824 3.339941
v 14.909650 3.321897 3.760799
v 15.183931 4.232011 4.168679
v 15.799969 4.990250 4.508495
v 16.674565 5.494210 4.734351
v 17.689599 5.675828 4.815746
v 18.707985 5.510576 4.741686
v 19.592185 5.020771 4.522173
v 20.222783 4.272566 4.186855
v 20.514612 3.367008 3.781016
v 20.428261 2.426399 3.359470
v 19.975390 1.577773 2.979146
v 19.217163 0.935741 2.691411
v 18.255983 0.587015 2.535124
vt 0.389707 0.869559
vt 0.389707 0.797410
vt 0.400232 0.799605
vt 0.400232 0.873652
vt 0.379183 0.873652
vt 0.379183 0.799605
vt 0.389707 0.713995
vt 0.400232 0.713995
vt 0.389707 0.920698
vt 0.400232 0.926137
vt 0.379183 0.713995
vt 0.379183 0.926137
vt 0.389707 0.630581
vt 0.400232 0.628386
vt 0.379183 0.628386
vt 0.389707 0.558432
vt 0.400232 0.554338
vt 0.379183 0.554338
vt 0.389707 0.507293
vt 0.400232 0.501853
vt 0.379183 0.501853
vt 0.336214 0.648543
vt 0.336214 0.569414
vt 0.346739 0.566215
vt 0.346739 0.647427
vt 0.325689 0.647427
vt 0.325689 0.566215
vt 0.336214 0.506702
vt 0.346739 0.501853
vt 0.336214 0.733403
vt 0.346739 0.734519
vt 0.325689 0.501853
vt 0.325689 0.734519
vt 0.336214 0.812532
vt 0.346739 0.815730
vt 0.325689 0.815730
vt 0.336214 0.875243
vt 0.346739 0.880093
vt 0.325689 0.880093
vt 0.426979 0.562469
vt 0.426979 0.640314
vt 0.416454 0.638119
vt 0.416454 0.558375
vt 0.426979 0.730314
vt 0.416454 0.730314
vt 0.405929 0.640314
vt 0.405929 0.562469
vt 0.426979 0.507293
vt 0.416454 0.501853
vt 0.426979 0.820314
vt 0.416454 0.822509
vt 0.405929 0.730314
vt 0.405929 0.507293
vt 0.426979 0.898158
vt 0.416454 0.902252
vt 0.405929 0.820314
vt 0.426979 0.953335
vt 0.416454 0.958775
vt 0.405929 0.898158
vt 0.405929 0.953335
vt 0.373485 0.751300
vt 0.373485 0.836676
vt 0.362960 0.839875
vt 0.362960 0.752416
vt 0.373485 0.904339
vt 0.362960 0.909188
vt 0.352436 0.836676
vt 0.352436 0.751300
vt 0.373485 0.659741
vt 0.362960 0.658625
vt 0.352436 0.904339
vt 0.352436 0.659741
vt 0.373485 0.574365
vt 0.362960 0.571166
vt 0.352436 0.574365
vt 0.373485 0.506702
vt 0.362960 0.501853
vt 0.352436 0.506702
vt 0.421883 0.409727
vt 0.467732 0.335679
vt 0.479064 0.340069
vt 0.430865 0.417914
vt 0.483735 0.250069
vt 0.495888 0.250069
vt 0.352382 0.462211
vt 0.357799 0.473091
vt 0.467732 0.164460
vt 0.479064 0.160070
vt 0.268614 0.486045
vt 0.269736 0.498147
vt 0.421883 0.090412
vt 0.430865 0.082225
vt 0.181893 0.478010
vt 0.178567 0.489699
vt 0.352382 0.037927
vt 0.357799 0.027048
vt 0.103931 0.439189
vt 0.096607 0.448888
vt 0.268614 0.014093
vt 0.269736 0.001992
vt 0.045257 0.374827
vt 0.034925 0.381225
vt 0.181893 0.022129
vt 0.178567 0.010440
vt 0.013796 0.293616
vt 0.001850 0.295849
vt 0.103931 0.060950
vt 0.096607 0.051251
vt 0.013796 0.206523
vt 0.001850 0.204290
vt 0.045257 0.125312
vt 0.034925 0.118914
vt 0.861691 0.582086
vt 0.909891 0.659931
vt 0.898558 0.664321
vt 0.852710 0.590273
vt 0.926715 0.749931
vt 0.914562 0.749931
vt 0.788626 0.526909
vt 0.783209 0.537789
vt 0.909891 0.839930
vt 0.898558 0.835540
vt 0.700562 0.501853
vt 0.699441 0.513954
vt 0.861691 0.917775
vt 0.852710 0.909588
vt 0.609394 0.510301
vt 0.612720 0.521990
vt 0.788626 0.972952
vt 0.783209 0.962073
vt 0.527434 0.551112
vt 0.534758 0.560811
vt 0.700562 0.998008
vt 0.699441 0.985907
vt 0.465751 0.618775
vt 0.476084 0.625173
vt 0.609394 0.989560
vt 0.612720 0.977871
vt 0.432676 0.704151
vt 0.444623 0.706384
vt 0.527434 0.948749
vt 0.534758 0.939050
vt 0.432676 0.795710
vt 0.444623 0.793477
vt 0.465751 0.881086
vt 0.476084 0.874688
vt 0.255973 0.586182
vt 0.255973 0.504562
vt 0.266498 0.501853
vt 0.266498 0.585621
vt 0.245448 0.585621
vt 0.245448 0.501853
vt 0.255973 0.670679
vt 0.266498 0.672342
vt 0.245448 0.672342
vt 0.255973 0.746642
vt 0.266498 0.750304
vt 0.245448 0.750304
vt 0.229226 0.670679
vt 0.229226 0.746642
vt 0.218701 0.750304
vt 0.218701 0.672342
vt 0.239751 0.672342
vt 0.239751 0.750304
vt 0.229226 0.586182
vt 0.218701 0.585621
vt 0.239751 0.585621
vt 0.229226 0.504562
vt 0.218701 0.501853
vt 0.239751 0.501853
vt 0.298942 0.592625
vt 0.298942 0.504562
vt 0.309467 0.501853
vt 0.309467 0.592065
vt 0.319992 0.504562
vt 0.319992 0.592625
vt 0.298942 0.683794
vt 0.309467 0.685456
vt 0.319992 0.683794
vt 0.298942 0.765754
vt 0.309467 0.769415
vt 0.319992 0.765754
vt 0.293245 0.683794
vt 0.293245 0.765754
vt 0.282720 0.769415
vt 0.282720 0.685456
vt 0.272195 0.765754
vt 0.272195 0.683794
vt 0.293245 0.592625
vt 0.282720 0.592065
vt 0.272195 0.592625
vt 0.293245 0.504562
vt 0.282720 0.501853
vt 0.272195 0.504562
vn 0.449392 0.880046 -0.153512
vn 0.151618 0.982569 -0.107566
vn 0.151618 0.982569 -0.107566
vn 0.449392 0.880046 -0.153512
vn 0.686473 0.686285 -0.240349
vn 0.686473 0.686285 -0.240349
vn 0.830843 0.427454 -0.356347
vn 0.830843 0.427454 -0.356347
vn 0.863002 0.138510 -0.485842
vn 0.863002 0.138510 -0.485842
vn 0.778608 -0.141524 -0.611343
vn 0.778608 -0.141524 -0.611343
vn 0.589059 -0.374826 -0.715901
vn 0.589059 -0.374826 -0.715902
vn 0.319954 -0.529890 -0.785396
vn 0.319954 -0.529890 -0.785396
vn 0.007638 -0.585773 -0.810439
vn 0.007638 -0.585773 -0.810439
vn -0.305710 -0.534927 -0.787651
vn -0.305710 -0.534927 -0.787651
vn -0.577770 -0.384218 -0.720110
vn -0.577770 -0.384218 -0.720110
vn -0.771799 -0.154002 -0.616935
vn -0.771799 -0.154002 -0.616935
vn -0.861592 0.124630 -0.492063
vn -0.861592 0.124630 -0.492063
vn -0.835023 0.414046 -0.362357
vn -0.835023 0.414046 -0.362357
vn -0.695679 0.675160 -0.245335
vn -0.695679 0.675160 -0.245335
vn -0.462380 0.872708 -0.156801
vn -0.462380 0.872708 -0.156801
vn -0.166633 0.980008 -0.108714
vn -0.166633 0.980008 -0.108713
vn -0.000000 0.408971 -0.912548
vn -0.000000 0.408971 -0.912548
vn -0.000000 0.408971 -0.912548
vn -0.000000 0.408971 -0.912548
vn -0.000000 0.408971 -0.912548
vn -0.000000 0.408971 -0.912548
vn -0.000000 0.408971 -0.912548
vn -0.000000 0.408971 -0.912548
vn -0.000000 0.408971 -0.912548
vn -0.000000 0.408971 -0.912548
vn -0.000000 0.408971 -0.912548
vn -0.000000 0.408971 -0.912548
vn -0.000000 0.408971 -0.912548
vn -0.000000 0.408971 -0.912548
vn -0.000000 0.408971 -0.912548
vn -0.000000 0.408971 -0.912548
vn -0.000000 0.408971 -0.912548
vn -0.000000 0.408971 -0.912548
vn 0.000000 0.408971 -0.912548
vn 0.000000 0.408971 -0.912548
vn 0.000000 0.408971 -0.912548
vn 0.000000 0.408971 -0.912548
vn 0.000000 0.408971 -0.912548
vn 0.000000 0.408971 -0.912548
vn 0.000000 0.408971 -0.912548
vn 0.000000 0.408971 -0.912548
vn 0.000000 0.408971 -0.912548
vn 0.000000 0.408971 -0.912548
vn 0.000000 0.408971 -0.912548
vn 0.000000 0.408971 -0.912548
vn 0.000000 0.408971 -0.912548
vn 0.000000 0.408971 -0.912548
vn 0.000000 0.408971 -0.912548
vn 0.000000 0.408971 -0.912548
vn -0.449392 -0.471076 -0.759035
vn -0.151618 -0.573599 -0.804982
vn -0.151618 -0.573599 -0.804982
vn -0.449392 -0.471076 -0.759035
vn -0.686474 -0.277314 -0.672198
vn -0.686474 -0.277314 -0.672198
vn -0.830843 -0.018483 -0.556200
vn -0.830843 -0.018483 -0.556200
vn -0.863002 0.270461 -0.426706
vn -0.863002 0.270461 -0.426706
vn -0.778609 0.550495 -0.301204
vn -0.778609 0.550495 -0.301205
vn -0.589060 0.783798 -0.196646
vn -0.589060 0.783798 -0.196646
vn -0.319954 0.938862 -0.127152
vn -0.319954 0.938862 -0.127152
vn -0.007638 0.994744 -0.102107
vn -0.007638 0.994744 -0.102107
vn 0.305711 0.943897 -0.124895
vn 0.305711 0.943897 -0.124895
vn 0.577771 0.793189 -0.192438
vn 0.577771 0.793189 -0.192438
vn 0.771800 0.562973 -0.295612
vn 0.771800 0.562973 -0.295612
vn 0.861593 0.284341 -0.420485
vn 0.861593 0.284341 -0.420485
vn 0.835024 -0.005076 -0.550191
vn 0.835024 -0.005076 -0.550191
vn 0.695679 -0.266190 -0.667213
vn 0.695679 -0.266190 -0.667213
vn 0.462380 -0.463737 -0.755747
vn 0.462380 -0.463737 -0.755747
vn 0.166633 -0.571037 -0.803834
vn 0.166633 -0.571037 -0.803834
vn -0.449392 -0.880046 0.153511
vn -0.151618 -0.982569 0.107565
vn -0.151618 -0.982569 0.107565
vn -0.449392 -0.880046 0.153511
vn -0.686474 -0.686285 0.240349
vn -0.686474 -0.686285 0.240349
vn -0.830843 -0.427454 0.356348
vn -0.830843 -0.427454 0.356348
vn -0.863002 -0.138510 0.485842
vn -0.863002 -0.138510 0.485842
vn -0.778609 0.141524 0.611342
vn -0.778609 0.141524 0.611342
vn -0.589060 0.374828 0.715900
vn -0.589060 0.374828 0.715900
vn -0.319954 0.529891 0.785394
vn -0.319954 0.529891 0.785394
vn -0.007638 0.585774 0.810438
vn -0.007638 0.585774 0.810438
vn 0.305711 0.534928 0.787650
vn 0.305710 0.534928 0.787650
vn 0.577770 0.384218 0.720109
vn 0.577770 0.384218 0.720109
vn 0.771800 0.154002 0.616935
vn 0.771800 0.154002 0.616935
vn 0.861593 -0.124629 0.492062
vn 0.861593 -0.124629 0.492062
vn 0.835024 -0.414046 0.362356
vn 0.835024 -0.414046 0.362356
vn 0.695679 -0.675160 0.245334
vn 0.695679 -0.675160 0.245334
vn 0.462380 -0.872708 0.156801
vn 0.462380 -0.872708 0.156801
vn 0.166633 -0.980008 0.108713
vn 0.166633 -0.980008 0.108712
vn 0.000000 -0.408970 0.912548
vn 0.000000 -0.408970 0.912548
vn 0.000000 -0.408970 0.912548
vn 0.000000 -0.408970 0.912548
vn 0.000000 -0.408971 0.912548
vn 0.000000 -0.408971 0.912548
vn 0.000000 -0.408971 0.912548
vn 0.000000 -0.408971 0.912548
vn 0.000000 -0.408971 0.912548
vn 0.000000 -0.408971 0.912548
vn 0.000000 -0.408971 0.912547
vn 0.000000 -0.408971 0.912547
vn 0.000000 -0.408971 0.912547
vn 0.000000 -0.408971 0.912547
vn 0.000000 -0.408971 0.912547
vn 0.000000 -0.408971 0.912547
vn 0.000000 -0.408971 0.912547
vn 0.000000 -0.408971 0.912547
vn -0.000000 -0.408971 0.912547
vn -0.000000 -0.408971 0.912547
vn -0.000000 -0.408971 0.912547
vn -0.000000 -0.408971 0.912547
vn -0.000000 -0.408971 0.912548
vn -0.000000 -0.408971 0.912548
vn -0.000000 -0.408971 0.912548
vn -0.000000 -0.408971 0.912548
vn -0.000000 -0.408971 0.912548
vn -0.000000 -0.408971 0.912548
vn -0.000000 -0.408971 0.912548
vn -0.000000 -0.408971 0.912548
vn -0.000000 -0.408970 0.912548
vn -0.000000 -0.408970 0.912548
vn -0.000000 -0.408970 0.912548
vn -0.000000 -0.408970 0.912548
vn 0.449392 0.471076 0.759035
vn 0.151618 0.573599 0.804982
vn 0.151618 0.573599 0.804982
vn 0.449392 0.471076 0.759035
vn 0.686474 0.277315 0.672198
vn 0.686474 0.277315 0.672198
vn 0.830843 0.018483 0.556200
vn 0.830843 0.018483 0.556200
vn 0.863002 -0.270461 0.426706
vn 0.863002 -0.270461 0.426706
vn 0.778609 -0.550495 0.301205
vn 0.778609 -0.550495 0.301205
vn 0.589059 -0.783798 0.196646
vn 0.589059 -0.783798 0.196646
vn 0.319954 -0.938862 0.127153
vn 0.319954 -0.938862 0.127153
vn 0.007638 -0.994744 0.102109
vn 0.007638 -0.994744 0.102109
vn -0.305710 -0.943897 0.124896
vn -0.305710 -0.943897 0.124896
vn -0.577770 -0.793189 0.192438
vn -0.577770 -0.793189 0.192438
vn -0.771799 -0.562973 0.295613
vn -0.771799 -0.562973 0.295613
vn -0.861593 -0.284341 0.420485
vn -0.861593 -0.284341 0.420485
vn -0.835023 0.005075 0.550191
vn -0.835023 0.005075 0.550191
vn -0.695679 0.266190 0.667213
vn -0.695679 0.266190 0.667213
vn -0.462380 0.463738 0.755746
vn -0.462380 0.463738 0.755746
vn -0.166633 0.571038 0.803834
vn -0.166633 0.571038 0.803834
s 1
f 2/1/1 1/2/2 18/3/3 19/4/4
f 3/9/5 2/1/1 19/4/4 20/10/6
f 4/147/7 3/148/5 20/149/6 21/150/8
f 5/153/9 4/147/7 21/150/8 22/154/10
f 6/156/11 5/153/9 22/154/10 23/157/12
f 7/23/13 6/28/11 23/29/12 24/24/14
f 8/22/15 7/23/13 24/24/14 25/25/16
f 9/30/17 8/22/15 25/25/16 26/31/18
f 10/34/19 9/30/17 26/31/18 27/35/20
f 11/37/21 10/34/19 27/35/20 28/38/22
f 12/159/23 11/160/21 28/161/22 29/162/24
f 13/165/25 12/159/23 29/162/24 30/166/26
f 14/168/27 13/165/25 30/166/26 31/169/28
f 15/16/29 14/19/27 31/20/28 32/17/30
f 16/13/31 15/16/29 32/17/30 33/14/32
f 17/7/33 16/13/31 33/14/32 34/8/34
f 1/2/2 17/7/33 34/8/34 18/3/3
s 2
f 19/79/35 18/80/36 35/81/37 36/82/38
f 20/85/39 19/79/35 36/82/38 37/86/40
f 21/89/41 20/85/39 37/86/40 38/90/42
f 22/93/43 21/89/41 38/90/42 39/94/44
f 23/97/45 22/93/43 39/94/44 40/98/46
f 24/101/47 23/97/45 40/98/46 41/102/48
f 25/105/49 24/101/47 41/102/48 42/106/50
f 26/109/51 25/105/49 42/106/50 43/110/52
f 27/111/53 26/109/51 43/110/52 44/112/54
f 28/107/55 27/111/53 44/112/54 45/108/56
f 29/103/57 28/107/55 45/108/56 46/104/58
f 30/99/59 29/103/57 46/104/58 47/100/60
f 31/95/61 30/99/59 47/100/60 48/96/62
f 32/91/63 31/95/61 48/96/62 49/92/64
f 33/87/65 32/91/63 49/92/64 50/88/66
f 34/83/67 33/87/65 50/88/66 51/84/68
f 18/80/36 34/83/67 51/84/68 35/81/37
s 3
f 36/40/69 35/41/70 52/42/71 53/43/72
f 37/48/73 36/40/69 53/43/72 54/49/74
f 38/171/75 37/172/73 54/173/74 55/174/76
f 39/177/77 38/171/75 55/174/76 56/178/78
f 40/180/79 39/177/77 56/178/78 57/181/80
f 41/62/81 40/65/79 57/66/80 58/63/82
f 42/61/83 41/62/81 58/63/82 59/64/84
f 43/69/85 42/61/83 59/64/84 60/70/86
f 44/73/87 43/69/85 60/70/86 61/74/88
f 45/76/89 44/73/87 61/74/88 62/77/90
f 46/183/91 45/184/89 62/185/90 63/186/92
f 47/189/93 46/183/91 63/186/92 64/190/94
f 48/192/95 47/189/93 64/190/94 65/193/96
f 49/54/97 48/57/95 65/58/96 66/55/98
f 50/50/99 49/54/97 66/55/98 67/51/100
f 51/44/101 50/50/99 67/51/100 68/45/102
f 35/41/70 51/44/101 68/45/102 52/42/71
s 4
f 53/43/103 52/42/104 69/46/105 70/47/106
f 54/49/107 53/43/103 70/47/106 71/53/108
f 55/174/109 54/173/107 71/175/108 72/176/110
f 56/178/111 55/174/109 72/176/110 73/179/112
f 57/181/113 56/178/111 73/179/112 74/182/114
f 58/63/115 57/66/113 74/71/114 75/67/116
f 59/64/117 58/63/115 75/67/116 76/68/118
f 60/70/119 59/64/117 76/68/118 77/72/120
f 61/74/121 60/70/119 77/72/120 78/75/122
f 62/77/123 61/74/121 78/75/122 79/78/124
f 63/186/125 62/185/123 79/187/124 80/188/126
f 64/190/127 63/186/125 80/188/126 81/191/128
f 65/193/129 64/190/127 81/191/128 82/194/130
f 66/55/131 65/58/129 82/60/130 83/59/132
f 67/51/133 66/55/131 83/59/132 84/56/134
f 68/45/135 67/51/133 84/56/134 85/52/136
f 52/42/104 68/45/135 85/52/136 69/46/105
s 5
f 70/113/137 69/114/138 86/115/139 87/116/140
f 71/119/141 70/113/137 87/116/140 88/120/142
f 72/123/143 71/119/141 88/120/142 89/124/144
f 73/127/145 72/123/143 89/124/144 90/128/146
f 74/131/147 73/127/145 90/128/146 91/132/148
f 75/135/149 74/131/147 91/132/148 92/136/150
f 76/139/151 75/135/149 92/136/150 93/140/152
f 77/143/153 76/139/151 93/140/152 94/144/154
f 78/145/155 77/143/153 94/144/154 95/146/156
f 79/141/157 78/145/155 95/146/156 96/142/158
f 80/137/159 79/141/157 96/142/158 97/138/160
f 81/133/161 80/137/159 97/138/160 98/134/162
f 82/129/163 81/133/161 98/134/162 99/130/164
f 83/125/165 82/129/163 99/130/164 100/126/166
f 84/121/167 83/125/165 100/126/166 101/122/168
f 85/117/169 84/121/167 101/122/168 102/118/170
f 69/114/138 85/117/169 102/118/170 86/115/139
s 6
f 87/5/171 86/6/172 1/2/173 2/1/174
f 88/12/175 87/5/171 2/1/174 3/9/176
f 89/151/177 88/152/175 3/148/176 4/147/178
f 90/155/179 89/151/177 4/147/178 5/153/180
f 91/158/181 90/155/179 5/153/180 6/156/182
f 92/27/183 91/32/181 6/28/182 7/23/184
f 93/26/185 92/27/183 7/23/184 8/22/186
f 94/33/187 93/26/185 8/22/186 9/30/188
f 95/36/189 94/33/187 9/30/188 10/34/190
f 96/39/191 95/36/189 10/34/190 11/37/192
f 97/163/193 96/164/191 11/160/192 12/159/194
f 98/167/195 97/163/193 12/159/194 13/165/196
f 99/170/197 98/167/195 13/165/196 14/168/198
f 100/18/199 99/21/197 14/19/198 15/16/200
f 101/15/201 100/18/199 15/16/200 16/13/202
f 102/11/203 101/15/201 16/13/202 17/7/204
f 86/6/172 102/11/203 17/7/204 1/2/173
