# This file uses centimeters as units for non-parametric coordinates.

v -14.532081 4.130569 -11.915621
v -14.566347 4.128331 -11.929937
v -14.566347 4.121085 -11.929937
v -14.532081 4.118846 -11.915621
v -14.528152 4.124708 -11.913979
v -14.547792 4.124708 -11.922185
v -15.123956 4.158054 -10.513333
v -15.161369 4.145318 -10.528965
v -15.161369 4.104098 -10.528965
v -15.123956 4.091361 -10.513333
v -15.101601 4.124708 -10.503993
v -15.119844 4.164563 -10.519108
v -15.163307 4.149341 -10.537268
v -15.196409 4.150285 -10.459330
v -15.152771 4.166093 -10.441097
v -15.163307 4.100075 -10.537268
v -15.196409 4.099131 -10.459330
v -15.119844 4.084853 -10.519108
v -15.152771 4.083323 -10.441097
v -15.093126 4.124708 -10.507945
v -15.125027 4.124708 -10.429506
v -15.174926 4.124708 -10.421191
vt 0.548284 0.007647
vt 0.373591 0.064409
vt 0.373591 0.248091
vt 0.548284 0.304853
vt 0.656250 0.156250
vt 0.375000 0.312500
vt 0.425000 0.312500
vt 0.475000 0.312500
vt 0.525000 0.312500
vt 0.575000 0.312500
vt 0.625000 0.312500
vt 0.375000 0.688440
vt 0.425000 0.688440
vt 0.475000 0.688440
vt 0.525000 0.688440
vt 0.575000 0.688440
vt 0.625000 0.688440
vt 0.548284 0.695147
vt 0.373591 0.751909
vt 0.373591 0.935591
vt 0.548284 0.992353
vt 0.656250 0.843750
vt 0.500000 0.150000
vt 0.500000 0.837500
vt 0.625000 0.671720
vt 0.375000 0.671720
vt 0.425000 0.671720
vt 0.475000 0.671720
vt 0.525000 0.671720
vt 0.575000 0.671720
vt 0.375000 0.671720
vt 0.425000 0.671720
vt 0.475000 0.671720
vt 0.525000 0.671720
vt 0.575000 0.671720
vt 0.625000 0.671720
vn -0.282187 0.949878 -0.134547
vn -0.282187 0.949878 -0.134547
vn -0.282187 0.949878 -0.134547
vn -0.282187 0.949878 -0.134547
vn -0.920423 -0.000000 -0.390923
vn -0.920423 -0.000000 -0.390923
vn -0.920423 -0.000000 -0.390923
vn -0.920423 -0.000000 -0.390923
vn -0.282187 -0.949878 -0.134547
vn -0.282187 -0.949878 -0.134547
vn -0.282187 -0.949878 -0.134547
vn -0.282187 -0.949878 -0.134547
vn 0.749425 -0.587761 0.304793
vn 0.749425 -0.587761 0.304793
vn 0.749425 -0.587761 0.304793
vn 0.749425 -0.587761 0.304793
vn 0.749417 0.587773 0.304789
vn 0.749417 0.587773 0.304789
vn 0.749417 0.587773 0.304789
vn 0.749417 0.587773 0.304789
vn 0.385516 -0.000000 -0.922701
vn 0.385516 -0.000000 -0.922701
vn 0.385516 -0.000000 -0.922701
vn 0.385516 -0.000000 -0.922701
vn 0.385516 -0.000000 -0.922701
vn 0.385516 -0.000000 -0.922701
vn -0.178451 0.502463 0.845982
vn -0.723862 0.310642 0.616057
vn -0.383166 0.000004 0.923680
vn -0.723853 -0.310646 0.616065
vn -0.178456 -0.502451 0.845988
vn 0.164370 -0.000002 0.986399
vn -0.168762 0.981807 -0.087029
vn -0.168762 0.981807 -0.087029
vn -0.168762 0.981807 -0.087029
vn -0.168762 0.981807 -0.087029
vn -0.920423 -0.000000 -0.390923
vn -0.920423 -0.000000 -0.390923
vn -0.920424 -0.000000 -0.390923
vn -0.920424 -0.000000 -0.390923
vn -0.168762 -0.981807 -0.087029
vn -0.168762 -0.981807 -0.087029
vn -0.168762 -0.981807 -0.087029
vn -0.168762 -0.981807 -0.087029
vn 0.749426 -0.587759 0.304796
vn 0.749426 -0.587759 0.304796
vn 0.749426 -0.587759 0.304796
vn 0.749426 -0.587759 0.304796
vn 0.749411 0.587781 0.304789
vn 0.749411 0.587781 0.304789
vn 0.749411 0.587781 0.304789
vn 0.749411 0.587781 0.304789
vn 0.459847 -0.743656 -0.485301
vn 0.459847 -0.743656 -0.485301
vn 0.459847 -0.743656 -0.485301
vn 0.459847 -0.743656 -0.485301
vn 0.973818 -0.000000 -0.227328
vn 0.973818 -0.000000 -0.227328
vn 0.973818 -0.000000 -0.227328
vn 0.973818 -0.000000 -0.227328
vn 0.459847 0.743655 -0.485301
vn 0.459847 0.743655 -0.485301
vn 0.459847 0.743655 -0.485301
vn 0.459847 0.743655 -0.485301
vn -0.372324 0.473217 -0.798399
vn -0.372324 0.473217 -0.798399
vn -0.372324 0.473217 -0.798399
vn -0.372324 0.473217 -0.798399
vn -0.372312 -0.473226 -0.798399
vn -0.372312 -0.473226 -0.798399
vn -0.372312 -0.473226 -0.798399
vn -0.372312 -0.473226 -0.798399
s off
f 12/31/1 13/32/2 14/13/3 15/12/4
f 13/32/5 16/33/6 17/14/7 14/13/8
f 16/33/9 18/34/10 19/15/11 17/14/12
f 18/34/13 20/35/14 21/16/15 19/15/16
f 20/35/17 12/36/18 15/17/19 21/16/20
s 1
f 2/2/21 1/1/22 6/23/23
f 3/3/24 2/2/21 6/23/23
f 4/4/25 3/3/24 6/23/23
f 5/5/26 4/4/25 6/23/23
f 1/1/22 5/5/26 6/23/23
s 2
f 15/21/27 14/20/28 22/24/29
f 14/20/28 17/19/30 22/24/29
f 17/19/30 19/18/31 22/24/29
f 19/18/31 21/22/32 22/24/29
f 21/22/32 15/21/27 22/24/29
s off
f 1/6/33 2/7/34 8/27/35 7/26/36
f 2/7/37 3/8/38 9/28/39 8/27/40
f 3/8/41 4/9/42 10/29/43 9/28/44
f 4/9/45 5/10/46 11/30/47 10/29/48
f 5/10/49 1/11/50 7/25/51 11/30/52
f 7/26/53 8/27/54 13/32/55 12/31/56
f 8/27/57 9/28/58 16/33/59 13/32/60
f 9/28/61 10/29/62 18/34/63 16/33/64
f 10/29/65 11/30/66 20/35/67 18/34/68
f 11/30/69 7/25/70 12/36/71 20/35/72
