# This file uses centimeters as units for non-parametric coordinates.

mtllib Baralho.mtl
v -2.706051 -5.381880 -8.707709
v -2.706051 5.381880 -8.707709
v -2.706051 -5.381880 8.707710
v -2.706051 5.381860 8.707710
v -0.011845 -5.381860 -8.707709
v -0.011845 5.381880 -8.707709
v -0.011845 5.381880 8.707710
v -0.011845 -5.381880 8.707710
v 0.011835 -3.530180 -9.608669
v 0.011835 7.015760 -7.454371
v 2.706051 7.015760 -7.454371
v 2.706051 -3.530180 -9.608669
v 2.706051 3.530180 9.608669
v 2.706051 -7.015759 7.454372
v 0.011835 3.530180 9.608669
v 0.011835 -7.015760 7.454372
v 0.064888 -2.891280 -4.678011
v 0.064888 2.891280 -4.678011
v 0.243053 2.891280 -4.678011
v 0.243053 -2.891280 -4.678011
v 0.064888 2.891280 4.678011
v 0.064888 -2.891280 4.678011
v 0.243053 -2.891280 4.678011
v 0.243053 2.891280 4.678011
vt 0.375000 0.125000
vt 0.625000 0.125000
vt 0.625000 0.250000
vt 0.375000 0.250000
vt 0.625000 0.500000
vt 0.375000 0.500000
vt 0.625000 0.625000
vt 0.375000 0.625000
vt 0.375000 0.750000
vt 0.625000 0.750000
vt 0.625000 1.000000
vt 0.375000 1.000000
vt 0.875000 0.125000
vt 0.875000 0.250000
vt 0.125000 0.125000
vt 0.125000 0.250000
vt 0.375000 0.000000
vt 0.625000 0.000000
vt 0.625000 0.125000
vt 0.375000 0.125000
vt 0.875000 0.000000
vt 0.875000 0.125000
vt 0.375000 0.625000
vt 0.625000 0.625000
vt 0.125000 0.000000
vt 0.125000 0.125000
vt 0.375000 0.125000
vt 0.625000 0.125000
vt 0.625000 0.125000
vt 0.375000 0.125000
vt 0.625000 0.625000
vt 0.375000 0.625000
vt 0.375000 0.625000
vt 0.625000 0.625000
vt 0.875000 0.125000
vt 0.875000 0.125000
vt 0.125000 0.125000
vt 0.125000 0.125000
vn 0.000000 0.200144 -0.979766
vn 0.000000 0.200144 -0.979766
vn 0.000000 0.200144 -0.979766
vn 0.000000 0.200144 -0.979766
vn 1.000000 -0.000000 0.000000
vn 1.000000 -0.000000 0.000000
vn 1.000000 -0.000000 0.000000
vn 1.000000 -0.000000 0.000000
vn -0.000000 -0.200144 0.979766
vn -0.000000 -0.200144 0.979766
vn -0.000000 -0.200144 0.979766
vn -0.000000 -0.200144 0.979766
vn -1.000000 0.000000 -0.000000
vn -1.000000 0.000000 -0.000000
vn -1.000000 0.000000 -0.000000
vn -1.000000 0.000000 -0.000000
vn 0.000000 0.979766 0.200144
vn 0.000000 0.979766 0.200144
vn 0.000000 0.979766 0.200144
vn 0.000000 0.979766 0.200144
vn -0.000000 -0.979766 -0.200144
vn -0.000000 -0.979766 -0.200144
vn -0.000000 -0.979766 -0.200144
vn -0.000000 -0.979766 -0.200144
vn 0.000000 -0.000000 -1.000000
vn 0.000000 -0.000000 -1.000000
vn 0.000000 -0.000000 -1.000000
vn 0.000000 -0.000000 -1.000000
vn 0.000000 1.000000 0.000000
vn 0.000000 1.000000 0.000000
vn 0.000000 1.000000 0.000000
vn 0.000000 1.000000 0.000000
vn -0.000000 0.000000 1.000000
vn -0.000000 0.000000 1.000000
vn -0.000000 0.000000 1.000000
vn -0.000000 0.000000 1.000000
vn -0.000000 -1.000000 -0.000000
vn -0.000000 -1.000000 -0.000000
vn -0.000000 -1.000000 -0.000000
vn -0.000000 -1.000000 -0.000000
vn 0.000000 -0.000000 -1.000000
vn 0.000000 -0.000000 -1.000000
vn 0.000000 -0.000000 -1.000000
vn 0.000000 -0.000000 -1.000000
vn -0.000000 0.000000 1.000000
vn -0.000000 0.000000 1.000000
vn -0.000000 0.000000 1.000000
vn -0.000000 0.000000 1.000000
vn 0.000000 1.000000 0.000000
vn 0.000000 1.000000 0.000000
vn 0.000000 1.000000 0.000000
vn 0.000000 1.000000 0.000000
vn -0.000000 -1.000000 -0.000000
vn -0.000000 -1.000000 -0.000000
vn -0.000000 -1.000000 -0.000000
vn -0.000000 -1.000000 -0.000000
vn 0.999819 -0.000000 -0.019039
vn 0.999819 -0.000000 -0.019039
vn 0.999819 -0.000000 -0.019039
vn 0.999819 -0.000000 -0.019039
vn -0.998373 -0.007459 0.056532
vn -0.998373 -0.007459 0.056532
vn -0.998373 -0.007459 0.056532
vn -0.998373 -0.007459 0.056532
vn 0.999819 -0.000000 0.019039
vn 0.999819 -0.000000 0.019039
vn 0.999819 -0.000000 0.019039
vn 0.999819 -0.000000 0.019039
vn -0.998373 0.007459 -0.056532
vn -0.998373 0.007459 -0.056532
vn -0.998373 0.007459 -0.056532
vn -0.998373 0.007459 -0.056532
vn 0.999526 0.030795 0.000000
vn 0.999526 0.030795 0.000000
vn 0.999526 0.030795 0.000000
vn 0.999526 0.030795 0.000000
vn -0.995757 -0.091228 -0.012036
vn -0.995757 -0.091228 -0.012036
vn -0.995757 -0.091228 -0.012036
vn -0.995757 -0.091228 -0.012036
vn 0.999526 -0.030795 0.000000
vn 0.999526 -0.030795 0.000000
vn 0.999526 -0.030795 0.000000
vn 0.999526 -0.030795 0.000000
vn -0.995757 0.091228 0.012036
vn -0.995757 0.091228 0.012036
vn -0.995757 0.091228 0.012036
vn -0.995757 0.091228 0.012036
s off
g initialShadingGroup Mesh
f 9/1/1 10/2/2 11/3/3 12/4/4
f 12/4/5 11/3/6 13/5/7 14/6/8
f 14/6/9 13/5/10 15/7/11 16/8/12
f 3/9/13 4/10/14 2/11/15 1/12/16
f 10/2/17 15/13/18 13/14/19 11/3/20
f 16/15/21 9/1/22 12/4/23 14/16/24
f 1/17/25 2/18/26 6/19/27 5/20/28
f 2/18/29 4/21/30 7/22/31 6/19/32
f 8/23/33 7/24/34 4/10/35 3/9/36
f 3/25/37 1/17/38 5/20/39 8/26/40
f 17/27/41 18/28/42 19/29/43 20/30/44
f 21/31/45 22/32/46 23/33/47 24/34/48
f 18/28/49 21/35/50 24/36/51 19/29/52
f 22/37/53 17/27/54 20/30/55 23/38/56
f 5/20/57 6/19/58 18/28/59 17/27/60
f 10/2/61 9/1/62 20/30/63 19/29/64
f 7/24/65 8/23/66 22/32/67 21/31/68
f 16/8/69 15/7/70 24/34/71 23/33/72
f 6/19/73 7/22/74 21/35/75 18/28/76
f 15/13/77 10/2/78 19/29/79 24/36/80
f 8/26/81 5/20/82 17/27/83 22/37/84
f 9/1/85 16/15/86 23/38/87 20/30/88
