# This file uses centimeters as units for non-parametric coordinates.

v -0.269094 4.877515 3.362093
v 0.269094 4.877515 3.362093
v -0.269094 4.877515 2.491322
v 0.269093 4.877515 2.491322
v -0.269093 5.012225 3.362093
v 0.269094 5.012225 3.362093
v 0.269094 5.012225 2.491322
v -0.269094 5.012225 2.491322
v -0.176509 5.013409 3.407141
v 0.350788 5.013409 3.299426
v 0.350788 5.148120 3.299426
v -0.176509 5.148120 3.407141
v 0.176509 5.148120 2.446274
v -0.350788 5.148120 2.553989
v 0.176509 5.013409 2.446274
v -0.350788 5.013409 2.553989
v -0.144564 5.016062 3.160608
v 0.144564 5.016062 3.160608
v 0.144564 5.024970 3.160608
v -0.144564 5.024970 3.160608
v 0.144564 5.016062 2.692807
v -0.144564 5.016062 2.692807
v -0.144564 5.024970 2.692807
v 0.144564 5.024970 2.692807
vt 0.375000 0.000000
vt 0.625000 0.000000
vt 0.375000 0.250000
vt 0.625000 0.250000
vt 0.375000 0.500000
vt 0.625000 0.500000
vt 0.375000 0.750000
vt 0.625000 0.750000
vt 0.375000 1.000000
vt 0.625000 1.000000
vt 0.875000 0.000000
vt 0.875000 0.250000
vt 0.125000 0.000000
vt 0.125000 0.250000
vt 0.375000 0.125000
vt 0.625000 0.125000
vt 0.625000 0.625000
vt 0.875000 0.125000
vt 0.125000 0.125000
vt 0.375000 0.625000
vt 0.375000 0.125000
vt 0.625000 0.125000
vt 0.625000 0.625000
vt 0.375000 0.625000
vt 0.875000 0.125000
vt 0.125000 0.125000
vt 0.375000 0.125000
vt 0.625000 0.125000
vt 0.625000 0.125000
vt 0.375000 0.125000
vt 0.625000 0.625000
vt 0.375000 0.625000
vt 0.375000 0.625000
vt 0.625000 0.625000
vt 0.875000 0.125000
vt 0.875000 0.125000
vt 0.125000 0.125000
vt 0.125000 0.125000
vn 0.200144 0.000000 0.979767
vn 0.200144 0.000000 0.979767
vn 0.200144 0.000000 0.979767
vn 0.200144 0.000000 0.979767
vn 0.000000 1.000000 -0.000000
vn 0.000000 1.000000 -0.000000
vn 0.000000 1.000000 -0.000000
vn 0.000000 1.000000 -0.000000
vn -0.200144 0.000000 -0.979767
vn -0.200144 0.000000 -0.979767
vn -0.200144 0.000000 -0.979767
vn -0.200144 0.000000 -0.979767
vn 0.000000 -1.000000 0.000000
vn 0.000000 -1.000000 0.000000
vn 0.000000 -1.000000 0.000000
vn 0.000000 -1.000000 0.000000
vn 0.979767 0.000000 -0.200144
vn 0.979767 0.000000 -0.200144
vn 0.979767 0.000000 -0.200144
vn 0.979767 0.000000 -0.200144
vn -0.979767 0.000000 0.200144
vn -0.979767 0.000000 0.200144
vn -0.979767 0.000000 0.200144
vn -0.979767 0.000000 0.200144
vn 0.000000 0.000000 1.000000
vn 0.000000 0.000000 1.000000
vn 0.000000 0.000000 1.000000
vn 0.000000 0.000000 1.000000
vn 1.000000 0.000000 -0.000000
vn 1.000000 0.000000 -0.000000
vn 1.000000 0.000000 -0.000000
vn 1.000000 0.000000 -0.000000
vn 0.000000 0.000000 -1.000000
vn 0.000000 0.000000 -1.000000
vn 0.000000 0.000000 -1.000000
vn 0.000000 0.000000 -1.000000
vn -1.000000 0.000000 0.000000
vn -1.000000 0.000000 0.000000
vn -1.000000 0.000000 0.000000
vn -1.000000 0.000000 0.000000
vn 0.000000 0.000000 1.000000
vn 0.000000 0.000000 1.000000
vn 0.000000 0.000000 1.000000
vn 0.000000 0.000000 1.000000
vn 0.000000 0.000000 -1.000000
vn 0.000000 0.000000 -1.000000
vn 0.000000 0.000000 -1.000000
vn 0.000000 0.000000 -1.000000
vn 1.000000 0.000000 0.000000
vn 1.000000 0.000000 0.000000
vn 1.000000 0.000000 0.000000
vn 1.000000 0.000000 0.000000
vn -1.000000 0.000000 0.000000
vn -1.000000 0.000000 0.000000
vn -1.000000 0.000000 0.000000
vn -1.000000 0.000000 0.000000
vn 0.000000 0.999819 0.019039
vn 0.000000 0.999819 0.019039
vn 0.000000 0.999819 0.019039
vn 0.000000 0.999819 0.019039
vn -0.007459 -0.998373 -0.056532
vn -0.007459 -0.998373 -0.056532
vn -0.007459 -0.998373 -0.056532
vn -0.007459 -0.998373 -0.056532
vn 0.000000 0.999819 -0.019039
vn 0.000000 0.999819 -0.019039
vn 0.000000 0.999819 -0.019039
vn 0.000000 0.999819 -0.019039
vn 0.007459 -0.998373 0.056532
vn 0.007459 -0.998373 0.056532
vn 0.007459 -0.998373 0.056532
vn 0.007459 -0.998373 0.056532
vn 0.030795 0.999526 0.000000
vn 0.030795 0.999526 0.000000
vn 0.030795 0.999526 0.000000
vn 0.030795 0.999526 0.000000
vn -0.091228 -0.995757 0.012036
vn -0.091228 -0.995757 0.012036
vn -0.091228 -0.995757 0.012036
vn -0.091228 -0.995757 0.012036
vn -0.030795 0.999526 0.000000
vn -0.030795 0.999526 0.000000
vn -0.030795 0.999526 0.000000
vn -0.030795 0.999526 0.000000
vn 0.091228 -0.995757 -0.012036
vn 0.091228 -0.995757 -0.012036
vn 0.091228 -0.995757 -0.012036
vn 0.091228 -0.995757 -0.012036
s off
f 9/21/1 10/22/2 11/4/3 12/3/4
f 12/3/5 11/4/6 13/6/7 14/5/8
f 14/5/9 13/6/10 15/23/11 16/24/12
f 3/7/13 4/8/14 2/10/15 1/9/16
f 10/22/17 15/25/18 13/12/19 11/4/20
f 16/26/21 9/21/22 12/3/23 14/14/24
f 1/1/25 2/2/26 6/16/27 5/15/28
f 2/2/29 4/11/30 7/18/31 6/16/32
f 8/20/33 7/17/34 4/8/35 3/7/36
f 3/13/37 1/1/38 5/15/39 8/19/40
f 17/27/41 18/28/42 19/29/43 20/30/44
f 21/31/45 22/32/46 23/33/47 24/34/48
f 18/28/49 21/35/50 24/36/51 19/29/52
f 22/37/53 17/27/54 20/30/55 23/38/56
f 5/15/57 6/16/58 18/28/59 17/27/60
f 10/22/61 9/21/62 20/30/63 19/29/64
f 7/17/65 8/20/66 22/32/67 21/31/68
f 16/24/69 15/23/70 24/34/71 23/33/72
f 6/16/73 7/18/74 21/35/75 18/28/76
f 15/25/77 10/22/78 19/29/79 24/36/80
f 8/19/81 5/15/82 17/27/83 22/37/84
f 9/21/85 16/26/86 23/38/87 20/30/88
