# This file uses centimeters as units for non-parametric coordinates.

mtllib Batom.mtl
v 1.746111 0.303209 0.781932
v 1.725645 -0.635769 0.673213
v 1.721296 -1.011190 -0.194516
v 1.737452 -0.447650 -0.953526
v 1.757936 0.491331 -0.844789
v 1.762266 0.866749 0.022941
v 4.211235 0.248089 0.793447
v 4.744253 -0.703251 0.687304
v 4.981680 -1.084089 -0.179300
v 5.024700 -0.521150 -0.938163
v 4.837198 0.422490 -0.830407
v 4.240017 0.811369 0.034509
v 4.605408 -0.136251 -0.072412
v 1.747341 0.408490 1.025262
v 1.721106 -0.793791 0.886030
v 1.715546 -1.274490 -0.225005
v 1.736231 -0.552931 -1.196837
v 1.762457 0.649350 -1.057606
v 1.768026 1.130049 0.053434
v -4.713440 0.552931 0.995073
v -4.739666 -0.649331 0.855861
v -4.719000 0.072229 -0.115967
v -4.745226 -1.130049 -0.255194
v -4.724560 -0.408471 -1.227007
v -4.698324 0.793791 -1.087794
v -4.692774 1.274490 0.023260
vt 0.375000 0.312500
vt 0.416667 0.312500
vt 0.416667 0.688440
vt 0.375000 0.688440
vt 0.458333 0.312500
vt 0.458333 0.688440
vt 0.500000 0.312500
vt 0.500000 0.688440
vt 0.541667 0.312500
vt 0.541667 0.688440
vt 0.583333 0.312500
vt 0.583333 0.688440
vt 0.625000 0.312500
vt 0.625000 0.688440
vt 0.421875 0.020934
vt 0.578125 0.020934
vt 0.500000 0.150000
vt 0.343750 0.156250
vt 0.421875 0.291566
vt 0.578125 0.291566
vt 0.656250 0.156250
vt 0.578125 0.979066
vt 0.421875 0.979066
vt 0.500000 0.837500
vt 0.343750 0.843750
vt 0.421875 0.708434
vt 0.578125 0.708434
vt 0.656250 0.843750
vt 0.421875 0.020934
vt 0.578125 0.020934
vt 0.578125 0.020934
vt 0.421875 0.020934
vt 0.343750 0.156250
vt 0.343750 0.156250
vt 0.421875 0.291566
vt 0.421875 0.291566
vt 0.578125 0.291566
vt 0.578125 0.291566
vt 0.656250 0.156250
vt 0.656250 0.156250
vn -0.007208 -0.114871 0.993354
vn -0.007208 -0.114871 0.993354
vn -0.007208 -0.114871 0.993354
vn -0.007208 -0.114871 0.993354
vn -0.022368 -0.917510 0.397083
vn -0.022368 -0.917510 0.397083
vn -0.022368 -0.917510 0.397083
vn -0.022368 -0.917510 0.397083
vn -0.015160 -0.802639 -0.596272
vn -0.015160 -0.802639 -0.596272
vn -0.015160 -0.802639 -0.596272
vn -0.015160 -0.802639 -0.596272
vn 0.007208 0.114871 -0.993354
vn 0.007208 0.114871 -0.993354
vn 0.007208 0.114871 -0.993354
vn 0.007208 0.114871 -0.993354
vn 0.022368 0.917510 -0.397082
vn 0.022368 0.917510 -0.397082
vn 0.022368 0.917510 -0.397082
vn 0.022368 0.917510 -0.397082
vn 0.015160 0.802639 0.596272
vn 0.015160 0.802639 0.596272
vn 0.015160 0.802639 0.596272
vn 0.015160 0.802639 0.596272
vn -0.999739 0.022352 -0.004669
vn -0.999739 0.022352 -0.004669
vn -0.999739 0.022352 -0.004669
vn -0.999739 0.022352 -0.004669
vn -0.999739 0.022352 -0.004669
vn -0.999739 0.022352 -0.004669
vn -0.999739 0.022352 -0.004669
vn -0.999739 0.022352 -0.004669
vn -0.999739 0.022352 -0.004669
vn -0.999739 0.022352 -0.004669
vn -0.999739 0.022352 -0.004669
vn -0.999739 0.022352 -0.004669
vn -0.999739 0.022352 -0.004670
vn -0.999739 0.022352 -0.004669
vn -0.999739 0.022352 -0.004669
vn -0.999739 0.022352 -0.004669
vn -0.999739 0.022352 -0.004670
vn -0.999739 0.022352 -0.004669
vn 0.890521 0.391587 0.231586
vn 0.899394 0.412833 0.143733
vn 0.902460 0.319766 0.288643
vn 0.899394 0.412833 0.143733
vn 0.918180 0.341960 0.200021
vn 0.902460 0.319766 0.288643
vn 0.918180 0.341960 0.200021
vn 0.911635 0.235610 0.336764
vn 0.902460 0.319766 0.288643
vn 0.911635 0.235610 0.336764
vn 0.882362 0.207148 0.422524
vn 0.902460 0.319766 0.288643
vn 0.882362 0.207148 0.422524
vn 0.881333 0.298503 0.366262
vn 0.902460 0.319766 0.288643
vn 0.881333 0.298503 0.366262
vn 0.890521 0.391587 0.231586
vn 0.902460 0.319766 0.288643
vn 0.999739 -0.022352 0.004670
vn 0.999739 -0.022352 0.004670
vn 0.999739 -0.022352 0.004670
vn 0.999739 -0.022352 0.004670
vn 0.999739 -0.022352 0.004669
vn 0.999739 -0.022352 0.004669
vn 0.999739 -0.022352 0.004669
vn 0.999739 -0.022352 0.004669
vn 0.999739 -0.022352 0.004669
vn 0.999739 -0.022352 0.004669
vn 0.999739 -0.022352 0.004669
vn 0.999739 -0.022352 0.004669
vn 0.999739 -0.022352 0.004670
vn 0.999739 -0.022352 0.004670
vn 0.999739 -0.022352 0.004670
vn 0.999739 -0.022352 0.004670
vn 0.999739 -0.022352 0.004669
vn 0.999739 -0.022352 0.004669
vn 0.999739 -0.022352 0.004669
vn 0.999739 -0.022352 0.004669
vn 0.999739 -0.022352 0.004669
vn 0.999739 -0.022352 0.004669
vn 0.999739 -0.022352 0.004669
vn 0.999739 -0.022352 0.004669
vn -0.007208 -0.114871 0.993354
vn -0.007208 -0.114871 0.993354
vn -0.007208 -0.114871 0.993354
vn -0.007208 -0.114871 0.993354
vn -0.022368 -0.917510 0.397083
vn -0.022368 -0.917510 0.397083
vn -0.022368 -0.917510 0.397083
vn -0.022368 -0.917510 0.397083
vn -0.015160 -0.802639 -0.596272
vn -0.015160 -0.802639 -0.596272
vn -0.015160 -0.802639 -0.596272
vn -0.015160 -0.802639 -0.596272
vn 0.007208 0.114871 -0.993354
vn 0.007208 0.114871 -0.993354
vn 0.007208 0.114871 -0.993354
vn 0.007208 0.114871 -0.993354
vn 0.022368 0.917510 -0.397082
vn 0.022368 0.917510 -0.397082
vn 0.022368 0.917510 -0.397082
vn 0.022368 0.917510 -0.397082
vn 0.015160 0.802639 0.596272
vn 0.015160 0.802639 0.596272
vn 0.015160 0.802639 0.596272
vn 0.015160 0.802639 0.596272
s off
g initialShadingGroup Mesh
f 1/1/1 2/2/2 8/3/3 7/4/4
f 2/2/5 3/5/6 9/6/7 8/3/8
f 3/5/9 4/7/10 10/8/11 9/6/12
f 4/7/13 5/9/14 11/10/15 10/8/16
f 5/9/17 6/11/18 12/12/19 11/10/20
f 6/11/21 1/13/22 7/14/23 12/12/24
f 21/15/25 20/16/26 22/17/27
f 23/18/28 21/15/29 22/17/30
f 24/19/31 23/18/32 22/17/33
f 25/20/34 24/19/35 22/17/36
f 26/21/37 25/20/38 22/17/39
f 20/16/40 26/21/41 22/17/42
f 7/22/43 8/23/44 13/24/45
f 8/23/46 9/25/47 13/24/48
f 9/25/49 10/26/50 13/24/51
f 10/26/52 11/27/53 13/24/54
f 11/27/55 12/28/56 13/24/57
f 12/28/58 7/22/59 13/24/60
f 2/29/61 1/30/62 14/31/63 15/32/64
f 3/33/65 2/29/66 15/32/67 16/34/68
f 4/35/69 3/33/70 16/34/71 17/36/72
f 5/37/73 4/35/74 17/36/75 18/38/76
f 6/39/77 5/37/78 18/38/79 19/40/80
f 1/30/81 6/39/82 19/40/83 14/31/84
f 15/32/85 14/31/86 20/16/87 21/15/88
f 16/34/89 15/32/90 21/15/91 23/18/92
f 17/36/93 16/34/94 23/18/95 24/19/96
f 18/38/97 17/36/98 24/19/99 25/20/100
f 19/40/101 18/38/102 25/20/103 26/21/104
f 14/31/105 19/40/106 26/21/107 20/16/108
