# This file uses centimeters as units for non-parametric coordinates.

mtllib Cabideoro.mtl
v -82.087067 -125.619736 -2.679296
v -82.087067 -123.804398 -1.546903
v -82.087059 -123.139954 0.000005
v -82.087067 -123.804398 1.546884
v -82.087067 -125.619736 2.679305
v -82.087059 -128.099487 3.093781
v -82.087059 -130.579193 2.679305
v -82.087059 -132.394531 1.546884
v -82.087067 -133.058975 0.000005
v -82.087059 -132.394531 -1.546903
v -82.087059 -130.579193 -2.679296
v -82.087059 -128.099487 -3.093801
v 73.580818 -125.619736 -2.679296
v 73.580818 -123.804398 -1.546903
v 73.580818 -123.139954 0.000005
v 73.580818 -123.804398 1.546884
v 73.580818 -125.619736 2.679305
v 73.580826 -128.099472 3.093781
v 73.580826 -130.579178 2.679305
v 73.580826 -132.394516 1.546884
v 73.580826 -133.058960 0.000005
v 73.580826 -132.394516 -1.546903
v 73.580826 -130.579178 -2.679296
v 73.580826 -128.099472 -3.093801
v -82.087059 -128.099487 0.000005
v 75.688118 -123.143356 -2.679296
v 74.126663 -123.148659 -1.546903
v 73.555130 -123.150589 0.000005
v 74.126663 -123.148659 1.546884
v 75.688118 -123.143356 2.679305
v 77.821106 -123.136101 3.093801
v 79.954056 -123.128815 2.679305
v 81.515526 -123.123512 1.546884
v 82.087059 -123.121567 0.000005
v 81.515526 -123.123512 -1.546903
v 79.954056 -123.128815 -2.679296
v 77.821106 -123.136101 -3.093801
v -82.087067 125.619736 2.679305
v -82.087067 123.804398 1.546884
v -82.087059 123.139954 0.000005
v -82.087067 123.804398 -1.546903
v -82.087067 125.619736 -2.679296
v -82.087067 128.099472 -3.093801
v -82.087067 130.579178 -2.679296
v -82.087067 132.394485 -1.546903
v -82.087059 133.058960 0.000005
v -82.087067 132.394485 1.546884
v -82.087067 130.579178 2.679305
v -82.087067 128.099472 3.093781
v 73.580818 125.619736 2.679305
v 73.580818 123.804398 1.546884
v 73.580818 123.139954 0.000005
v 73.580818 123.804398 -1.546903
v 73.580818 125.619736 -2.679296
v 73.580826 128.099472 -3.093801
v 73.580826 130.579178 -2.679296
v 73.580818 132.394485 -1.546903
v 73.580826 133.058960 0.000005
v 73.580818 132.394485 1.546884
v 73.580826 130.579178 2.679305
v 73.580826 128.099472 3.093781
v -82.087067 128.099472 0.000005
v 75.688118 123.143349 2.679305
v 74.126663 123.148651 1.546884
v 73.555130 123.150604 0.000005
v 74.126663 123.148651 -1.546903
v 75.688118 123.143349 -2.679296
v 77.821106 123.136101 -3.093801
v 79.954056 123.128815 -2.679296
v 81.515526 123.123512 -1.546903
v 82.087059 123.121567 0.000005
v 81.515526 123.123512 1.546884
v 79.954056 123.128815 2.679305
v 77.821106 123.136101 3.093801
vt 0.020985 0.599284
vt 0.020985 0.595082
vt 0.439933 0.595082
vt 0.439933 0.599284
vt 0.934174 0.001992
vt 0.939915 0.001992
vt 0.939915 0.420940
vt 0.934174 0.420940
vt 0.945655 0.001992
vt 0.945655 0.420940
vt 0.468146 0.021878
vt 0.468146 0.017675
vt 0.887094 0.017675
vt 0.887094 0.021878
vt 0.468146 0.011935
vt 0.887094 0.011935
vt 0.468146 0.006195
vt 0.887094 0.006195
vt 0.468146 0.001992
vt 0.887094 0.001992
vt 0.966159 0.420940
vt 0.960418 0.420940
vt 0.960418 0.001992
vt 0.966159 0.001992
vt 0.954678 0.420940
vt 0.954678 0.001992
vt 0.020985 0.614968
vt 0.020985 0.610765
vt 0.439933 0.610765
vt 0.439933 0.614968
vt 0.020985 0.605025
vt 0.439933 0.605025
vt 0.896675 0.640256
vt 0.892473 0.636053
vt 0.902416 0.630313
vt 0.902416 0.641794
vt 0.908156 0.640256
vt 0.912359 0.636053
vt 0.913897 0.630313
vt 0.912359 0.624572
vt 0.908156 0.620370
vt 0.902416 0.618832
vt 0.896675 0.620370
vt 0.892473 0.624572
vt 0.890935 0.630313
vt 0.441402 0.593564
vt 0.445604 0.593551
vt 0.915307 0.001992
vt 0.921047 0.003530
vt 0.921047 0.003506
vt 0.915307 0.003510
vt 0.926788 0.001992
vt 0.926788 0.003510
vt 0.892765 0.023408
vt 0.888563 0.023396
vt 0.898506 0.023425
vt 0.904246 0.023442
vt 0.908448 0.023454
vt 0.013409 0.616506
vt 0.007669 0.618044
vt 0.007669 0.595039
vt 0.013409 0.595044
vt 0.001928 0.616506
vt 0.001928 0.595044
vt 0.457085 0.593518
vt 0.461287 0.593506
vt 0.451345 0.593535
vt 0.468146 0.599284
vt 0.468146 0.595082
vt 0.887094 0.595082
vt 0.887094 0.599284
vt 0.948738 0.843752
vt 0.942998 0.843752
vt 0.942998 0.424804
vt 0.948738 0.424804
vt 0.937257 0.843752
vt 0.937257 0.424804
vt 0.020985 0.021878
vt 0.020985 0.017675
vt 0.439933 0.017675
vt 0.439933 0.021878
vt 0.020985 0.011935
vt 0.439933 0.011935
vt 0.020985 0.006194
vt 0.439933 0.006194
vt 0.020985 0.001992
vt 0.439933 0.001992
vt 0.919836 0.579060
vt 0.925577 0.579060
vt 0.925577 0.998008
vt 0.919836 0.998008
vt 0.931318 0.579060
vt 0.931318 0.998008
vt 0.468146 0.614968
vt 0.468146 0.610765
vt 0.887094 0.610765
vt 0.887094 0.614968
vt 0.468146 0.605025
vt 0.887094 0.605025
vt 0.879255 0.620370
vt 0.883457 0.624572
vt 0.873514 0.630313
vt 0.873514 0.618832
vt 0.867774 0.620370
vt 0.863571 0.624572
vt 0.862033 0.630313
vt 0.863571 0.636053
vt 0.867774 0.640256
vt 0.873514 0.641794
vt 0.879255 0.640256
vt 0.883457 0.636053
vt 0.884995 0.630313
vt 0.888563 0.593564
vt 0.892765 0.593552
vt 0.926788 0.575196
vt 0.921047 0.573658
vt 0.921047 0.573682
vt 0.926788 0.573678
vt 0.915307 0.575196
vt 0.915307 0.573678
vt 0.445604 0.023408
vt 0.441402 0.023396
vt 0.451345 0.023425
vt 0.457085 0.023442
vt 0.461287 0.023454
vt 0.001928 0.003530
vt 0.007669 0.001992
vt 0.007669 0.024997
vt 0.001928 0.024992
vt 0.013409 0.003530
vt 0.013409 0.024992
vt 0.904246 0.593518
vt 0.908448 0.593506
vt 0.898506 0.593535
vn 0.000000 0.529268 -0.848455
vn 0.000000 0.529268 -0.848455
vn -0.007050 0.529228 -0.848450
vn -0.003519 0.529251 -0.848458
vn 0.000000 0.918820 -0.394678
vn 0.000000 0.918820 -0.394678
vn -0.001796 0.918811 -0.394694
vn -0.001675 0.918812 -0.394693
vn 0.000000 0.918820 0.394678
vn 0.000000 0.918820 0.394678
vn -0.001675 0.918812 0.394693
vn -0.001796 0.918811 0.394694
vn 0.000000 0.529268 0.848455
vn 0.000000 0.529268 0.848455
vn -0.003519 0.529251 0.848458
vn -0.007050 0.529228 0.848450
vn -0.000000 0.164864 0.986316
vn -0.000000 0.164864 0.986316
vn -0.002024 0.164859 0.986315
vn -0.005666 0.164849 0.986303
vn -0.000000 -0.164864 0.986316
vn -0.000000 -0.164864 0.986316
vn 0.003357 -0.164859 0.986311
vn 0.009265 -0.164845 0.986276
vn -0.000000 -0.529268 0.848455
vn -0.000000 -0.529268 0.848455
vn 0.018359 -0.529165 0.848320
vn 0.035714 -0.528904 0.847930
vn -0.000000 -0.918827 0.394661
vn -0.000000 -0.918827 0.394661
vn 0.047747 -0.917772 0.394226
vn 0.059711 -0.917179 0.393976
vn -0.000000 -0.918827 -0.394661
vn -0.000000 -0.918827 -0.394661
vn 0.059711 -0.917179 -0.393976
vn 0.047747 -0.917772 -0.394226
vn -0.000000 -0.529268 -0.848455
vn -0.000000 -0.529268 -0.848455
vn 0.035714 -0.528904 -0.847930
vn 0.018359 -0.529165 -0.848320
vn 0.000000 -0.164864 -0.986316
vn 0.000000 -0.164864 -0.986316
vn 0.009265 -0.164845 -0.986276
vn 0.003357 -0.164859 -0.986311
vn 0.000000 0.164864 -0.986316
vn 0.000000 0.164864 -0.986316
vn -0.005666 0.164849 -0.986303
vn -0.002024 0.164859 -0.986315
vn -1.000000 0.000000 -0.000000
vn -1.000000 0.000000 -0.000000
vn -1.000000 0.000000 -0.000000
vn -1.000000 0.000000 -0.000000
vn -1.000000 0.000000 -0.000000
vn -1.000000 0.000000 -0.000000
vn -1.000000 0.000000 -0.000000
vn -1.000000 0.000000 -0.000000
vn -1.000000 0.000000 -0.000000
vn -1.000000 0.000000 -0.000000
vn -1.000000 0.000000 -0.000000
vn -1.000000 0.000000 -0.000000
vn -1.000000 0.000000 -0.000000
vn -1.000000 0.000000 -0.000000
vn -1.000000 0.000000 -0.000000
vn -1.000000 0.000000 -0.000000
vn -1.000000 0.000000 -0.000000
vn -1.000000 0.000000 -0.000000
vn -1.000000 0.000000 -0.000000
vn -1.000000 0.000000 -0.000000
vn -1.000000 0.000000 -0.000000
vn -1.000000 0.000000 -0.000000
vn -1.000000 0.000000 -0.000000
vn -1.000000 0.000000 -0.000000
vn -1.000000 0.000000 -0.000000
vn -1.000000 0.000000 -0.000000
vn -1.000000 0.000000 -0.000000
vn -1.000000 0.000000 -0.000000
vn -1.000000 0.000000 -0.000000
vn -1.000000 0.000000 -0.000000
vn -1.000000 0.000000 -0.000000
vn -1.000000 0.000000 -0.000000
vn -1.000000 0.000000 -0.000000
vn -1.000000 0.000000 -0.000000
vn -1.000000 0.000000 -0.000000
vn -1.000000 0.000000 -0.000000
vn -0.003519 0.529251 -0.848458
vn -0.007050 0.529228 -0.848450
vn -0.528168 0.447396 -0.721717
vn -0.528168 0.447396 -0.721717
vn -0.001675 0.918812 -0.394693
vn -0.001796 0.918811 -0.394694
vn -0.749991 0.604695 -0.268063
vn -0.749991 0.604695 -0.268063
vn -0.001796 0.918811 0.394694
vn -0.001675 0.918812 0.394693
vn -0.749993 0.604698 0.268050
vn -0.749993 0.604698 0.268050
vn -0.007050 0.529228 0.848450
vn -0.003519 0.529251 0.848458
vn -0.528170 0.447398 0.721714
vn -0.528170 0.447398 0.721714
vn -0.005666 0.164849 0.986303
vn -0.002024 0.164859 0.986315
vn -0.189257 0.161473 0.968560
vn -0.189257 0.161473 0.968560
vn 0.009265 -0.164845 0.986276
vn 0.003357 -0.164859 0.986311
vn 0.189064 -0.161647 0.968569
vn 0.189064 -0.161647 0.968569
vn 0.035714 -0.528904 0.847930
vn 0.018359 -0.529165 0.848320
vn 0.525724 -0.449846 0.721978
vn 0.525724 -0.449846 0.721978
vn 0.059711 -0.917179 0.393976
vn 0.047747 -0.917772 0.394226
vn 0.731655 -0.626241 0.269265
vn 0.731655 -0.626241 0.269265
vn 0.047747 -0.917772 -0.394226
vn 0.059711 -0.917179 -0.393976
vn 0.731655 -0.626241 -0.269265
vn 0.731655 -0.626241 -0.269265
vn 0.018359 -0.529165 -0.848320
vn 0.035714 -0.528904 -0.847930
vn 0.525724 -0.449845 -0.721979
vn 0.525724 -0.449845 -0.721979
vn 0.003357 -0.164859 -0.986311
vn 0.009265 -0.164845 -0.986276
vn 0.189063 -0.161645 -0.968569
vn 0.189063 -0.161645 -0.968569
vn -0.002024 0.164859 -0.986315
vn -0.005666 0.164849 -0.986303
vn -0.189255 0.161472 -0.968560
vn -0.189255 0.161472 -0.968560
vn -0.000000 -0.529270 0.848454
vn -0.000000 -0.529270 0.848454
vn -0.007050 -0.529230 0.848449
vn -0.003519 -0.529253 0.848457
vn -0.000000 -0.918823 0.394669
vn -0.000000 -0.918823 0.394669
vn -0.001796 -0.918814 0.394686
vn -0.001675 -0.918815 0.394684
vn -0.000000 -0.918823 -0.394669
vn -0.000000 -0.918823 -0.394669
vn -0.001675 -0.918815 -0.394684
vn -0.001796 -0.918814 -0.394686
vn -0.000000 -0.529270 -0.848454
vn -0.000000 -0.529270 -0.848454
vn -0.003519 -0.529253 -0.848457
vn -0.007050 -0.529230 -0.848449
vn 0.000000 -0.164863 -0.986317
vn 0.000000 -0.164863 -0.986317
vn -0.002024 -0.164858 -0.986315
vn -0.005666 -0.164848 -0.986303
vn 0.000000 0.164864 -0.986316
vn 0.000000 0.164864 -0.986316
vn 0.003357 0.164859 -0.986311
vn 0.009265 0.164845 -0.986276
vn 0.000000 0.529270 -0.848454
vn 0.000000 0.529270 -0.848454
vn 0.018359 0.529167 -0.848319
vn 0.035714 0.528907 -0.847928
vn 0.000000 0.918823 -0.394669
vn 0.000000 0.918823 -0.394669
vn 0.047747 0.917769 -0.394235
vn 0.059710 0.917176 -0.393984
vn 0.000000 0.918823 0.394669
vn 0.000000 0.918823 0.394669
vn 0.059710 0.917176 0.393984
vn 0.047747 0.917769 0.394235
vn 0.000000 0.529270 0.848454
vn 0.000000 0.529270 0.848454
vn 0.035715 0.528907 0.847928
vn 0.018359 0.529167 0.848319
vn -0.000000 0.164864 0.986316
vn -0.000000 0.164864 0.986316
vn 0.009265 0.164845 0.986276
vn 0.003357 0.164859 0.986311
vn -0.000000 -0.164863 0.986317
vn -0.000000 -0.164863 0.986317
vn -0.005666 -0.164848 0.986303
vn -0.002024 -0.164858 0.986315
vn -1.000000 0.000000 -0.000000
vn -1.000000 0.000000 -0.000000
vn -1.000000 0.000000 -0.000000
vn -1.000000 0.000000 -0.000000
vn -1.000000 0.000000 -0.000000
vn -1.000000 0.000000 -0.000000
vn -1.000000 0.000000 -0.000000
vn -1.000000 0.000000 -0.000000
vn -1.000000 0.000000 -0.000000
vn -1.000000 0.000000 -0.000000
vn -1.000000 0.000000 -0.000000
vn -1.000000 0.000000 -0.000000
vn -1.000000 0.000000 -0.000000
vn -1.000000 0.000000 -0.000000
vn -1.000000 0.000000 -0.000000
vn -1.000000 0.000000 -0.000000
vn -1.000000 0.000000 -0.000000
vn -1.000000 0.000000 -0.000000
vn -1.000000 0.000000 -0.000000
vn -1.000000 0.000000 -0.000000
vn -1.000000 0.000000 -0.000000
vn -1.000000 0.000000 -0.000000
vn -1.000000 0.000000 -0.000000
vn -1.000000 0.000000 -0.000000
vn -1.000000 0.000000 -0.000000
vn -1.000000 0.000000 -0.000000
vn -1.000000 0.000000 -0.000000
vn -1.000000 0.000000 -0.000000
vn -1.000000 0.000000 -0.000000
vn -1.000000 0.000000 -0.000000
vn -1.000000 0.000000 -0.000000
vn -1.000000 0.000000 -0.000000
vn -1.000000 0.000000 -0.000000
vn -1.000000 0.000000 -0.000000
vn -1.000000 0.000000 -0.000000
vn -1.000000 0.000000 -0.000000
vn -0.003519 -0.529253 0.848457
vn -0.007050 -0.529230 0.848449
vn -0.528177 -0.447404 0.721705
vn -0.528177 -0.447404 0.721705
vn -0.001675 -0.918815 0.394684
vn -0.001796 -0.918814 0.394686
vn -0.749995 -0.604699 0.268042
vn -0.749995 -0.604699 0.268042
vn -0.001796 -0.918814 -0.394686
vn -0.001675 -0.918815 -0.394684
vn -0.749995 -0.604699 -0.268042
vn -0.749995 -0.604699 -0.268042
vn -0.007050 -0.529230 -0.848449
vn -0.003519 -0.529253 -0.848457
vn -0.528177 -0.447403 -0.721706
vn -0.528177 -0.447403 -0.721706
vn -0.005666 -0.164848 -0.986303
vn -0.002024 -0.164858 -0.986315
vn -0.189255 -0.161472 -0.968560
vn -0.189255 -0.161472 -0.968560
vn 0.009265 0.164845 -0.986276
vn 0.003357 0.164859 -0.986311
vn 0.189062 0.161645 -0.968569
vn 0.189062 0.161645 -0.968569
vn 0.035714 0.528907 -0.847928
vn 0.018359 0.529167 -0.848319
vn 0.525729 0.449850 -0.721972
vn 0.525730 0.449850 -0.721972
vn 0.059710 0.917176 -0.393984
vn 0.047747 0.917769 -0.394235
vn 0.731653 0.626240 -0.269272
vn 0.731653 0.626240 -0.269272
vn 0.047747 0.917769 0.394235
vn 0.059710 0.917176 0.393984
vn 0.731653 0.626240 0.269272
vn 0.731653 0.626240 0.269272
vn 0.018359 0.529167 0.848319
vn 0.035715 0.528907 0.847928
vn 0.525731 0.449852 0.721970
vn 0.525731 0.449852 0.721970
vn 0.003357 0.164859 0.986311
vn 0.009265 0.164845 0.986276
vn 0.189062 0.161646 0.968569
vn 0.189062 0.161646 0.968569
vn -0.002024 -0.164858 0.986315
vn -0.005666 -0.164848 0.986303
vn -0.189257 -0.161473 0.968560
vn -0.189257 -0.161473 0.968560
vn -0.587086 0.000000 0.809525
vn -0.587086 0.000000 0.809525
vn -0.587086 0.000000 0.809525
vn -0.587086 0.000000 0.809525
vn -0.938023 0.000000 0.346572
vn -0.938023 0.000000 0.346572
vn -0.938023 0.000000 0.346572
vn -0.938023 0.000000 0.346572
vn -0.938023 0.000000 -0.346572
vn -0.938023 0.000000 -0.346572
vn -0.938023 0.000000 -0.346572
vn -0.938023 0.000000 -0.346572
vn -0.587086 0.000000 -0.809525
vn -0.587086 0.000000 -0.809525
vn -0.587086 0.000000 -0.809525
vn -0.587086 0.000000 -0.809525
vn -0.190755 0.000000 -0.981638
vn -0.190755 0.000000 -0.981638
vn -0.190755 0.000000 -0.981638
vn -0.190755 0.000000 -0.981638
vn 0.190758 -0.000000 -0.981637
vn 0.190758 -0.000000 -0.981637
vn 0.190758 -0.000000 -0.981637
vn 0.190758 -0.000000 -0.981637
vn 0.587086 -0.000000 -0.809525
vn 0.587086 -0.000000 -0.809525
vn 0.587086 -0.000000 -0.809525
vn 0.587086 -0.000000 -0.809525
vn 0.938023 -0.000000 -0.346572
vn 0.938023 -0.000000 -0.346572
vn 0.938023 -0.000000 -0.346572
vn 0.938023 -0.000000 -0.346572
vn 0.938023 -0.000000 0.346572
vn 0.938023 -0.000000 0.346572
vn 0.938023 -0.000000 0.346572
vn 0.938023 -0.000000 0.346572
vn 0.587088 -0.000000 0.809523
vn 0.587088 -0.000000 0.809523
vn 0.587088 -0.000000 0.809523
vn 0.587088 -0.000000 0.809523
vn 0.190758 -0.000000 0.981637
vn 0.190758 -0.000000 0.981637
vn 0.190758 -0.000000 0.981637
vn 0.190758 -0.000000 0.981637
vn -0.190758 0.000000 0.981637
vn -0.190758 0.000000 0.981637
vn -0.190758 0.000000 0.981637
vn -0.190758 0.000000 0.981637
s off
g initialShadingGroup Mesh
f 1/1/1 2/2/2 14/3/3 13/4/4
f 2/5/5 3/6/6 15/7/7 14/8/8
f 3/6/9 4/9/10 16/10/11 15/7/12
f 4/11/13 5/12/14 17/13/15 16/14/16
f 5/12/17 6/15/18 18/16/19 17/13/20
f 6/15/21 7/17/22 19/18/23 18/16/24
f 7/17/25 8/19/26 20/20/27 19/18/28
f 8/21/29 9/22/30 21/23/31 20/24/32
f 9/22/33 10/25/34 22/26/35 21/23/36
f 10/27/37 11/28/38 23/29/39 22/30/40
f 11/28/41 12/31/42 24/32/43 23/29/44
f 12/31/45 1/1/46 13/4/47 24/32/48
f 2/33/49 1/34/50 25/35/51
f 3/36/52 2/33/53 25/35/54
f 4/37/55 3/36/56 25/35/57
f 5/38/58 4/37/59 25/35/60
f 6/39/61 5/38/62 25/35/63
f 7/40/64 6/39/65 25/35/66
f 8/41/67 7/40/68 25/35/69
f 9/42/70 8/41/71 25/35/72
f 10/43/73 9/42/74 25/35/75
f 11/44/76 10/43/77 25/35/78
f 12/45/79 11/44/80 25/35/81
f 1/34/82 12/45/83 25/35/84
f 13/4/85 14/3/86 27/46/87 26/47/88
f 14/48/89 15/49/90 28/50/91 27/51/92
f 15/49/93 16/52/94 29/53/95 28/50/96
f 16/14/97 17/13/98 30/54/99 29/55/100
f 17/13/101 18/16/102 31/56/103 30/54/104
f 18/16/105 19/18/106 32/57/107 31/56/108
f 19/18/109 20/20/110 33/58/111 32/57/112
f 20/59/113 21/60/114 34/61/115 33/62/116
f 21/60/117 22/63/118 35/64/119 34/61/120
f 22/30/121 23/29/122 36/65/123 35/66/124
f 23/29/125 24/32/126 37/67/127 36/65/128
f 24/32/129 13/4/130 26/47/131 37/67/132
f 38/68/133 39/69/134 51/70/135 50/71/136
f 39/72/137 40/73/138 52/74/139 51/75/140
f 40/73/141 41/76/142 53/77/143 52/74/144
f 41/78/145 42/79/146 54/80/147 53/81/148
f 42/79/149 43/82/150 55/83/151 54/80/152
f 43/82/153 44/84/154 56/85/155 55/83/156
f 44/84/157 45/86/158 57/87/159 56/85/160
f 45/88/161 46/89/162 58/90/163 57/91/164
f 46/89/165 47/92/166 59/93/167 58/90/168
f 47/94/169 48/95/170 60/96/171 59/97/172
f 48/95/173 49/98/174 61/99/175 60/96/176
f 49/98/177 38/68/178 50/71/179 61/99/180
f 39/100/181 38/101/182 62/102/183
f 40/103/184 39/100/185 62/102/186
f 41/104/187 40/103/188 62/102/189
f 42/105/190 41/104/191 62/102/192
f 43/106/193 42/105/194 62/102/195
f 44/107/196 43/106/197 62/102/198
f 45/108/199 44/107/200 62/102/201
f 46/109/202 45/108/203 62/102/204
f 47/110/205 46/109/206 62/102/207
f 48/111/208 47/110/209 62/102/210
f 49/112/211 48/111/212 62/102/213
f 38/101/214 49/112/215 62/102/216
f 50/71/217 51/70/218 64/113/219 63/114/220
f 51/115/221 52/116/222 65/117/223 64/118/224
f 52/116/225 53/119/226 66/120/227 65/117/228
f 53/81/229 54/80/230 67/121/231 66/122/232
f 54/80/233 55/83/234 68/123/235 67/121/236
f 55/83/237 56/85/238 69/124/239 68/123/240
f 56/85/241 57/87/242 70/125/243 69/124/244
f 57/126/245 58/127/246 71/128/247 70/129/248
f 58/127/249 59/130/250 72/131/251 71/128/252
f 59/97/253 60/96/254 73/132/255 72/133/256
f 60/96/257 61/99/258 74/134/259 73/132/260
f 61/99/261 50/71/262 63/114/263 74/134/264
f 30/54/265 63/114/266 64/113/267 29/55/268
f 29/53/269 64/118/270 65/117/271 28/50/272
f 28/50/273 65/117/274 66/120/275 27/51/276
f 27/46/277 66/122/278 67/121/279 26/47/280
f 26/47/281 67/121/282 68/123/283 37/67/284
f 37/67/285 68/123/286 69/124/287 36/65/288
f 36/65/289 69/124/290 70/125/291 35/66/292
f 35/64/293 70/129/294 71/128/295 34/61/296
f 34/61/297 71/128/298 72/131/299 33/62/300
f 33/58/301 72/133/302 73/132/303 32/57/304
f 32/57/305 73/132/306 74/134/307 31/56/308
f 31/56/309 74/134/310 63/114/311 30/54/312
