# This file uses centimeters as units for non-parametric coordinates.

v 18.336687 1.444083 5.534691
v 18.427454 1.444083 5.478071
v 18.460676 1.444083 5.400726
v 18.427454 1.444083 5.323382
v 18.336687 1.444083 5.266761
v 18.212700 1.444083 5.246037
v 18.088715 1.444083 5.266761
v 17.997948 1.444083 5.323382
v 17.964726 1.444083 5.400726
v 17.997948 1.444083 5.478071
v 18.088715 1.444083 5.534691
v 18.212700 1.444083 5.555416
v 18.336687 9.227477 5.534691
v 18.427454 9.227477 5.478071
v 18.460676 9.227477 5.400726
v 18.427454 9.227477 5.323382
v 18.336687 9.227477 5.266761
v 18.212700 9.227477 5.246037
v 18.088715 9.227477 5.266761
v 17.997948 9.227477 5.323382
v 17.964726 9.227477 5.400726
v 17.997948 9.227477 5.478071
v 18.088715 9.227477 5.534691
v 18.212700 9.227477 5.555416
v 18.212700 1.444083 5.400726
v 18.460507 9.332842 5.534691
v 18.460242 9.254769 5.478071
v 18.460144 9.226192 5.400726
v 18.460242 9.254769 5.323382
v 18.460507 9.332842 5.266761
v 18.460869 9.439491 5.246036
v 18.461233 9.546139 5.266761
v 18.461499 9.624212 5.323382
v 18.461596 9.652789 5.400726
v 18.461499 9.624212 5.478071
v 18.461233 9.546139 5.534691
v 18.460869 9.439491 5.555416
v 30.898660 1.444083 5.266761
v 30.807894 1.444083 5.323382
v 30.774671 1.444083 5.400726
v 30.807894 1.444083 5.478071
v 30.898660 1.444083 5.534691
v 31.022647 1.444083 5.555416
v 31.146633 1.444083 5.534691
v 31.237399 1.444083 5.478071
v 31.270622 1.444083 5.400726
v 31.237399 1.444083 5.323382
v 31.146633 1.444083 5.266761
v 31.022647 1.444083 5.246037
v 30.898660 9.227477 5.266761
v 30.807894 9.227477 5.323382
v 30.774671 9.227477 5.400726
v 30.807894 9.227477 5.478071
v 30.898660 9.227477 5.534691
v 31.022647 9.227477 5.555416
v 31.146633 9.227477 5.534691
v 31.237399 9.227477 5.478071
v 31.270622 9.227477 5.400726
v 31.237399 9.227477 5.323382
v 31.146633 9.227477 5.266761
v 31.022647 9.227477 5.246037
v 31.022647 1.444083 5.400726
v 30.774841 9.332842 5.266761
v 30.775107 9.254769 5.323382
v 30.775203 9.226192 5.400726
v 30.775107 9.254769 5.478071
v 30.774841 9.332842 5.534691
v 30.774478 9.439491 5.555416
v 30.774115 9.546139 5.534691
v 30.773849 9.624212 5.478071
v 30.773752 9.652789 5.400726
v 30.773849 9.624212 5.323382
v 30.774115 9.546139 5.266761
v 30.774478 9.439491 5.246036
vt 0.468146 0.017675
vt 0.468146 0.011935
vt 0.887094 0.011935
vt 0.887094 0.017675
vt 0.468146 0.006195
vt 0.887094 0.006195
vt 0.898506 0.023425
vt 0.892765 0.023408
vt 0.468146 0.021878
vt 0.887094 0.021878
vt 0.468146 0.001992
vt 0.887094 0.001992
vt 0.904246 0.023442
vt 0.898506 0.593535
vt 0.892765 0.593552
vt 0.888563 0.023396
vt 0.908448 0.023454
vt 0.904246 0.593518
vt 0.887094 0.605025
vt 0.887094 0.599284
vt 0.888563 0.593564
vt 0.908448 0.593506
vt 0.887094 0.610765
vt 0.468146 0.605025
vt 0.468146 0.599284
vt 0.887094 0.595082
vt 0.887094 0.614968
vt 0.468146 0.610765
vt 0.468146 0.595082
vt 0.468146 0.614968
vt 0.020985 0.610765
vt 0.020985 0.605025
vt 0.439933 0.605025
vt 0.439933 0.610765
vt 0.020985 0.599284
vt 0.439933 0.599284
vt 0.451345 0.593535
vt 0.457085 0.593518
vt 0.020985 0.614968
vt 0.439933 0.614968
vt 0.020985 0.595082
vt 0.439933 0.595082
vt 0.445604 0.593551
vt 0.451345 0.023425
vt 0.457085 0.023442
vt 0.461287 0.593506
vt 0.441402 0.593564
vt 0.445604 0.023408
vt 0.439933 0.011935
vt 0.439933 0.006194
vt 0.461287 0.023454
vt 0.441402 0.023396
vt 0.439933 0.017675
vt 0.020985 0.011935
vt 0.020985 0.006194
vt 0.439933 0.001992
vt 0.439933 0.021878
vt 0.020985 0.017675
vt 0.020985 0.001992
vt 0.020985 0.021878
vt 0.896675 0.640256
vt 0.892473 0.636053
vt 0.902416 0.630313
vt 0.890935 0.630313
vt 0.902416 0.641794
vt 0.892473 0.624572
vt 0.908156 0.640256
vt 0.896675 0.620370
vt 0.912359 0.636053
vt 0.902416 0.618832
vt 0.913897 0.630313
vt 0.908156 0.620370
vt 0.912359 0.624572
vt 0.879255 0.620370
vt 0.883457 0.624572
vt 0.873514 0.630313
vt 0.884995 0.630313
vt 0.873514 0.618832
vt 0.883457 0.636053
vt 0.867774 0.620370
vt 0.879255 0.640256
vt 0.863571 0.624572
vt 0.873514 0.641794
vt 0.862033 0.630313
vt 0.867774 0.640256
vt 0.863571 0.636053
vt 0.926788 0.003510
vt 0.926788 0.573678
vt 0.921047 0.573682
vt 0.921047 0.003506
vt 0.926788 0.575196
vt 0.921047 0.573658
vt 0.915307 0.573678
vt 0.915307 0.003510
vt 0.921047 0.003530
vt 0.926788 0.001992
vt 0.915307 0.575196
vt 0.915307 0.001992
vt 0.001928 0.595044
vt 0.001928 0.024992
vt 0.007669 0.024997
vt 0.007669 0.595039
vt 0.001928 0.003530
vt 0.007669 0.001992
vt 0.013409 0.024992
vt 0.013409 0.595044
vt 0.007669 0.618044
vt 0.001928 0.616506
vt 0.013409 0.003530
vt 0.013409 0.616506
vt 0.934174 0.001992
vt 0.939915 0.001992
vt 0.939915 0.420940
vt 0.934174 0.420940
vt 0.945655 0.001992
vt 0.945655 0.420940
vt 0.966159 0.420940
vt 0.960418 0.420940
vt 0.960418 0.001992
vt 0.966159 0.001992
vt 0.954678 0.420940
vt 0.954678 0.001992
vt 0.948738 0.843752
vt 0.942998 0.843752
vt 0.942998 0.424804
vt 0.948738 0.424804
vt 0.937257 0.843752
vt 0.937257 0.424804
vt 0.919836 0.579060
vt 0.925577 0.579060
vt 0.925577 0.998008
vt 0.919836 0.998008
vt 0.931318 0.579060
vt 0.931318 0.998008
vn 0.529268 0.000000 0.848455
vn 0.529268 0.000000 0.848455
vn 0.529228 -0.007050 0.848450
vn 0.529251 -0.003519 0.848458
vn 0.918820 0.000000 0.394678
vn 0.918820 0.000000 0.394678
vn 0.918811 -0.001796 0.394694
vn 0.918812 -0.001675 0.394693
vn 0.918820 0.000000 -0.394678
vn 0.918820 0.000000 -0.394678
vn 0.918812 -0.001675 -0.394693
vn 0.918811 -0.001796 -0.394694
vn 0.529268 0.000000 -0.848455
vn 0.529268 0.000000 -0.848455
vn 0.529251 -0.003519 -0.848458
vn 0.529228 -0.007050 -0.848450
vn 0.164864 0.000000 -0.986316
vn 0.164864 0.000000 -0.986316
vn 0.164859 -0.002024 -0.986315
vn 0.164849 -0.005666 -0.986303
vn -0.164864 0.000000 -0.986316
vn -0.164864 0.000000 -0.986316
vn -0.164859 0.003357 -0.986311
vn -0.164845 0.009265 -0.986276
vn -0.529268 0.000000 -0.848455
vn -0.529268 0.000000 -0.848455
vn -0.529165 0.018359 -0.848320
vn -0.528904 0.035714 -0.847930
vn -0.918827 0.000000 -0.394661
vn -0.918827 0.000000 -0.394661
vn -0.917772 0.047747 -0.394226
vn -0.917179 0.059711 -0.393976
vn -0.918827 0.000000 0.394661
vn -0.918827 0.000000 0.394661
vn -0.917179 0.059711 0.393976
vn -0.917772 0.047747 0.394226
vn -0.529268 0.000000 0.848455
vn -0.529268 0.000000 0.848455
vn -0.528904 0.035714 0.847930
vn -0.529165 0.018359 0.848320
vn -0.164864 0.000000 0.986316
vn -0.164864 0.000000 0.986316
vn -0.164845 0.009265 0.986276
vn -0.164859 0.003357 0.986311
vn 0.164864 0.000000 0.986316
vn 0.164864 0.000000 0.986316
vn 0.164849 -0.005666 0.986303
vn 0.164859 -0.002024 0.986315
vn 0.000000 -1.000000 0.000000
vn 0.000000 -1.000000 0.000000
vn 0.000000 -1.000000 0.000000
vn 0.000000 -1.000000 0.000000
vn 0.000000 -1.000000 0.000000
vn 0.000000 -1.000000 0.000000
vn 0.000000 -1.000000 0.000000
vn 0.000000 -1.000000 0.000000
vn 0.000000 -1.000000 0.000000
vn 0.000000 -1.000000 0.000000
vn 0.000000 -1.000000 0.000000
vn 0.000000 -1.000000 0.000000
vn 0.000000 -1.000000 0.000000
vn 0.447396 -0.528168 0.721717
vn 0.447396 -0.528168 0.721717
vn 0.604695 -0.749991 0.268063
vn 0.604695 -0.749991 0.268063
vn 0.604698 -0.749993 -0.268050
vn 0.604698 -0.749993 -0.268050
vn 0.447398 -0.528170 -0.721714
vn 0.447398 -0.528170 -0.721714
vn 0.161473 -0.189257 -0.968560
vn 0.161473 -0.189257 -0.968560
vn -0.161647 0.189064 -0.968568
vn -0.161647 0.189064 -0.968568
vn -0.449846 0.525724 -0.721978
vn -0.449846 0.525724 -0.721978
vn -0.626241 0.731655 -0.269265
vn -0.626241 0.731655 -0.269265
vn -0.626241 0.731655 0.269265
vn -0.626241 0.731655 0.269265
vn -0.449845 0.525724 0.721979
vn -0.449845 0.525724 0.721979
vn -0.161645 0.189063 0.968569
vn -0.161645 0.189063 0.968569
vn 0.161472 -0.189255 0.968560
vn 0.161472 -0.189255 0.968560
vn -0.529270 0.000000 -0.848454
vn -0.529270 0.000000 -0.848454
vn -0.529230 -0.007050 -0.848449
vn -0.529253 -0.003519 -0.848457
vn -0.918823 0.000000 -0.394669
vn -0.918823 0.000000 -0.394669
vn -0.918815 -0.001796 -0.394686
vn -0.918815 -0.001675 -0.394684
vn -0.918823 0.000000 0.394669
vn -0.918823 0.000000 0.394669
vn -0.918815 -0.001675 0.394684
vn -0.918815 -0.001796 0.394686
vn -0.529270 0.000000 0.848454
vn -0.529270 0.000000 0.848454
vn -0.529253 -0.003519 0.848457
vn -0.529230 -0.007050 0.848449
vn -0.164863 0.000000 0.986317
vn -0.164863 0.000000 0.986317
vn -0.164858 -0.002024 0.986315
vn -0.164848 -0.005666 0.986303
vn 0.164864 0.000000 0.986316
vn 0.164864 0.000000 0.986316
vn 0.164859 0.003357 0.986311
vn 0.164845 0.009265 0.986276
vn 0.529270 0.000000 0.848454
vn 0.529270 0.000000 0.848454
vn 0.529167 0.018359 0.848319
vn 0.528907 0.035714 0.847928
vn 0.918823 0.000000 0.394669
vn 0.918823 0.000000 0.394669
vn 0.917769 0.047747 0.394235
vn 0.917176 0.059710 0.393984
vn 0.918823 0.000000 -0.394669
vn 0.918823 0.000000 -0.394669
vn 0.917176 0.059710 -0.393984
vn 0.917769 0.047747 -0.394235
vn 0.529270 0.000000 -0.848454
vn 0.529270 0.000000 -0.848454
vn 0.528907 0.035715 -0.847928
vn 0.529167 0.018359 -0.848319
vn 0.164864 0.000000 -0.986316
vn 0.164864 0.000000 -0.986316
vn 0.164845 0.009265 -0.986276
vn 0.164859 0.003357 -0.986311
vn -0.164863 0.000000 -0.986317
vn -0.164863 0.000000 -0.986317
vn -0.164848 -0.005666 -0.986303
vn -0.164858 -0.002024 -0.986315
vn 0.000000 -1.000000 0.000000
vn 0.000000 -1.000000 0.000000
vn 0.000000 -1.000000 0.000000
vn 0.000000 -1.000000 0.000000
vn 0.000000 -1.000000 0.000000
vn 0.000000 -1.000000 0.000000
vn 0.000000 -1.000000 0.000000
vn 0.000000 -1.000000 0.000000
vn 0.000000 -1.000000 0.000000
vn 0.000000 -1.000000 0.000000
vn 0.000000 -1.000000 0.000000
vn 0.000000 -1.000000 0.000000
vn 0.000000 -1.000000 0.000000
vn -0.447404 -0.528177 -0.721705
vn -0.447404 -0.528177 -0.721705
vn -0.604699 -0.749995 -0.268042
vn -0.604699 -0.749995 -0.268042
vn -0.604699 -0.749995 0.268042
vn -0.604699 -0.749995 0.268042
vn -0.447403 -0.528177 0.721706
vn -0.447403 -0.528177 0.721706
vn -0.161472 -0.189255 0.968560
vn -0.161472 -0.189255 0.968560
vn 0.161645 0.189062 0.968569
vn 0.161645 0.189062 0.968569
vn 0.449850 0.525729 0.721972
vn 0.449850 0.525730 0.721972
vn 0.626240 0.731653 0.269272
vn 0.626240 0.731653 0.269272
vn 0.626240 0.731653 -0.269272
vn 0.626240 0.731653 -0.269272
vn 0.449852 0.525731 -0.721970
vn 0.449852 0.525731 -0.721970
vn 0.161646 0.189062 -0.968569
vn 0.161646 0.189062 -0.968569
vn -0.161473 -0.189257 -0.968560
vn -0.161473 -0.189257 -0.968560
vn 0.000000 -0.587086 -0.809525
vn 0.000000 -0.587086 -0.809525
vn 0.000000 -0.587086 -0.809525
vn 0.000000 -0.587086 -0.809525
vn 0.000000 -0.938023 -0.346572
vn 0.000000 -0.938023 -0.346572
vn 0.000000 -0.938023 -0.346572
vn 0.000000 -0.938023 -0.346572
vn -0.000000 -0.938023 0.346572
vn -0.000000 -0.938023 0.346572
vn -0.000000 -0.938023 0.346572
vn -0.000000 -0.938023 0.346572
vn -0.000000 -0.587086 0.809525
vn -0.000000 -0.587086 0.809525
vn -0.000000 -0.587086 0.809525
vn -0.000000 -0.587086 0.809525
vn -0.000000 -0.190755 0.981638
vn -0.000000 -0.190755 0.981638
vn -0.000000 -0.190755 0.981638
vn -0.000000 -0.190755 0.981638
vn -0.000000 0.190758 0.981637
vn -0.000000 0.190758 0.981637
vn -0.000000 0.190758 0.981637
vn -0.000000 0.190758 0.981637
vn -0.000000 0.587086 0.809525
vn -0.000000 0.587086 0.809525
vn -0.000000 0.587086 0.809525
vn -0.000000 0.587086 0.809525
vn -0.000000 0.938023 0.346572
vn -0.000000 0.938023 0.346572
vn -0.000000 0.938023 0.346572
vn -0.000000 0.938023 0.346572
vn 0.000000 0.938023 -0.346572
vn 0.000000 0.938023 -0.346572
vn 0.000000 0.938023 -0.346572
vn 0.000000 0.938023 -0.346572
vn 0.000000 0.587088 -0.809523
vn 0.000000 0.587088 -0.809523
vn 0.000000 0.587088 -0.809523
vn 0.000000 0.587088 -0.809523
vn 0.000000 0.190758 -0.981637
vn 0.000000 0.190758 -0.981637
vn 0.000000 0.190758 -0.981637
vn 0.000000 0.190758 -0.981637
vn 0.000000 -0.190758 -0.981637
vn 0.000000 -0.190758 -0.981637
vn 0.000000 -0.190758 -0.981637
vn 0.000000 -0.190758 -0.981637
s 1
f 1/35/1 2/41/2 14/42/3 13/36/4
s 2
f 2/111/5 3/112/6 15/113/7 14/114/8
s 3
f 3/112/9 4/115/10 16/116/11 15/113/12
s 4
f 4/9/13 5/1/14 17/4/15 16/10/16
s 5
f 5/1/17 6/2/18 18/3/19 17/4/20
s 6
f 6/2/21 7/5/22 19/6/23 18/3/24
s 7
f 7/5/25 8/11/26 20/12/27 19/6/28
s 8
f 8/117/29 9/118/30 21/119/31 20/120/32
s 9
f 9/118/33 10/121/34 22/122/35 21/119/36
s 10
f 10/39/37 11/31/38 23/34/39 22/40/40
s 11
f 11/31/41 12/32/42 24/33/43 23/34/44
s 12
f 12/32/45 1/35/46 13/36/47 24/33/48
s 13
f 2/61/49 1/62/50 25/63/51
f 3/65/52 2/61/49 25/63/51
f 4/67/53 3/65/52 25/63/51
f 5/69/54 4/67/53 25/63/51
f 6/71/55 5/69/54 25/63/51
f 7/73/56 6/71/55 25/63/51
f 8/72/57 7/73/56 25/63/51
f 9/70/58 8/72/57 25/63/51
f 10/68/59 9/70/58 25/63/51
f 11/66/60 10/68/59 25/63/51
f 12/64/61 11/66/60 25/63/51
f 1/62/50 12/64/61 25/63/51
s 1
f 13/36/4 14/42/3 27/47/62 26/43/63
s 2
f 14/98/8 15/95/7 28/90/64 27/94/65
s 3
f 15/95/12 16/96/11 29/87/66 28/90/67
s 4
f 16/10/16 17/4/15 30/8/68 29/16/69
s 5
f 17/4/20 18/3/19 31/7/70 30/8/71
s 6
f 18/3/24 19/6/23 32/13/72 31/7/73
s 7
f 19/6/28 20/12/27 33/17/74 32/13/75
s 8
f 20/110/32 21/107/31 34/102/76 33/106/77
s 9
f 21/107/36 22/108/35 35/99/78 34/102/79
s 10
f 22/40/40 23/34/39 36/38/80 35/46/81
s 11
f 23/34/44 24/33/43 37/37/82 36/38/83
s 12
f 24/33/48 13/36/47 26/43/84 37/37/85
s 14
f 38/25/86 39/29/87 51/26/88 50/20/89
s 15
f 39/123/90 40/124/91 52/125/92 51/126/93
s 16
f 40/124/94 41/127/95 53/128/96 52/125/97
s 17
f 41/60/98 42/58/99 54/53/100 53/57/101
s 18
f 42/58/102 43/54/103 55/49/104 54/53/105
s 19
f 43/54/106 44/55/107 56/50/108 55/49/109
s 20
f 44/55/110 45/59/111 57/56/112 56/50/113
s 21
f 45/129/114 46/130/115 58/131/116 57/132/117
s 22
f 46/130/118 47/133/119 59/134/120 58/131/121
s 23
f 47/30/122 48/28/123 60/23/124 59/27/125
s 24
f 48/28/126 49/24/127 61/19/128 60/23/129
s 25
f 49/24/130 38/25/131 50/20/132 61/19/133
s 26
f 39/74/134 38/75/135 62/76/136
f 40/78/137 39/74/134 62/76/136
f 41/80/138 40/78/137 62/76/136
f 42/82/139 41/80/138 62/76/136
f 43/84/140 42/82/139 62/76/136
f 44/86/141 43/84/140 62/76/136
f 45/85/142 44/86/141 62/76/136
f 46/83/143 45/85/142 62/76/136
f 47/81/144 46/83/143 62/76/136
f 48/79/145 47/81/144 62/76/136
f 49/77/146 48/79/145 62/76/136
f 38/75/135 49/77/146 62/76/136
s 14
f 50/20/89 51/26/88 64/21/147 63/15/148
s 15
f 51/91/93 52/92/92 65/89/149 64/88/150
s 16
f 52/92/97 53/97/96 66/93/151 65/89/152
s 17
f 53/57/101 54/53/100 67/48/153 66/52/154
s 18
f 54/53/105 55/49/104 68/44/155 67/48/156
s 19
f 55/49/109 56/50/108 69/45/157 68/44/158
s 20
f 56/50/113 57/56/112 70/51/159 69/45/160
s 21
f 57/103/117 58/104/116 71/101/161 70/100/162
s 22
f 58/104/121 59/109/120 72/105/163 71/101/164
s 23
f 59/27/125 60/23/124 73/18/165 72/22/166
s 24
f 60/23/129 61/19/128 74/14/167 73/18/168
s 25
f 61/19/133 50/20/132 63/15/169 74/14/170
s off
f 30/8/171 63/15/172 64/21/173 29/16/174
f 29/87/175 64/88/176 65/89/177 28/90/178
f 28/90/179 65/89/180 66/93/181 27/94/182
f 27/47/183 66/52/184 67/48/185 26/43/186
f 26/43/187 67/48/188 68/44/189 37/37/190
f 37/37/191 68/44/192 69/45/193 36/38/194
f 36/38/195 69/45/196 70/51/197 35/46/198
f 35/99/199 70/100/200 71/101/201 34/102/202
f 34/102/203 71/101/204 72/105/205 33/106/206
f 33/17/207 72/22/208 73/18/209 32/13/210
f 32/13/211 73/18/212 74/14/213 31/7/214
f 31/7/215 74/14/216 63/15/217 30/8/218
