# This file uses centimeters as units for non-parametric coordinates.

v -1.364142 4.841815 2.404999
v -1.384180 4.844968 2.417672
v -1.384879 4.861382 2.435055
v -1.365539 4.874644 2.439765
v -1.345500 4.871491 2.427092
v -1.344802 4.855076 2.409709
v -1.403708 5.021593 2.196895
v -1.423747 5.024746 2.209568
v -1.424445 5.041161 2.226951
v -1.405105 5.054422 2.231661
v -1.385066 5.051269 2.218988
v -1.384368 5.034855 2.201605
v -1.364840 4.858229 2.422382
v -1.404406 5.038008 2.214278
v -1.377185 4.962826 2.253454
v -1.397223 4.965979 2.266127
v -1.397921 4.982394 2.283510
v -1.378581 4.995655 2.288220
v -1.358543 4.992502 2.275547
v -1.357844 4.976088 2.258164
vt 0.863033 0.206553
vt 0.767536 0.206553
vt 0.719788 0.289255
vt 0.767536 0.371957
vt 0.863033 0.371957
vt 0.910781 0.289255
vt 0.046158 0.051382
vt 0.145706 0.051382
vt 0.245253 0.051382
vt 0.344801 0.051382
vt 0.444349 0.051382
vt 0.543897 0.051382
vt 0.643445 0.051382
vt 0.046158 0.949558
vt 0.145706 0.949558
vt 0.245253 0.949558
vt 0.344801 0.949558
vt 0.444349 0.949558
vt 0.543897 0.949558
vt 0.643445 0.949558
vt 0.863033 0.626737
vt 0.767536 0.626737
vt 0.719788 0.709439
vt 0.767536 0.792142
vt 0.863033 0.792142
vt 0.910781 0.709439
vt 0.815284 0.285435
vt 0.815284 0.705620
vt 0.643445 0.680105
vt 0.046158 0.680105
vt 0.145706 0.680105
vt 0.245253 0.680105
vt 0.344801 0.680105
vt 0.444349 0.680105
vt 0.543897 0.680105
vt 0.344801 0.680105
vt 0.344801 0.949558
vt 0.344801 0.051382
vn -0.449981 -0.716333 -0.533277
vn -0.449981 -0.716333 -0.533277
vn -0.449981 -0.716333 -0.533277
vn -0.449981 -0.716333 -0.533277
vn -0.986026 -0.139072 0.091714
vn -0.990590 -0.117122 0.070803
vn -0.950532 -0.244003 0.192225
vn -0.950532 -0.244003 0.192225
vn -0.547909 0.587589 0.595428
vn -0.541078 0.569247 0.619025
vn -0.500551 0.472329 0.725502
vn -0.500551 0.472329 0.725502
vn 0.449982 0.716333 0.533277
vn 0.449982 0.716333 0.533277
vn 0.449982 0.716333 0.533277
vn 0.449982 0.716333 0.533277
vn 0.990590 0.117122 -0.070803
vn 0.986026 0.139072 -0.091714
vn 0.950532 0.244003 -0.192226
vn 0.950532 0.244003 -0.192226
vn 0.541078 -0.569247 -0.619025
vn 0.547909 -0.587589 -0.595428
vn 0.500551 -0.472329 -0.725502
vn 0.500551 -0.472329 -0.725502
vn 0.309250 -0.685193 0.659450
vn 0.309250 -0.685193 0.659450
vn 0.309250 -0.685193 0.659450
vn 0.309250 -0.685193 0.659450
vn 0.309250 -0.685194 0.659450
vn 0.309250 -0.685194 0.659450
vn 0.309250 -0.685193 0.659450
vn -0.309250 0.685194 -0.659450
vn -0.309250 0.685194 -0.659450
vn -0.309250 0.685194 -0.659450
vn -0.309250 0.685193 -0.659450
vn -0.309250 0.685193 -0.659450
vn -0.309250 0.685193 -0.659450
vn -0.309250 0.685193 -0.659450
vn -0.449981 -0.716333 -0.533277
vn -0.449981 -0.716333 -0.533277
vn -0.996992 -0.072215 0.028140
vn -0.996992 -0.072215 0.028140
vn -0.560194 0.623131 0.545794
vn -0.560194 0.623131 0.545794
vn 0.449982 0.716333 0.533277
vn 0.449982 0.716333 0.533277
vn 0.996992 0.072215 -0.028140
vn 0.996992 0.072215 -0.028140
vn 0.560194 -0.623131 -0.545794
vn 0.560194 -0.623131 -0.545794
s 1
f 15/30/1 16/31/2 8/15/3 7/14/4
s 2
f 16/31/5 17/32/6 9/16/7 8/15/8
s 3
f 17/32/9 18/36/10 10/17/11 9/16/12
s 4
f 18/33/13 19/34/14 11/18/15 10/37/16
s 5
f 19/34/17 20/35/18 12/19/19 11/18/20
s 6
f 20/35/21 15/29/22 7/20/23 12/19/24
s 7
f 2/2/25 1/1/26 13/27/27
f 3/3/28 2/2/25 13/27/27
f 4/4/29 3/3/28 13/27/27
f 5/5/30 4/4/29 13/27/27
f 6/6/31 5/5/30 13/27/27
f 1/1/26 6/6/31 13/27/27
s 8
f 7/25/32 8/24/33 14/28/34
f 8/24/33 9/23/35 14/28/34
f 9/23/35 10/22/36 14/28/34
f 10/22/36 11/21/37 14/28/34
f 11/21/37 12/26/38 14/28/34
f 12/26/38 7/25/32 14/28/34
s 1
f 1/7/39 2/8/40 16/31/2 15/30/1
s 2
f 2/8/41 3/9/42 17/32/6 16/31/5
s 3
f 3/9/43 4/10/44 18/36/10 17/32/9
s 4
f 4/38/45 5/11/46 19/34/14 18/33/13
s 5
f 5/11/47 6/12/48 20/35/18 19/34/17
s 6
f 6/12/49 1/13/50 15/29/22 20/35/21
