# This file uses centimeters as units for non-parametric coordinates.

mtllib Livro.mtl
v 3.404536 -13.551254 -8.587093
v 3.374982 13.160362 -9.185829
v -3.374596 -13.558750 -8.587074
v -3.404145 13.152885 -9.185810
v 3.374944 13.200188 -7.409668
v 3.151288 13.423290 -7.414684
v -3.404183 13.192692 -7.409649
v -3.181024 13.416290 -7.414665
v 3.374557 13.598537 10.362453
v 3.150902 13.826656 10.580807
v 3.404112 -13.113079 10.961170
v 3.180947 -13.331680 11.189556
v -3.404570 13.591042 10.362473
v -3.181415 13.819656 10.580826
v -3.375015 -13.120594 10.961189
v -3.151364 -13.338699 11.189575
v 3.404498 -13.511429 -6.810951
v 3.181338 -13.735027 -6.805935
v -3.374634 -13.518944 -6.810932
v -3.150978 -13.742046 -6.805916
v -2.684250 13.820210 10.580826
v -2.405787 13.583450 10.586147
v -2.654200 -13.338146 11.189575
v -2.376261 -13.100758 11.184254
v 2.653718 13.826084 10.580826
v 2.375779 13.588696 10.586128
v 2.683764 -13.332233 11.189556
v 2.405291 -13.095436 11.184235
v -2.380991 -13.536301 -6.810513
v -2.621222 -13.741455 -6.805916
v 2.410860 -13.530998 -6.810532
v 2.651553 -13.735619 -6.805935
v -2.410579 13.212280 -7.410069
v -2.651262 13.416882 -7.414665
v 2.381277 13.217564 -7.410088
v 2.621512 13.422699 -7.414665
v -2.460594 -13.741283 -6.805916
v 2.490892 -13.735790 -6.805935
v -2.490621 13.417053 -7.414665
v 2.460871 13.422527 -7.414665
v 3.240461 -13.719330 -8.747635
v 3.181376 -13.776608 -8.660564
v -3.150935 -13.783627 -8.660545
v -3.210177 -13.726444 -8.747616
v 3.151331 13.381729 -9.269295
v 3.210549 13.320713 -9.353733
v -3.240080 13.313599 -9.353695
v -3.180985 13.374729 -9.269276
v 1.921530 -12.418175 -10.612278
v 2.561669 -13.055077 -10.430965
v 3.035197 -13.522987 -9.962559
v 3.221974 -13.703117 -9.321442
v 1.886601 11.926403 -11.157951
v 2.529345 12.576294 -11.005478
v 3.004727 13.068695 -10.558624
v 3.192124 13.278809 -9.926224
v -1.886139 -12.414398 -10.612450
v -2.528896 -13.056774 -10.431042
v -3.004308 -13.528652 -9.962578
v -3.191705 -13.710232 -9.321423
v -1.921072 11.930180 -11.158104
v -2.561212 12.574615 -11.005554
v -3.034778 13.063068 -10.558605
v -3.221560 13.271713 -9.926205
v -2.314091 13.015900 10.598869
v -2.285819 -12.532997 11.171532
v 2.285352 13.020973 10.598850
v 2.313609 -12.527885 11.171513
v -2.285428 -12.936363 -6.823940
v 2.314000 -12.931252 -6.823959
v -2.313700 12.612534 -7.396603
v 2.285738 12.617607 -7.396622
vt 0.001877 0.030954
vt 0.009537 0.028358
vt 0.012295 0.029713
vt 0.012295 0.059036
vt 0.001877 0.059036
vt 0.641427 0.314594
vt 0.633767 0.317190
vt 0.631008 0.315835
vt 0.631008 0.286512
vt 0.641427 0.286512
vt 0.012295 0.343556
vt 0.001877 0.340025
vt 0.307592 0.059036
vt 0.318010 0.059036
vt 0.318010 0.340025
vt 0.307592 0.343556
vt 0.001877 0.684475
vt 0.012295 0.681875
vt 0.012295 0.998008
vt 0.001877 0.995408
vt 0.325294 0.005523
vt 0.335712 0.001992
vt 0.335712 0.286512
vt 0.325294 0.286512
vt 0.307592 0.681875
vt 0.318010 0.684475
vt 0.318010 0.995408
vt 0.307592 0.998008
vt 0.631008 0.001992
vt 0.641427 0.005523
vt 0.284407 0.343556
vt 0.271433 0.343556
vt 0.271674 0.059036
vt 0.282887 0.059036
vt 0.271433 0.684634
vt 0.284407 0.681875
vt 0.284407 0.998008
vt 0.271433 0.995248
vt 0.594850 0.001992
vt 0.607824 0.001992
vt 0.606303 0.286512
vt 0.595090 0.286512
vt 0.035481 0.681875
vt 0.048455 0.684635
vt 0.048455 0.995248
vt 0.035481 0.998008
vt 0.048455 0.343556
vt 0.035481 0.343556
vt 0.037001 0.059036
vt 0.048215 0.059036
vt 0.358898 0.001992
vt 0.371871 0.001992
vt 0.371631 0.286512
vt 0.360418 0.286512
vt 0.307592 0.029713
vt 0.627605 0.656388
vt 0.627605 0.628305
vt 0.627605 0.347317
vt 0.938539 0.347317
vt 0.938539 0.628305
vt 0.938539 0.656388
vt 0.307068 0.678114
vt 0.307068 0.397125
vt 0.307068 0.369043
vt 0.618001 0.369043
vt 0.618001 0.397125
vt 0.618001 0.678114
vt 0.335712 0.315835
vt 0.654036 0.681875
vt 0.654036 0.681875
vt 0.654036 0.681875
vt 0.654036 0.743661
vt 0.654036 0.681875
vt 0.654036 0.681875
vt 0.646690 0.743663
vt 0.646690 0.743663
vt 0.646690 0.743663
vt 0.646690 0.681875
vt 0.646690 0.743663
vt 0.646690 0.743663
vt 0.620615 0.693088
vt 0.623000 0.681875
vt 0.623000 0.689366
vt 0.620615 0.916547
vt 0.623000 0.920269
vt 0.623000 0.927761
vt 0.632546 0.693088
vt 0.630161 0.689366
vt 0.630161 0.681875
vt 0.632546 0.916547
vt 0.630161 0.927761
vt 0.630161 0.920269
vt 0.332954 0.317190
vt 0.325294 0.314594
vt 0.310351 0.028358
vt 0.318010 0.030954
vt 0.305156 0.366447
vt 0.305495 0.357385
vt 0.619574 0.357385
vt 0.619913 0.366447
vt 0.377171 0.694913
vt 0.554734 0.695006
vt 0.555107 0.978386
vt 0.377543 0.978293
vt 0.626032 0.668046
vt 0.625694 0.658984
vt 0.940450 0.658984
vt 0.940112 0.668046
vt 0.333816 0.326252
vt 0.632906 0.326252
vt 0.010399 0.019296
vt 0.309489 0.019296
vt 0.342516 0.336320
vt 0.624156 0.336320
vt 0.347352 0.687447
vt 0.584740 0.687493
vt 0.364574 0.343556
vt 0.601962 0.343556
vt 0.307760 0.347317
vt 0.617297 0.347317
vt 0.325294 0.681875
vt 0.347537 0.985806
vt 0.325343 0.991412
vt 0.628309 0.678114
vt 0.937847 0.678113
vt 0.584925 0.985852
vt 0.606934 0.681887
vt 0.606984 0.991424
vt 0.019148 0.009228
vt 0.300789 0.009228
vt 0.041343 0.001992
vt 0.278730 0.001992
vt 0.052701 0.691242
vt 0.267187 0.691242
vt 0.267187 0.988641
vt 0.052701 0.988641
vt 0.376118 0.001992
vt 0.590603 0.001992
vt 0.590603 0.286511
vt 0.376118 0.286511
vt 0.052701 0.059037
vt 0.267187 0.059037
vt 0.267187 0.343556
vt 0.052701 0.343556
vt 0.613632 0.912061
vt 0.613632 0.697575
vt 0.639528 0.697575
vt 0.639528 0.912061
vn 0.706322 0.707713 -0.015851
vn 0.704964 0.709021 -0.017753
vn 0.705542 0.708466 -0.016946
vn 0.706321 0.707714 -0.015848
vn 0.706321 0.707714 -0.015848
vn -0.706321 -0.707714 0.015849
vn -0.704959 -0.709110 0.014007
vn -0.705538 -0.708518 0.014788
vn -0.706321 -0.707714 0.015848
vn -0.706321 -0.707714 0.015848
vn 0.706321 0.707714 -0.015848
vn 0.706321 0.707714 -0.015848
vn 0.706321 0.707714 -0.015848
vn 0.706321 0.707714 -0.015848
vn -0.707886 0.706149 -0.015843
vn -0.707886 0.706149 -0.015843
vn -0.707886 0.706149 -0.015843
vn -0.707886 0.706149 -0.015843
vn 0.707090 0.016628 0.706928
vn 0.707090 0.016628 0.706928
vn 0.707090 0.016628 0.706928
vn 0.707090 0.016628 0.706928
vn 0.707886 -0.706149 0.015843
vn 0.707886 -0.706149 0.015843
vn 0.707886 -0.706149 0.015843
vn 0.707886 -0.706149 0.015843
vn -0.707121 0.015063 0.706932
vn -0.707121 0.015063 0.706932
vn -0.707121 0.015063 0.706932
vn -0.707121 0.015063 0.706932
vn -0.706321 -0.707714 0.015848
vn -0.706321 -0.707714 0.015848
vn -0.706321 -0.707714 0.015848
vn -0.706321 -0.707714 0.015848
vn 0.647817 0.761630 -0.015882
vn 0.647817 0.761630 -0.015882
vn 0.647817 0.761630 -0.015882
vn 0.647817 0.761630 -0.015882
vn -0.000022 0.022409 0.999749
vn -0.000022 0.022409 0.999749
vn -0.000022 0.022409 0.999749
vn -0.000022 0.022409 0.999749
vn 0.649535 -0.760113 0.018227
vn 0.649535 -0.760113 0.018227
vn 0.649535 -0.760113 0.018227
vn 0.649535 -0.760113 0.018227
vn -0.000022 0.022409 0.999749
vn -0.000022 0.022409 0.999749
vn -0.000022 0.022409 0.999749
vn -0.000022 0.022409 0.999749
vn -0.649503 0.760194 -0.015877
vn -0.649503 0.760194 -0.015877
vn -0.649503 0.760194 -0.015877
vn -0.649503 0.760194 -0.015877
vn -0.647852 -0.761548 0.018231
vn -0.647852 -0.761548 0.018231
vn -0.647852 -0.761548 0.018231
vn -0.647852 -0.761548 0.018231
vn -0.001104 0.998169 -0.060484
vn -0.001104 0.998169 -0.060485
vn -0.001106 0.999748 -0.022409
vn -0.001106 0.999748 -0.022409
vn -0.999946 -0.001338 -0.010338
vn -0.999999 -0.001107 0.000003
vn -0.999999 -0.001107 0.000003
vn -0.999999 -0.001107 0.000003
vn -0.999999 -0.001107 0.000003
vn -0.999946 -0.001338 -0.010338
vn 0.999999 0.001107 -0.000003
vn 0.999999 0.001107 -0.000003
vn 0.999946 0.000874 -0.010346
vn 0.999946 0.000874 -0.010346
vn 0.999999 0.001107 -0.000003
vn 0.999999 0.001107 -0.000003
vn 0.001106 -0.999748 0.022409
vn 0.001106 -0.999748 0.022409
vn 0.001107 -0.999876 -0.015706
vn 0.001106 -0.999876 -0.015704
vn -0.000022 0.022409 0.999749
vn -0.000022 0.022409 0.999749
vn -0.000022 0.022409 0.999749
vn -0.000022 0.022409 0.999749
vn -0.000022 0.022409 0.999749
vn -0.000022 0.022409 0.999749
vn -0.000022 0.022409 0.999749
vn -0.000022 0.022409 0.999749
vn 0.001106 -0.999748 0.022409
vn 0.001106 -0.999748 0.022409
vn 0.001106 -0.999748 0.022409
vn 0.001106 -0.999748 0.022409
vn 0.000000 0.000000 0.000000
vn 0.000000 0.000000 0.000000
vn 0.000000 0.000000 0.000000
vn 0.000000 0.000000 0.000000
vn 0.000000 0.000000 0.000000
vn 0.000000 0.000000 0.000000
vn 0.001106 -0.999748 0.022409
vn 0.001106 -0.999748 0.022409
vn 0.001106 -0.999748 0.022409
vn 0.001106 -0.999748 0.022409
vn 0.000000 0.000000 0.000000
vn 0.000000 0.000000 0.000000
vn 0.000000 0.000000 0.000000
vn 0.000000 0.000000 0.000000
vn 0.000000 0.000000 0.000000
vn 0.000000 0.000000 0.000000
vn -0.001106 0.999748 -0.022409
vn -0.001106 0.999748 -0.022409
vn -0.001106 0.999748 -0.022409
vn -0.001106 0.999748 -0.022409
vn -0.001106 0.999748 -0.022409
vn -0.001106 0.999748 -0.022409
vn -0.001106 0.999748 -0.022409
vn -0.001106 0.999748 -0.022409
vn -0.000022 0.022392 0.999749
vn -0.000022 0.022409 0.999749
vn -0.000022 0.022409 0.999749
vn -0.000022 0.022392 0.999749
vn -0.000022 0.022409 0.999749
vn -0.000022 0.022409 0.999749
vn -0.000021 0.022425 0.999749
vn -0.000022 0.022409 0.999749
vn -0.000022 0.022409 0.999749
vn -0.000021 0.022425 0.999749
vn -0.000022 0.022409 0.999749
vn -0.000022 0.022409 0.999749
vn 0.707107 -0.706952 0.014780
vn 0.706531 -0.707544 0.013998
vn 0.707887 -0.706149 0.015840
vn 0.707886 -0.706149 0.015843
vn 0.707886 -0.706149 0.015843
vn -0.707104 0.706906 -0.016937
vn -0.706527 0.707464 -0.017745
vn -0.707886 0.706149 -0.015842
vn -0.707886 0.706149 -0.015843
vn -0.707886 0.706149 -0.015843
vn -0.000022 0.022392 0.999749
vn -0.000022 0.022409 0.999749
vn -0.000022 0.022409 0.999749
vn -0.000022 0.022392 0.999749
vn -0.000022 0.022409 0.999749
vn -0.000021 0.022425 0.999749
vn -0.000021 0.022425 0.999749
vn -0.000022 0.022409 0.999749
vn 0.999946 0.000874 -0.010346
vn 0.970845 -0.004298 -0.239672
vn 0.966171 -0.004703 -0.257858
vn 0.966172 -0.004703 -0.257855
vn 0.970845 -0.004298 -0.239672
vn 0.999946 0.000874 -0.010346
vn 0.041439 -0.034030 -0.998561
vn -0.041276 -0.034118 -0.998565
vn -0.041397 -0.010747 -0.999085
vn 0.041319 -0.010658 -0.999089
vn -0.966164 -0.006856 -0.257837
vn -0.970841 -0.006446 -0.239636
vn -0.999946 -0.001338 -0.010338
vn -0.999946 -0.001338 -0.010338
vn -0.970841 -0.006446 -0.239636
vn -0.966163 -0.006856 -0.257841
vn 0.001059 -0.985072 -0.172139
vn 0.001106 -0.999876 -0.015704
vn 0.001107 -0.999876 -0.015706
vn 0.001059 -0.985092 -0.172026
vn -0.001104 0.998169 -0.060484
vn -0.001050 0.976399 -0.215971
vn -0.001050 0.976374 -0.216087
vn -0.001104 0.998169 -0.060485
vn 0.662552 -0.747811 -0.042461
vn 0.706531 -0.707544 0.013998
vn 0.707107 -0.706952 0.014780
vn -0.705538 -0.708518 0.014788
vn -0.704959 -0.709110 0.014007
vn -0.660779 -0.749379 -0.042452
vn 0.705542 0.708466 -0.016946
vn 0.704964 0.709021 -0.017753
vn 0.660913 0.746611 -0.075941
vn -0.662447 0.745250 -0.075938
vn -0.706527 0.707464 -0.017745
vn -0.707104 0.706906 -0.016937
vn 0.000932 -0.942319 -0.334716
vn 0.001059 -0.985072 -0.172139
vn 0.001059 -0.985092 -0.172026
vn 0.000932 -0.942407 -0.334467
vn 0.041439 -0.034030 -0.998561
vn 0.461129 -0.141355 -0.876001
vn -0.460732 -0.142523 -0.876021
vn -0.041276 -0.034118 -0.998565
vn 0.461129 -0.141355 -0.876001
vn 0.000932 -0.942319 -0.334716
vn 0.000932 -0.942407 -0.334467
vn -0.460732 -0.142523 -0.876021
vn 0.966171 -0.004703 -0.257858
vn 0.874947 -0.009843 -0.484118
vn 0.874948 -0.009843 -0.484116
vn 0.966172 -0.004703 -0.257855
vn 0.874947 -0.009843 -0.484118
vn 0.461129 -0.141355 -0.876001
vn 0.460769 0.103129 -0.881508
vn 0.874948 -0.009843 -0.484116
vn 0.461129 -0.141355 -0.876001
vn 0.041439 -0.034030 -0.998561
vn 0.041319 -0.010658 -0.999089
vn 0.460769 0.103129 -0.881508
vn -0.874921 -0.011859 -0.484121
vn -0.966164 -0.006856 -0.257837
vn -0.966163 -0.006856 -0.257841
vn -0.874920 -0.011859 -0.484123
vn -0.041276 -0.034118 -0.998565
vn -0.460732 -0.142523 -0.876021
vn -0.461091 0.101964 -0.881475
vn -0.041397 -0.010747 -0.999085
vn -0.460732 -0.142523 -0.876021
vn -0.874921 -0.011859 -0.484121
vn -0.874920 -0.011859 -0.484123
vn -0.461091 0.101964 -0.881475
vn -0.001050 0.976399 -0.215971
vn -0.000914 0.926480 -0.376343
vn -0.000913 0.926381 -0.376586
vn -0.001050 0.976374 -0.216087
vn -0.000914 0.926480 -0.376343
vn 0.460769 0.103129 -0.881508
vn -0.461091 0.101964 -0.881475
vn -0.000913 0.926381 -0.376586
vn 0.460769 0.103129 -0.881508
vn 0.041319 -0.010658 -0.999089
vn -0.041397 -0.010747 -0.999085
vn -0.461091 0.101964 -0.881475
vn -0.000022 0.022409 0.999749
vn -0.000022 0.022409 0.999749
vn -0.000022 0.022409 0.999749
vn -0.000022 0.022409 0.999749
vn 0.001106 -0.999748 0.022409
vn 0.001106 -0.999748 0.022409
vn 0.001106 -0.999748 0.022409
vn 0.001106 -0.999748 0.022409
vn -0.001106 0.999748 -0.022409
vn -0.001106 0.999748 -0.022409
vn -0.001106 0.999748 -0.022409
vn -0.001106 0.999748 -0.022409
vn -0.000022 0.022392 0.999749
vn -0.000022 0.022392 0.999749
vn -0.000022 0.022377 0.999750
vn -0.000022 0.022377 0.999750
vn -0.000021 0.022425 0.999749
vn -0.000021 0.022425 0.999749
vn -0.000022 0.022441 0.999748
vn -0.000022 0.022441 0.999748
vn -0.000022 0.022409 0.999749
vn -0.000022 0.022409 0.999749
vn -0.000022 0.022409 0.999749
vn -0.000022 0.022409 0.999749
vn -0.000022 0.022409 0.999749
vn -0.000022 0.022409 0.999749
vn -0.000022 0.022409 0.999749
vn -0.000022 0.022409 0.999749
vn 0.987560 -0.157205 0.003545
vn 0.987560 -0.157205 0.003545
vn 0.987560 -0.157205 0.003545
vn 0.987560 -0.157205 0.003545
vn -0.987209 -0.159390 0.003551
vn -0.987209 -0.159390 0.003551
vn -0.987209 -0.159390 0.003551
vn -0.987209 -0.159390 0.003551
vn 0.987207 0.159403 -0.003552
vn 0.987207 0.159403 -0.003552
vn 0.987207 0.159403 -0.003552
vn 0.987207 0.159403 -0.003552
vn -0.987559 0.157211 -0.003544
vn -0.987559 0.157211 -0.003544
vn -0.987559 0.157211 -0.003544
vn -0.987559 0.157211 -0.003544
s off
g initialShadingGroup Mesh
f 2/1/1 46/2/2 45/3/3 6/4/4 5/5/5
f 3/6/6 44/7/7 43/8/8 20/9/9 19/10/10
f 5/5/11 6/4/12 10/11/13 9/12/14
f 8/13/15 7/14/16 13/15/17 14/16/18
f 9/17/19 10/18/20 12/19/21 11/20/22
f 11/21/23 12/22/24 18/23/25 17/24/26
f 14/25/27 13/26/28 15/27/29 16/28/30
f 16/29/31 15/30/32 19/10/33 20/9/34
f 21/31/35 22/32/36 33/33/37 34/34/38
f 22/35/39 21/36/40 23/37/41 24/38/42
f 24/39/43 23/40/44 30/41/45 29/42/46
f 25/43/47 26/44/48 28/45/49 27/46/50
f 26/47/51 25/48/52 36/49/53 35/50/54
f 27/51/55 28/52/56 31/53/57 32/54/58
f 45/3/59 48/55/60 8/13/61 6/4/62
f 3/56/63 19/57/64 15/58/65 13/59/66 7/60/67 4/61/68
f 11/62/69 17/63/70 1/64/71 2/65/72 5/66/73 9/67/74
f 18/23/75 20/9/76 43/8/77 42/68/78
f 14/25/79 16/28/80 23/37/81 21/36/82
f 12/19/83 10/18/84 25/43/85 27/46/86
f 16/29/87 20/9/88 30/41/89 23/40/90
f 20/69/91 18/70/92 32/71/93 38/72/94 37/73/95 30/74/96
f 18/23/97 12/22/98 27/51/99 32/54/100
f 6/75/101 8/76/102 34/77/103 39/78/104 40/79/105 36/80/106
f 8/13/107 14/16/108 21/31/109 34/34/110
f 10/11/111 6/4/112 36/49/113 25/48/114
f 29/81/115 30/82/116 37/83/117
f 31/84/118 38/85/119 32/86/120
f 33/87/121 39/88/122 34/89/123
f 35/90/124 36/91/125 40/92/126
f 42/68/127 41/93/128 1/94/129 17/24/130 18/23/131
f 48/55/132 47/95/133 4/96/134 7/14/135 8/13/136
f 29/81/137 37/83/138 38/85/139 31/84/140
f 39/88/141 33/87/142 35/90/143 40/92/144
f 1/64/145 41/97/146 52/98/147 56/99/148 46/100/149 2/65/150
f 49/101/151 57/102/152 61/103/153 53/104/154
f 60/105/155 44/106/156 3/56/157 4/61/158 47/107/159 64/108/160
f 52/109/161 42/68/162 43/8/163 60/110/164
f 45/3/165 56/111/166 64/112/167 48/55/168
f 52/109/169 41/93/170 42/68/171
f 43/8/172 44/7/173 60/110/174
f 45/3/175 46/2/176 56/111/177
f 64/112/178 47/95/179 48/55/180
f 51/113/181 52/109/182 60/110/183 59/114/184
f 49/101/185 50/115/186 58/116/187 57/102/188
f 50/117/189 51/113/190 59/114/191 58/118/192
f 52/98/193 51/119/194 55/120/195 56/99/196
f 51/121/197 50/115/198 54/122/199 55/123/200
f 50/115/201 49/101/202 53/104/203 54/122/204
f 59/124/205 60/105/206 64/108/207 63/125/208
f 57/102/209 58/116/210 62/126/211 61/103/212
f 58/116/213 59/127/214 63/128/215 62/126/216
f 56/111/217 55/129/218 63/130/219 64/112/220
f 55/129/221 54/131/222 62/132/223 63/130/224
f 54/122/225 53/104/226 61/103/227 62/126/228
f 67/133/229 65/134/230 66/135/231 68/136/232
f 68/137/233 66/138/234 69/139/235 70/140/236
f 72/141/237 71/142/238 65/143/239 67/144/240
f 29/81/241 31/84/242 70/145/243 69/146/244
f 35/90/245 33/87/246 71/147/247 72/148/248
f 22/35/249 24/38/250 66/135/251 65/134/252
f 28/45/253 26/44/254 67/133/255 68/136/256
f 24/39/257 29/42/258 69/139/259 66/138/260
f 31/53/261 28/52/262 68/137/263 70/140/264
f 33/33/265 22/32/266 65/143/267 71/142/268
f 26/47/269 35/50/270 72/141/271 67/144/272
