# This file uses centimeters as units for non-parametric coordinates.

mtllib pCylinder1.mtl
v -423.059204 1771.668091 575.649292
v -423.059204 1507.071045 1094.950073
v -423.059204 1094.951172 1507.070313
v -423.059204 575.649963 1771.667480
v -423.059204 0.000305 1862.840820
v -423.059204 -575.649353 1771.666870
v -423.059204 -1094.950317 1507.070068
v -423.059204 -1507.069946 1094.949951
v -423.059204 -1771.666748 575.649292
v -423.059204 -1862.840820 -0.000435
v -423.059204 -1771.666748 -575.649780
v -423.059204 -1507.069580 -1094.950684
v -423.059204 -1094.950073 -1507.070068
v -423.059204 -575.649231 -1771.667114
v -423.059204 0.000245 -1862.840820
v -423.059204 575.649597 -1771.667114
v -423.059204 1094.950317 -1507.070068
v -423.059204 1507.069824 -1094.950439
v -423.059204 1771.666870 -575.649658
v -423.059204 1862.840698 -0.000435
v 423.059204 0.000305 -0.000435
v 329.268463 1771.668091 575.649292
v 329.268463 1862.840698 -0.000435
v 329.268463 1771.666870 -575.649780
v 329.268463 1507.069824 -1094.950562
v 329.268463 1094.950439 -1507.070068
v 329.268463 575.649597 -1771.667114
v 329.268463 0.000244 -1862.840820
v 329.268463 -575.649231 -1771.667114
v 329.268463 -1094.949951 -1507.070068
v 329.268463 -1507.069580 -1094.950684
v 329.268463 -1771.666748 -575.650024
v 329.268463 -1862.840698 -0.000435
v 329.268463 -1771.666748 575.649292
v 329.268463 -1507.069824 1094.949951
v 329.268463 -1094.950195 1507.070068
v 329.268463 -575.649292 1771.666870
v 329.268463 0.000305 1862.840820
v 329.268463 575.649963 1771.667480
v 329.268433 1094.951172 1507.070313
v 329.268463 1507.071045 1094.950073
v 225.704163 1008.978027 327.836609
v 232.528809 1361.696289 442.441772
v 225.704010 858.288269 623.582642
v 232.528809 1158.328491 841.574219
v 225.704010 623.583069 858.287964
v 232.528809 841.574951 1158.328125
v 225.704010 327.836975 1008.977844
v 232.528793 442.442139 1361.696167
v 225.704163 0.000244 1060.901855
v 232.528809 0.000244 1431.771484
v 225.704163 -327.836670 1008.977844
v 232.528809 -442.441833 1361.696167
v 225.703995 -623.582153 858.287537
v 232.528793 -841.573975 1158.327148
v 225.704163 -858.287476 623.582153
v 232.528793 -1158.327637 841.573853
v 225.704163 -1008.977417 327.836609
v 232.528809 -1361.695801 442.441772
v 225.704178 -1060.901611 -0.000130
v 232.528809 -1431.771606 -0.000130
v 225.704163 -1008.977417 -327.836884
v 232.528809 -1361.695801 -442.442078
v 225.704178 -858.287415 -623.583008
v 232.528809 -1158.327393 -841.574829
v 225.704163 -623.581909 -858.287964
v 232.528809 -841.573853 -1158.328003
v 225.704163 -327.836548 -1008.977783
v 232.528809 -442.441650 -1361.696167
v 225.704163 0.000206 -1060.901733
v 232.528809 0.000206 -1431.771484
v 225.704163 327.836853 -1008.977783
v 232.528809 442.441925 -1361.696167
v 225.704163 623.582336 -858.287781
v 232.528809 841.574219 -1158.327759
v 225.704163 858.287659 -623.582825
v 232.528809 1158.327637 -841.574829
v 225.704163 1008.977600 -327.836884
v 232.528809 1361.695801 -442.442078
v 225.704163 1060.901611 -0.000130
v 232.528809 1431.771606 -0.000130
vt 0.622199 0.250048
vt 0.874013 0.250048
vt 0.874013 0.344797
vt 0.622199 0.344797
vt 0.622199 0.155298
vt 0.874013 0.155298
vt 0.622199 0.069824
vt 0.874013 0.069824
vt 0.622199 0.001992
vt 0.874013 0.001992
vt 0.690261 0.704479
vt 0.438453 0.704479
vt 0.438453 0.619013
vt 0.690261 0.619013
vt 0.690261 0.799232
vt 0.438453 0.799232
vt 0.690261 0.893985
vt 0.438453 0.893985
vt 0.690261 0.979450
vt 0.438453 0.979450
vt 0.696086 0.930178
vt 0.947907 0.930178
vt 0.947907 0.998008
vt 0.696086 0.998008
vt 0.696086 0.844698
vt 0.947907 0.844698
vt 0.696086 0.749952
vt 0.947907 0.749952
vt 0.696086 0.655206
vt 0.947907 0.655206
vt 0.696086 0.569727
vt 0.947907 0.569727
vt 0.696086 0.501896
vt 0.947907 0.501896
vt 0.180810 0.893986
vt 0.432624 0.893986
vt 0.432624 0.979462
vt 0.180810 0.979462
vt 0.180810 0.799237
vt 0.432624 0.799237
vt 0.180810 0.704487
vt 0.432624 0.704487
vt 0.180810 0.619015
vt 0.432624 0.619015
vt 0.622199 0.430270
vt 0.874013 0.430270
vt 0.874013 0.498104
vt 0.622199 0.498104
vt 0.474579 0.254647
vt 0.532636 0.235783
vt 0.544170 0.308608
vt 0.483125 0.308608
vt 0.449778 0.205970
vt 0.499163 0.170087
vt 0.411144 0.167337
vt 0.447027 0.117951
vt 0.362467 0.142535
vt 0.381331 0.084479
vt 0.308506 0.133990
vt 0.308506 0.072944
vt 0.254546 0.142535
vt 0.235683 0.084479
vt 0.205867 0.167337
vt 0.169987 0.117951
vt 0.167237 0.205970
vt 0.117851 0.170091
vt 0.142433 0.254647
vt 0.084377 0.235783
vt 0.133886 0.308608
vt 0.072844 0.308608
vt 0.142433 0.362569
vt 0.084377 0.381431
vt 0.167237 0.411247
vt 0.117851 0.447127
vt 0.205867 0.449878
vt 0.169987 0.499263
vt 0.254546 0.474681
vt 0.235683 0.532737
vt 0.308506 0.483228
vt 0.308506 0.544270
vt 0.362467 0.474681
vt 0.381331 0.532737
vt 0.411144 0.449878
vt 0.447024 0.499263
vt 0.449778 0.411247
vt 0.499163 0.447127
vt 0.474579 0.362569
vt 0.532636 0.381431
vt 0.556562 0.128386
vt 0.600115 0.213858
vt 0.488728 0.060552
vt 0.403256 0.016999
vt 0.308506 0.001992
vt 0.213757 0.016999
vt 0.128283 0.060552
vt 0.060450 0.128386
vt 0.016899 0.213858
vt 0.001892 0.308608
vt 0.016899 0.403358
vt 0.060450 0.488832
vt 0.128283 0.556664
vt 0.213757 0.600215
vt 0.308506 0.615222
vt 0.403256 0.600215
vt 0.488728 0.556664
vt 0.556562 0.488832
vt 0.600115 0.403358
vt 0.615122 0.308608
vt 0.308506 0.308608
vn -0.000000 -1.000000 0.000001
vn -0.000000 -1.000000 0.000001
vn -0.000000 -0.951057 -0.309016
vn -0.000000 -0.951057 -0.309016
vn -0.000000 -0.951057 0.309017
vn -0.000000 -0.951057 0.309017
vn -0.000000 -1.000000 0.000001
vn -0.000000 -1.000000 0.000001
vn -0.000000 -0.809017 0.587785
vn -0.000000 -0.809017 0.587785
vn -0.000000 -0.951057 0.309017
vn -0.000000 -0.951057 0.309017
vn -0.000000 -0.587785 0.809017
vn -0.000000 -0.587785 0.809017
vn -0.000000 -0.809017 0.587785
vn -0.000000 -0.809017 0.587785
vn -0.000000 -0.309017 0.951057
vn -0.000000 -0.309017 0.951057
vn -0.000000 -0.587785 0.809017
vn -0.000000 -0.587785 0.809017
vn -0.000000 0.000000 1.000000
vn -0.000000 0.000000 1.000000
vn -0.000000 -0.309017 0.951057
vn -0.000000 -0.309017 0.951057
vn -0.000000 0.309017 0.951057
vn -0.000000 0.309017 0.951057
vn -0.000000 0.000000 1.000000
vn -0.000000 0.000000 1.000000
vn 0.000000 0.587785 0.809017
vn 0.000000 0.587785 0.809017
vn -0.000000 0.309017 0.951057
vn -0.000000 0.309017 0.951057
vn 0.000000 0.809017 0.587785
vn 0.000000 0.809017 0.587785
vn 0.000000 0.587785 0.809017
vn 0.000000 0.587785 0.809017
vn 0.000000 0.951056 0.309017
vn 0.000000 0.951056 0.309017
vn 0.000000 0.809017 0.587785
vn 0.000000 0.809017 0.587785
vn 0.000000 1.000000 0.000000
vn 0.000000 1.000000 0.000000
vn 0.000000 0.951056 0.309017
vn 0.000000 0.951056 0.309017
vn 0.000000 0.951057 -0.309017
vn 0.000000 0.951057 -0.309017
vn 0.000000 1.000000 0.000000
vn 0.000000 1.000000 0.000000
vn 0.000000 0.809017 -0.587785
vn 0.000000 0.809017 -0.587785
vn 0.000000 0.951057 -0.309017
vn 0.000000 0.951057 -0.309017
vn 0.000000 0.587785 -0.809017
vn 0.000000 0.587785 -0.809017
vn 0.000000 0.809017 -0.587785
vn 0.000000 0.809017 -0.587785
vn 0.000000 0.309017 -0.951057
vn 0.000000 0.309017 -0.951057
vn 0.000000 0.587785 -0.809017
vn 0.000000 0.587785 -0.809017
vn 0.000000 0.000001 -1.000000
vn 0.000000 0.000001 -1.000000
vn 0.000000 0.309017 -0.951057
vn 0.000000 0.309017 -0.951057
vn 0.000000 -0.309017 -0.951057
vn 0.000000 -0.309017 -0.951057
vn 0.000000 0.000001 -1.000000
vn 0.000000 0.000001 -1.000000
vn -0.000000 -0.587785 -0.809017
vn -0.000000 -0.587785 -0.809017
vn 0.000000 -0.309017 -0.951057
vn 0.000000 -0.309017 -0.951057
vn -0.000000 -0.809017 -0.587785
vn -0.000000 -0.809017 -0.587785
vn -0.000000 -0.587785 -0.809017
vn -0.000000 -0.587785 -0.809017
vn -0.000000 -0.951057 -0.309016
vn -0.000000 -0.951057 -0.309016
vn -0.000000 -0.809017 -0.587785
vn -0.000000 -0.809017 -0.587785
vn -0.996492 -0.079595 -0.025862
vn -0.988581 0.143318 0.046567
vn -0.988580 0.150694 -0.000000
vn -0.996492 -0.083691 -0.000000
vn -0.988581 0.143318 0.046567
vn -0.996492 -0.079595 -0.025862
vn -0.996492 -0.067707 -0.049192
vn -0.988581 0.121914 0.088575
vn -0.988581 0.121914 0.088575
vn -0.996492 -0.067707 -0.049192
vn -0.996492 -0.049192 -0.067707
vn -0.988580 0.088576 0.121914
vn -0.988580 0.088576 0.121914
vn -0.996492 -0.049192 -0.067707
vn -0.996492 -0.025862 -0.079595
vn -0.988581 0.046567 0.143318
vn -0.988581 0.046567 0.143318
vn -0.996492 -0.025862 -0.079595
vn -0.996492 0.000000 -0.083691
vn -0.988580 0.000000 0.150694
vn -0.988580 0.000000 0.150694
vn -0.996492 0.000000 -0.083691
vn -0.996492 0.025862 -0.079595
vn -0.988581 -0.046567 0.143318
vn -0.988581 -0.046567 0.143318
vn -0.996492 0.025862 -0.079595
vn -0.996492 0.049192 -0.067707
vn -0.988581 -0.088575 0.121914
vn -0.988581 -0.088575 0.121914
vn -0.996492 0.049192 -0.067707
vn -0.996492 0.067707 -0.049192
vn -0.988581 -0.121914 0.088575
vn -0.988581 -0.121914 0.088575
vn -0.996492 0.067707 -0.049192
vn -0.996492 0.079595 -0.025862
vn -0.988581 -0.143318 0.046567
vn -0.988581 -0.143318 0.046567
vn -0.996492 0.079595 -0.025862
vn -0.996492 0.083691 -0.000000
vn -0.988580 -0.150694 -0.000000
vn -0.988580 -0.150694 -0.000000
vn -0.996492 0.083691 -0.000000
vn -0.996492 0.079595 0.025862
vn -0.988581 -0.143318 -0.046567
vn -0.988581 -0.143318 -0.046567
vn -0.996492 0.079595 0.025862
vn -0.996492 0.067707 0.049192
vn -0.988580 -0.121914 -0.088576
vn -0.988580 -0.121914 -0.088576
vn -0.996492 0.067707 0.049192
vn -0.996492 0.049192 0.067707
vn -0.988581 -0.088575 -0.121914
vn -0.988581 -0.088575 -0.121914
vn -0.996492 0.049192 0.067707
vn -0.996492 0.025862 0.079595
vn -0.988581 -0.046567 -0.143318
vn -0.988581 -0.046567 -0.143318
vn -0.996492 0.025862 0.079595
vn -0.996492 0.000000 0.083691
vn -0.988581 0.000000 -0.150693
vn -0.988581 0.000000 -0.150693
vn -0.996492 0.000000 0.083691
vn -0.996492 -0.025862 0.079595
vn -0.988581 0.046567 -0.143318
vn -0.988581 0.046567 -0.143318
vn -0.996492 -0.025862 0.079595
vn -0.996492 -0.049192 0.067707
vn -0.988581 0.088575 -0.121914
vn -0.988581 0.088575 -0.121914
vn -0.996492 -0.049192 0.067707
vn -0.996492 -0.067707 0.049192
vn -0.988580 0.121914 -0.088576
vn -0.988580 0.121914 -0.088576
vn -0.996492 -0.067707 0.049192
vn -0.996492 -0.079595 0.025862
vn -0.988581 0.143318 -0.046567
vn -0.988581 0.143318 -0.046567
vn -0.996492 -0.079595 0.025862
vn -0.996492 -0.083691 -0.000000
vn -0.988580 0.150694 -0.000000
vn -0.975731 0.177152 0.128708
vn -0.975731 0.208254 0.067666
vn -0.988581 0.143318 0.046567
vn -0.988581 0.121914 0.088575
vn -0.975731 0.128708 0.177152
vn -0.975731 0.177152 0.128708
vn -0.988581 0.121914 0.088575
vn -0.988580 0.088576 0.121914
vn -0.975731 0.067666 0.208254
vn -0.975731 0.128708 0.177152
vn -0.988580 0.088576 0.121914
vn -0.988581 0.046567 0.143318
vn -0.975731 0.000000 0.218972
vn -0.975731 0.067666 0.208254
vn -0.988581 0.046567 0.143318
vn -0.988580 0.000000 0.150694
vn -0.975731 -0.067666 0.208254
vn -0.975731 0.000000 0.218972
vn -0.988580 0.000000 0.150694
vn -0.988581 -0.046567 0.143318
vn -0.975731 -0.128708 0.177152
vn -0.975731 -0.067666 0.208254
vn -0.988581 -0.046567 0.143318
vn -0.988581 -0.088575 0.121914
vn -0.975731 -0.177152 0.128708
vn -0.975731 -0.128708 0.177152
vn -0.988581 -0.088575 0.121914
vn -0.988581 -0.121914 0.088575
vn -0.975731 -0.208254 0.067666
vn -0.975731 -0.177152 0.128708
vn -0.988581 -0.121914 0.088575
vn -0.988581 -0.143318 0.046567
vn -0.975731 -0.218972 -0.000000
vn -0.975731 -0.208254 0.067666
vn -0.988581 -0.143318 0.046567
vn -0.988580 -0.150694 -0.000000
vn -0.975731 -0.208254 -0.067666
vn -0.975731 -0.218972 -0.000000
vn -0.988580 -0.150694 -0.000000
vn -0.988581 -0.143318 -0.046567
vn -0.975731 -0.177152 -0.128708
vn -0.975731 -0.208254 -0.067666
vn -0.988581 -0.143318 -0.046567
vn -0.988580 -0.121914 -0.088576
vn -0.975731 -0.128708 -0.177152
vn -0.975731 -0.177152 -0.128708
vn -0.988580 -0.121914 -0.088576
vn -0.988581 -0.088575 -0.121914
vn -0.975731 -0.067666 -0.208254
vn -0.975731 -0.128708 -0.177152
vn -0.988581 -0.088575 -0.121914
vn -0.988581 -0.046567 -0.143318
vn -0.975731 0.000000 -0.218972
vn -0.975731 -0.067666 -0.208254
vn -0.988581 -0.046567 -0.143318
vn -0.988581 0.000000 -0.150693
vn -0.975731 0.067666 -0.208254
vn -0.975731 0.000000 -0.218972
vn -0.988581 0.000000 -0.150693
vn -0.988581 0.046567 -0.143318
vn -0.975731 0.128708 -0.177152
vn -0.975731 0.067666 -0.208254
vn -0.988581 0.046567 -0.143318
vn -0.988581 0.088575 -0.121914
vn -0.975731 0.177152 -0.128708
vn -0.975731 0.128708 -0.177152
vn -0.988581 0.088575 -0.121914
vn -0.988580 0.121914 -0.088576
vn -0.975731 0.208254 -0.067666
vn -0.975731 0.177152 -0.128708
vn -0.988580 0.121914 -0.088576
vn -0.988581 0.143318 -0.046567
vn -0.975731 0.218972 -0.000000
vn -0.975731 0.208254 -0.067666
vn -0.988581 0.143318 -0.046567
vn -0.988580 0.150694 -0.000000
vn -0.975731 0.208254 0.067666
vn -0.975731 0.218972 -0.000000
vn -0.988580 0.150694 -0.000000
vn -0.988581 0.143318 0.046567
vn -0.996492 -0.079595 -0.025862
vn -1.000000 0.000000 -0.000000
vn -0.996492 -0.067707 -0.049192
vn -0.996492 -0.067707 -0.049192
vn -1.000000 0.000000 -0.000000
vn -0.996492 -0.049192 -0.067707
vn -0.996492 -0.049192 -0.067707
vn -1.000000 0.000000 -0.000000
vn -0.996492 -0.025862 -0.079595
vn -0.996492 -0.025862 -0.079595
vn -1.000000 0.000000 -0.000000
vn -0.996492 0.000000 -0.083691
vn -0.996492 0.000000 -0.083691
vn -1.000000 0.000000 -0.000000
vn -0.996492 0.025862 -0.079595
vn -0.996492 0.025862 -0.079595
vn -1.000000 0.000000 -0.000000
vn -0.996492 0.049192 -0.067707
vn -0.996492 0.049192 -0.067707
vn -1.000000 0.000000 -0.000000
vn -0.996492 0.067707 -0.049192
vn -0.996492 0.067707 -0.049192
vn -1.000000 0.000000 -0.000000
vn -0.996492 0.079595 -0.025862
vn -0.996492 0.079595 -0.025862
vn -1.000000 0.000000 -0.000000
vn -0.996492 0.083691 -0.000000
vn -0.996492 0.083691 -0.000000
vn -1.000000 0.000000 -0.000000
vn -0.996492 0.079595 0.025862
vn -0.996492 0.079595 0.025862
vn -1.000000 0.000000 -0.000000
vn -0.996492 0.067707 0.049192
vn -0.996492 0.067707 0.049192
vn -1.000000 0.000000 -0.000000
vn -0.996492 0.049192 0.067707
vn -0.996492 0.049192 0.067707
vn -1.000000 0.000000 -0.000000
vn -0.996492 0.025862 0.079595
vn -0.996492 0.025862 0.079595
vn -1.000000 0.000000 -0.000000
vn -0.996492 0.000000 0.083691
vn -0.996492 0.000000 0.083691
vn -1.000000 0.000000 -0.000000
vn -0.996492 -0.025862 0.079595
vn -0.996492 -0.025862 0.079595
vn -1.000000 0.000000 -0.000000
vn -0.996492 -0.049192 0.067707
vn -0.996492 -0.049192 0.067707
vn -1.000000 0.000000 -0.000000
vn -0.996492 -0.067707 0.049192
vn -0.996492 -0.067707 0.049192
vn -1.000000 0.000000 -0.000000
vn -0.996492 -0.079595 0.025862
vn -0.996492 -0.079595 0.025862
vn -1.000000 0.000000 -0.000000
vn -0.996492 -0.083691 -0.000000
vn -0.996492 -0.083691 -0.000000
vn -1.000000 0.000000 -0.000000
vn -0.996492 -0.079595 -0.025862
s off
g initialShadingGroup Mesh
f 20/1/1 23/2/2 22/3/3 1/4/4
f 19/5/5 24/6/6 23/2/7 20/1/8
f 18/7/9 25/8/10 24/6/11 19/5/12
f 17/9/13 26/10/14 25/8/15 18/7/16
f 16/11/17 27/12/18 26/13/19 17/14/20
f 15/15/21 28/16/22 27/12/23 16/11/24
f 14/17/25 29/18/26 28/16/27 15/15/28
f 13/19/29 30/20/30 29/18/31 14/17/32
f 12/21/33 31/22/34 30/23/35 13/24/36
f 11/25/37 32/26/38 31/22/39 12/21/40
f 10/27/41 33/28/42 32/26/43 11/25/44
f 9/29/45 34/30/46 33/28/47 10/27/48
f 8/31/49 35/32/50 34/30/51 9/29/52
f 7/33/53 36/34/54 35/32/55 8/31/56
f 6/35/57 37/36/58 36/37/59 7/38/60
f 5/39/61 38/40/62 37/36/63 6/35/64
f 4/41/65 39/42/66 38/40/67 5/39/68
f 3/43/69 40/44/70 39/42/71 4/41/72
f 2/45/73 41/46/74 40/47/75 3/48/76
f 1/4/77 22/3/78 41/46/79 2/45/80
f 42/49/81 43/50/82 81/51/83 80/52/84
f 43/50/85 42/49/86 44/53/87 45/54/88
f 45/54/89 44/53/90 46/55/91 47/56/92
f 47/56/93 46/55/94 48/57/95 49/58/96
f 49/58/97 48/57/98 50/59/99 51/60/100
f 51/60/101 50/59/102 52/61/103 53/62/104
f 53/62/105 52/61/106 54/63/107 55/64/108
f 55/64/109 54/63/110 56/65/111 57/66/112
f 57/66/113 56/65/114 58/67/115 59/68/116
f 59/68/117 58/67/118 60/69/119 61/70/120
f 61/70/121 60/69/122 62/71/123 63/72/124
f 63/72/125 62/71/126 64/73/127 65/74/128
f 65/74/129 64/73/130 66/75/131 67/76/132
f 67/76/133 66/75/134 68/77/135 69/78/136
f 69/78/137 68/77/138 70/79/139 71/80/140
f 71/80/141 70/79/142 72/81/143 73/82/144
f 73/82/145 72/81/146 74/83/147 75/84/148
f 75/84/149 74/83/150 76/85/151 77/86/152
f 77/86/153 76/85/154 78/87/155 79/88/156
f 79/88/157 78/87/158 80/52/159 81/51/160
f 41/89/161 22/90/162 43/50/163 45/54/164
f 40/91/165 41/89/166 45/54/167 47/56/168
f 39/92/169 40/91/170 47/56/171 49/58/172
f 38/93/173 39/92/174 49/58/175 51/60/176
f 37/94/177 38/93/178 51/60/179 53/62/180
f 36/95/181 37/94/182 53/62/183 55/64/184
f 35/96/185 36/95/186 55/64/187 57/66/188
f 34/97/189 35/96/190 57/66/191 59/68/192
f 33/98/193 34/97/194 59/68/195 61/70/196
f 32/99/197 33/98/198 61/70/199 63/72/200
f 31/100/201 32/99/202 63/72/203 65/74/204
f 30/101/205 31/100/206 65/74/207 67/76/208
f 29/102/209 30/101/210 67/76/211 69/78/212
f 28/103/213 29/102/214 69/78/215 71/80/216
f 27/104/217 28/103/218 71/80/219 73/82/220
f 26/105/221 27/104/222 73/82/223 75/84/224
f 25/106/225 26/105/226 75/84/227 77/86/228
f 24/107/229 25/106/230 77/86/231 79/88/232
f 23/108/233 24/107/234 79/88/235 81/51/236
f 22/90/237 23/108/238 81/51/239 43/50/240
f 42/49/241 21/109/242 44/53/243
f 44/53/244 21/109/245 46/55/246
f 46/55/247 21/109/248 48/57/249
f 48/57/250 21/109/251 50/59/252
f 50/59/253 21/109/254 52/61/255
f 52/61/256 21/109/257 54/63/258
f 54/63/259 21/109/260 56/65/261
f 56/65/262 21/109/263 58/67/264
f 58/67/265 21/109/266 60/69/267
f 60/69/268 21/109/269 62/71/270
f 62/71/271 21/109/272 64/73/273
f 64/73/274 21/109/275 66/75/276
f 66/75/277 21/109/278 68/77/279
f 68/77/280 21/109/281 70/79/282
f 70/79/283 21/109/284 72/81/285
f 72/81/286 21/109/287 74/83/288
f 74/83/289 21/109/290 76/85/291
f 76/85/292 21/109/293 78/87/294
f 78/87/295 21/109/296 80/52/297
f 80/52/298 21/109/299 42/49/300
