# This file uses centimeters as units for non-parametric coordinates.

v 45.625999 5.959757 -2.200737
v 44.842917 5.959757 -1.578819
v 46.431240 5.959757 -0.704416
v 46.326840 5.959757 -0.621502
v 46.222440 5.959757 -0.538588
v 46.118039 5.959757 -0.455674
v 44.938117 5.959757 -1.941359
v 45.002504 5.959757 -2.067780
v 45.113602 5.959757 -2.156013
v 45.251318 5.959757 -2.190101
v 45.771585 5.959757 -0.891908
v 45.875985 5.959757 -0.974822
v 45.980385 5.959757 -1.057736
v 46.084786 5.959757 -1.140650
v 46.287812 7.101530 -0.885012
v 46.176748 7.101530 -0.811864
v 46.071008 7.101530 -0.727885
v 45.974611 7.101530 -0.636270
v 45.562267 6.647301 -1.798575
v 45.432546 6.647301 -1.752768
v 45.323055 6.647301 -1.665811
v 45.249065 6.647301 -1.549832
v 46.287812 6.444231 -0.885013
v 45.562267 6.444231 -1.798575
v 46.176748 6.444231 -0.811863
v 46.071008 6.444231 -0.727885
v 45.974610 6.444231 -0.636270
v 45.249065 6.444231 -1.549832
v 45.432546 6.444231 -1.752768
v 45.323055 6.444231 -1.665811
v 45.747493 6.444231 -1.241969
v 46.740326 7.071958 -0.750094
v 46.640015 7.101530 -0.761601
v 46.563878 7.000005 -1.019817
v 46.529304 7.071978 -1.017049
v 46.464016 7.101530 -0.986489
v 46.015066 7.101530 -0.265270
v 46.003560 7.071958 -0.164960
v 45.780408 7.002999 -0.398388
v 45.791208 7.072850 -0.431090
v 45.835871 7.101530 -0.487620
v 46.275183 7.101530 -0.471853
v 46.319696 7.071958 -0.416033
v 46.338134 7.000562 -0.392912
v 46.233734 7.000562 -0.309998
v 46.215342 7.071958 -0.333156
v 46.170940 7.101530 -0.389064
v 45.033017 6.647301 -1.905212
v 44.965912 6.617729 -1.930772
v 44.938117 6.546333 -1.941359
v 45.002504 6.546333 -2.067780
v 45.025936 6.617729 -2.048624
v 45.082504 6.647301 -2.002378
v 46.379899 7.101530 -0.555018
v 46.424189 7.071958 -0.499021
v 46.442535 7.000562 -0.475826
v 45.113602 6.546333 -2.156013
v 45.126954 6.617729 -2.128852
v 45.159190 6.647301 -2.063282
v 46.484141 7.101530 -0.637807
v 46.528543 7.071958 -0.581898
v 46.546935 7.000562 -0.558740
v 45.251318 6.546333 -2.190101
v 45.255337 6.617729 -2.160631
v 45.265038 6.647301 -2.089482
v 45.625999 6.546333 -2.200737
v 45.612045 6.617729 -2.170756
v 45.578356 6.647301 -2.098376
v 44.953407 6.647301 -1.602046
v 44.875279 6.617729 -1.585622
v 44.842917 6.546333 -1.578819
v 45.915932 6.550826 -1.835672
v 45.878031 6.619610 -1.842424
v 45.802470 6.647301 -1.835797
v 45.134315 6.539536 -1.211908
v 45.135275 6.616371 -1.251667
v 45.158419 6.647301 -1.324296
v 46.000534 5.996635 -0.138585
v 45.975859 5.996635 -0.152288
v 45.984317 5.970558 -0.159006
v 46.004737 5.959757 -0.175223
v 46.020955 5.970558 -0.154803
v 46.027672 5.996635 -0.146345
v 45.903442 5.996635 -0.243471
v 45.897586 5.970558 -0.268210
v 45.912072 5.959757 -0.291902
v 45.565322 5.959757 -0.728508
v 45.535886 5.959757 -0.723642
v 45.505662 5.959757 -0.744330
v 45.556881 5.959757 -0.721769
v 45.857037 6.590969 -0.301901
v 45.853838 6.530929 -0.323296
v 45.869430 6.506060 -0.345593
v 46.637409 5.959757 -0.867934
v 46.664600 5.959757 -0.875627
v 46.689403 5.959757 -0.861764
v 46.645858 5.959757 -0.874663
v 46.640119 6.590969 -0.923819
v 46.620004 6.530929 -0.931780
v 46.594755 6.506060 -0.921642
v 46.299122 5.959757 -1.311252
v 46.288744 5.959757 -1.366249
v 46.302051 5.959757 -1.332126
v 46.290646 5.959757 -1.304557
v 46.419600 5.959757 -0.504705
v 46.435817 5.970558 -0.484284
v 46.442535 5.996635 -0.475826
v 46.524000 5.959757 -0.587619
v 46.540218 5.970558 -0.567199
v 46.546935 5.996635 -0.558740
v 46.315199 5.959757 -0.421790
v 46.331417 5.970558 -0.401370
v 46.338134 5.996635 -0.392912
v 46.210799 5.959757 -0.338876
v 46.227017 5.970558 -0.318456
v 46.233734 5.996635 -0.309998
v 46.752997 5.996635 -0.722393
v 46.766700 5.970558 -0.747069
v 46.758940 5.959757 -0.774207
v 46.766700 7.000545 -0.747069
v 46.758940 7.000504 -0.774207
v 46.768781 7.023062 -0.746830
v 46.752997 7.000562 -0.722393
v 46.000534 7.000636 -0.138585
v 46.027672 7.000562 -0.146345
v 46.000296 7.023062 -0.136504
v 45.975859 7.000818 -0.152288
v 46.001307 5.975351 -0.145319
vt 0.524437 0.877223
vt 0.493145 0.877223
vt 0.493145 0.721947
vt 0.524437 0.721947
vt 0.556336 0.877223
vt 0.556336 0.721947
vt 0.587629 0.877223
vt 0.587629 0.721947
vt 0.641900 0.732531
vt 0.641900 0.763258
vt 0.593928 0.763258
vt 0.593928 0.732531
vt 0.641900 0.796288
vt 0.593928 0.796288
vt 0.641900 0.827015
vt 0.593928 0.827015
vt 0.142329 0.741156
vt 0.142315 0.758022
vt 0.110835 0.758022
vt 0.110835 0.741156
vt 0.173824 0.741156
vt 0.173838 0.758022
vt 0.046946 0.758022
vt 0.042162 0.746471
vt 0.048672 0.741156
vt 0.110835 0.503995
vt 0.142329 0.503995
vt 0.173824 0.503995
vt 0.205319 0.741156
vt 0.205319 0.758022
vt 0.042512 0.741173
vt 0.048672 0.503995
vt 0.142329 0.497835
vt 0.110835 0.497835
vt 0.173824 0.497835
vt 0.205319 0.503995
vt 0.267481 0.741156
vt 0.273992 0.746471
vt 0.269207 0.758022
vt 0.042512 0.503995
vt 0.048672 0.497835
vt 0.205319 0.497835
vt 0.267481 0.503995
vt 0.273642 0.741152
vt 0.043644 0.498967
vt 0.273642 0.497835
vt 0.140442 0.832649
vt 0.157308 0.836236
vt 0.157308 0.864654
vt 0.140442 0.863134
vt 0.140442 0.761775
vt 0.157308 0.768761
vt 0.157308 0.895129
vt 0.140442 0.896649
vt 0.001873 0.863134
vt 0.001873 0.832649
vt 0.001873 0.761775
vt 0.157308 0.923547
vt 0.140442 0.927133
vt 0.001873 0.896649
vt 0.157308 0.991022
vt 0.140442 0.998008
vt 0.001873 0.927133
vt 0.001873 0.998008
vt 0.352048 0.953077
vt 0.352048 0.946917
vt 0.481103 0.946917
vt 0.486978 0.953077
vt 0.352048 0.728107
vt 0.481103 0.728107
vt 0.354600 0.721947
vt 0.486978 0.721947
vt 0.772976 0.456525
vt 0.772976 0.773115
vt 0.708262 0.773045
vt 0.702101 0.761346
vt 0.702101 0.509605
vt 0.803461 0.442598
vt 0.804471 0.773115
vt 0.704653 0.769614
vt 0.836976 0.442598
vt 0.835965 0.773115
vt 0.867460 0.456525
vt 0.867460 0.773115
vt 0.938335 0.761346
vt 0.932175 0.773045
vt 0.938335 0.509605
vt 0.935783 0.769614
vt 0.601849 0.728779
vt 0.601849 0.453183
vt 0.649359 0.583363
vt 0.632576 0.442598
vt 0.633142 0.725993
vt 0.665606 0.442598
vt 0.665040 0.725993
vt 0.696333 0.453183
vt 0.696333 0.728779
vt 0.225101 0.494082
vt 0.208235 0.477216
vt 0.208717 0.409756
vt 0.225285 0.413652
vt 0.161212 0.494082
vt 0.161212 0.477216
vt 0.161212 0.402641
vt 0.211116 0.155450
vt 0.226068 0.165485
vt 0.129732 0.494082
vt 0.129765 0.477216
vt 0.129920 0.399856
vt 0.161212 0.127045
vt 0.208235 0.073949
vt 0.225101 0.065509
vt 0.098209 0.494082
vt 0.098175 0.477216
vt 0.098021 0.399856
vt 0.148968 0.029562
vt 0.157626 0.014975
vt 0.066729 0.494082
vt 0.066729 0.477216
vt 0.066729 0.402641
vt 0.130486 0.116461
vt 0.125537 0.018858
vt 0.129208 0.001992
vt 0.002840 0.494082
vt 0.019706 0.477216
vt 0.019224 0.409756
vt 0.097455 0.116461
vt 0.102403 0.018858
vt 0.098733 0.001992
vt 0.002656 0.413695
vt 0.016825 0.155450
vt 0.066729 0.127045
vt 0.078973 0.029562
vt 0.070315 0.014975
vt 0.001873 0.165325
vt 0.019706 0.073949
vt 0.002840 0.065509
vt 0.163309 0.924582
vt 0.169469 0.924582
vt 0.169469 0.995457
vt 0.163309 0.992905
vt 0.163309 0.893087
vt 0.169469 0.893087
vt 0.204704 0.924582
vt 0.204667 0.989297
vt 0.195883 0.995457
vt 0.163309 0.861593
vt 0.169469 0.861593
vt 0.204704 0.893087
vt 0.202091 0.992905
vt 0.163309 0.830098
vt 0.169469 0.830098
vt 0.204704 0.861593
vt 0.163309 0.767935
vt 0.169469 0.767935
vt 0.204704 0.830098
vt 0.169469 0.761775
vt 0.164441 0.762907
vt 0.204668 0.767935
vt 0.202413 0.761775
vt 0.648900 0.735083
vt 0.648907 0.732531
vt 0.652332 0.738692
vt 0.662470 0.736140
vt 0.662467 0.738692
vt 0.659895 0.732531
vt 0.669057 0.736140
vt 0.672488 0.732531
vt 0.669064 0.738692
vt 0.440804 0.718194
vt 0.548109 0.442598
vt 0.596080 0.442598
vt 0.596080 0.718194
vt 0.327732 0.442598
vt 0.435036 0.718194
vt 0.279760 0.718194
vt 0.279760 0.442598
vt 0.495680 0.434061
vt 0.484129 0.438846
vt 0.478800 0.432336
vt 0.478682 0.358242
vt 0.495685 0.353674
vt 0.478810 0.438496
vt 0.232941 0.432336
vt 0.232941 0.405922
vt 0.382054 0.387202
vt 0.232941 0.253733
vt 0.232941 0.001992
vt 0.371510 0.001992
vt 0.372571 0.112122
vt 0.388820 0.105305
vt 0.235493 0.438496
vt 0.232941 0.399714
vt 0.367871 0.382774
vt 0.232941 0.262001
vt 0.388376 0.005488
vt 0.518808 0.358094
vt 0.502307 0.353631
vt 0.610142 0.105464
vt 0.628293 0.112678
vt 0.519323 0.432336
vt 0.514068 0.438846
vt 0.502518 0.434061
vt 0.609822 0.005488
vt 0.626688 0.001992
vt 0.756545 0.432336
vt 0.765256 0.001992
vt 0.765256 0.253733
vt 0.616143 0.387202
vt 0.756545 0.404828
vt 0.519366 0.438496
vt 0.756545 0.438496
vt 0.765256 0.262001
vt 0.630327 0.382774
vt 0.762705 0.399392
vt 0.762705 0.432336
vt 0.761573 0.437364
vt 0.210952 0.992905
vt 0.210952 0.986745
vt 0.340007 0.986745
vt 0.345882 0.992905
vt 0.210952 0.767935
vt 0.340007 0.767935
vt 0.345882 0.761775
vt 0.210952 0.761775
vn 0.000000 -1.000000 -0.000000
vn 0.000000 -1.000000 -0.000000
vn 0.000000 -1.000000 -0.000000
vn 0.000000 -1.000000 -0.000000
vn 0.000000 -1.000000 -0.000000
vn 0.000000 -1.000000 0.000000
vn 0.000000 -1.000000 0.000000
vn 0.000000 -1.000000 0.000000
vn 0.000000 -1.000000 0.000000
vn 0.000000 -1.000000 0.000000
vn 0.000000 -1.000000 0.000000
vn -0.783082 -0.000000 0.621919
vn -0.783082 -0.000000 0.621919
vn -0.783082 -0.000000 0.621919
vn -0.783082 -0.000000 0.621919
vn -0.586831 -0.000000 -0.809709
vn -0.550040 -0.000000 -0.835138
vn -0.550040 -0.000000 -0.835138
vn -0.586831 -0.000000 -0.809709
vn -0.655800 -0.000000 -0.754935
vn -0.655800 -0.000000 -0.754935
vn -0.688899 -0.000000 -0.724857
vn -0.688899 -0.000000 -0.724857
vn 0.783082 -0.000001 -0.621918
vn 0.783082 -0.000001 -0.621918
vn 0.783082 -0.000001 -0.621918
vn 0.783082 -0.000001 -0.621918
vn 0.332971 -0.000000 0.942937
vn 0.485276 -0.000000 0.874361
vn 0.485276 -0.000000 0.874361
vn 0.332971 -0.000000 0.942937
vn 0.741768 -0.000000 0.670657
vn 0.741768 -0.000000 0.670657
vn 0.843050 -0.000000 0.537836
vn 0.843050 -0.000000 0.537836
vn 0.000000 1.000000 -0.000000
vn 0.000000 1.000000 -0.000000
vn 0.000000 1.000000 -0.000000
vn 0.000000 1.000000 -0.000000
vn 0.000000 1.000000 -0.000000
vn 0.000000 1.000000 -0.000000
vn 0.000000 1.000000 -0.000000
vn 0.000000 1.000000 -0.000000
vn 0.000000 1.000000 -0.000000
vn 0.000000 1.000000 -0.000000
vn 0.000000 1.000000 -0.000000
vn 0.000000 1.000000 -0.000000
vn -0.000000 1.000000 0.000000
vn -0.000000 1.000000 0.000000
vn -0.000000 1.000000 0.000000
vn 0.000000 1.000000 -0.000000
vn 0.000000 1.000000 -0.000000
vn 0.000000 1.000000 -0.000000
vn 0.000000 1.000000 -0.000000
vn 0.000000 1.000000 -0.000000
vn 0.000000 1.000000 -0.000000
vn 0.000000 1.000000 -0.000000
vn 0.000000 1.000000 -0.000000
vn 0.000000 1.000000 -0.000000
vn -0.294920 0.925385 0.238085
vn -0.033967 0.989854 0.137967
vn -0.351251 0.931318 -0.096284
vn -0.537947 0.837511 0.095850
vn 0.621684 0.027494 0.782786
vn 0.574579 0.382681 0.723474
vn 0.574579 0.382680 0.723474
vn 0.621665 0.028539 0.782763
vn 0.237995 0.923881 0.299669
vn 0.046264 0.997229 0.058253
vn 0.052217 0.996469 0.065749
vn 0.237995 0.923882 0.299668
vn -0.949782 0.042999 -0.309943
vn -0.877822 0.384169 -0.286081
vn -0.713564 0.390286 -0.581811
vn -0.773598 0.042215 -0.632268
vn -0.362655 0.924484 -0.117514
vn -0.097387 0.994746 -0.031557
vn -0.058400 0.997182 -0.047097
vn -0.292045 0.926953 -0.235518
vn 0.000000 1.000000 -0.000000
vn -0.251312 0.955567 -0.154060
vn 0.046264 0.997229 0.058253
vn 0.000000 1.000000 -0.000000
vn 0.052217 0.996469 0.065749
vn -0.093153 0.955567 -0.279669
vn 0.143307 0.989673 -0.003311
vn -0.016787 0.932088 -0.361842
vn -0.950648 0.000000 -0.310273
vn -0.967209 0.000000 -0.253982
vn -0.966467 0.039155 -0.253787
vn -0.028375 0.000000 -0.999597
vn -0.086955 0.000000 -0.996212
vn -0.086829 0.042999 -0.995295
vn -0.028353 0.039155 -0.998831
vn -0.440677 0.042215 -0.896673
vn -0.441187 0.000000 -0.897416
vn -0.774207 0.000000 -0.632933
vn -0.035996 0.932148 -0.360284
vn -0.068973 0.975891 -0.207073
vn -0.186077 0.975891 -0.114070
vn -0.346174 0.931256 -0.113689
vn 0.055871 0.991477 -0.117691
vn -0.008686 0.994746 -0.102003
vn 0.000000 1.000000 -0.000000
vn -0.032650 0.997182 -0.067548
vn 0.000000 1.000000 -0.000000
vn -0.130166 0.991009 0.030943
vn 0.302225 0.923105 -0.237777
vn 0.208362 0.842021 -0.497579
vn 0.725716 0.377204 -0.575373
vn 0.725716 0.377204 -0.575373
vn 0.788350 0.011639 -0.615117
vn 0.779374 0.018463 -0.626288
vn 0.668686 0.329661 -0.666471
vn -0.786618 0.018805 0.617154
vn -0.802395 0.321034 0.503091
vn -0.795687 0.318725 0.515069
vn -0.786315 0.016508 0.617606
vn -0.568720 0.818709 0.079205
vn 0.237995 0.923881 0.299669
vn 0.621684 0.027494 0.782786
vn 0.574579 0.382681 0.723474
vn 0.237994 0.923882 0.299668
vn 0.574578 0.382680 0.723475
vn 0.574579 0.382680 0.723475
vn 0.594507 0.039506 0.803119
vn -0.352131 0.931991 0.086004
vn -0.893586 0.382679 -0.234649
vn -0.405124 0.390286 -0.826772
vn -0.163272 0.926952 -0.337789
vn 0.237995 0.923881 0.299669
vn 0.621665 0.028539 0.782763
vn 0.574579 0.382682 0.723474
vn -0.079882 0.384171 -0.919800
vn -0.032344 0.924484 -0.379846
vn 0.237995 0.923882 0.299669
vn -0.026215 0.382681 -0.923509
vn 0.153554 0.935260 -0.318919
vn 0.782957 0.008326 -0.622021
vn 0.724758 0.364941 -0.584417
vn 0.676009 0.332068 -0.657832
vn 0.779641 0.016459 -0.626010
vn 0.194651 0.825608 -0.529606
vn -0.734816 0.348052 0.582155
vn -0.783070 0.008679 0.621873
vn 0.000000 -1.000000 0.000000
vn 0.000000 -1.000000 0.000000
vn 0.000000 -1.000000 0.000000
vn 0.647900 0.039471 0.760702
vn 0.574579 0.382681 0.723474
vn 0.574579 0.382682 0.723474
vn -0.777774 0.011696 0.628435
vn -0.721657 0.382744 0.576818
vn -0.721657 0.382744 0.576818
vn -0.777635 -0.001237 0.628715
vn -0.486154 -0.006517 0.873849
vn -0.485482 -0.000967 0.874246
vn 0.275658 -0.006517 0.961234
vn 0.592474 -0.010158 0.805525
vn 0.274905 -0.000978 0.961471
vn -0.781838 -0.001786 0.623479
vn -0.546139 -0.255224 0.797868
vn -0.546139 -0.255224 0.797868
vn -0.783010 -0.002814 0.622002
vn 0.128455 -0.616170 0.777067
vn 0.452435 -0.666872 0.592102
vn 0.450384 -0.666846 0.593693
vn 0.128455 -0.616170 0.777068
vn 0.780325 -0.000555 -0.625374
vn 0.487330 -0.047670 -0.871916
vn 0.487330 -0.047670 -0.871916
vn 0.783079 -0.002803 -0.621916
vn -0.270431 -0.115085 -0.955836
vn -0.607676 -0.124540 -0.784359
vn -0.604030 -0.124532 -0.787172
vn -0.270431 -0.115085 -0.955836
vn 0.621882 -0.010822 0.783036
vn 0.574578 -0.382683 0.723473
vn 0.574578 -0.382684 0.723473
vn 0.661387 -0.013996 0.749914
vn 0.237997 -0.923880 0.299672
vn 0.038114 -0.998120 0.047991
vn 0.030256 -0.998816 0.038097
vn 0.237998 -0.923880 0.299672
vn 0.474276 -0.666872 0.574756
vn 0.476290 -0.666846 0.573119
vn -0.624216 -0.124542 -0.771261
vn -0.629826 -0.124531 -0.766689
vn 0.038263 -0.998106 0.048179
vn 0.000000 -1.000000 0.000000
vn 0.000000 -1.000000 0.000000
vn 0.038263 -0.998106 0.048179
vn 0.000000 -1.000000 0.000000
vn 0.038274 -0.998105 0.048193
vn 0.000000 -1.000000 0.000000
vn 0.000000 -1.000000 0.000000
vn 0.000000 -1.000000 0.000000
vn 0.010265 -0.997604 0.068420
vn -0.022884 -0.999573 0.018175
vn 0.787273 0.000000 -0.616605
vn 0.784309 -0.001770 -0.620368
vn 0.783082 0.000000 -0.621919
vn -0.783082 -0.000000 0.621919
vn -0.787152 -0.002283 0.616754
vn 0.621885 -0.010486 0.783039
vn 0.621885 -0.010486 0.783039
vn 0.621885 -0.010486 0.783039
vn 0.000000 1.000000 -0.000000
vn 0.000000 1.000000 -0.000000
vn 0.000000 1.000000 -0.000000
vn 0.000000 -1.000000 0.000000
vn 0.000000 1.000000 -0.000000
vn 0.000000 1.000000 -0.000000
vn 0.000000 1.000000 -0.000000
vn 0.000000 -1.000000 0.000000
vn 0.000000 -1.000000 0.000000
vn 0.000000 1.000000 -0.000000
vn 0.000000 1.000000 -0.000000
vn 0.000000 1.000000 -0.000000
vn 0.871013 -0.085637 0.483739
vn 0.874249 -0.000961 0.485477
vn 0.957973 -0.085641 -0.273777
vn 0.961471 -0.000947 -0.274906
vn -0.484163 -0.085974 0.870744
vn 0.273670 -0.086004 0.957971
vn -0.270510 -0.924992 0.266860
vn -0.299652 -0.923889 0.237988
vn -0.696235 -0.377223 0.610705
vn -0.934927 -0.110132 0.337317
vn -0.869878 -0.115051 -0.479661
vn -0.869878 -0.115051 -0.479661
vn -0.959601 -0.047660 0.277297
vn 0.900809 -0.255225 -0.351288
vn 0.900809 -0.255226 -0.351288
vn 0.727798 -0.616169 0.301074
vn 0.727798 -0.616169 0.301074
vn 0.237997 -0.923880 0.299672
vn 0.237998 -0.923880 0.299672
vn 0.574578 -0.382683 0.723474
vn 0.574578 -0.382683 0.723473
vn 0.237998 -0.923880 0.299672
vn 0.574578 -0.382682 0.723474
vn 0.556612 -0.379941 0.738802
vn 0.217811 -0.924709 0.312204
vn 0.874250 0.000000 0.485477
vn 0.961471 0.000000 -0.274907
vn 0.297499 -0.325273 0.897603
vn -0.493021 -0.325270 0.806926
vn -0.052422 -0.887918 0.457005
s 1
f 7/73/1 11/74/2 90/75/3 89/76/4 2/77/5
f 9/81/6 10/83/7 14/84/8 13/82/9
f 7/73/1 8/78/10 12/79/11 11/74/2
f 8/78/10 9/81/6 13/82/9 12/79/11
s off
f 15/170/12 19/171/13 24/172/14 23/173/15
s 3
f 16/1/16 15/2/17 23/3/18 25/4/19
f 17/5/20 16/1/16 25/4/19 26/6/21
f 18/7/22 17/5/20 26/6/21 27/8/23
s off
f 22/174/24 18/175/25 27/176/26 28/177/27
s 4
f 19/9/28 20/10/29 29/11/30 24/12/31
f 20/10/29 21/13/32 30/14/33 29/11/30
f 21/13/32 22/15/34 28/16/35 30/14/33
s off
f 23/89/36 24/90/37 31/91/38
f 25/93/39 23/89/40 31/91/41
f 26/95/42 25/93/43 31/91/44
f 27/97/45 26/95/46 31/91/47
f 28/96/48 27/97/49 31/91/50
f 24/90/51 29/92/52 31/91/53
f 29/92/54 30/94/55 31/91/56
f 30/94/57 28/96/58 31/91/59
s 5
f 38/98/60 37/99/61 41/100/62 40/101/63
s 6
f 44/17/64 43/18/65 46/19/66 45/20/67
s 5
f 43/107/68 42/108/69 47/103/70 46/102/71
s 8
f 50/47/72 49/48/73 52/49/74 51/50/75
s 5
f 49/117/76 48/116/77 53/122/78 52/123/79
f 47/103/70 42/108/69 17/109/80 18/104/81
f 42/108/69 54/114/82 16/115/83 17/109/80
f 54/114/82 60/119/84 15/120/85 16/115/83
f 33/125/86 36/126/87 15/120/85 60/119/84
f 47/103/70 18/104/81 41/100/62 37/99/61
s 8
f 7/56/88 2/57/89 71/51/90 50/47/72
f 1/64/91 10/63/92 63/59/93 66/62/94
f 57/54/95 63/59/93 10/63/92 9/60/96
f 50/47/72 51/50/75 8/55/97 7/56/88
f 51/50/75 57/54/95 9/60/96 8/55/97
s 5
f 15/120/85 36/126/87 74/131/98 19/132/99
f 41/100/62 18/104/81 22/110/100 77/105/101
f 19/132/99 74/131/98 68/136/102 65/133/103
f 20/127/104 19/132/99 65/133/103 59/128/105
f 21/121/106 20/127/104 59/128/105 53/122/78
f 22/110/100 21/121/106 53/122/78 48/116/77
f 77/105/101 22/110/100 48/116/77 69/111/107
f 33/125/86 32/124/108 35/130/109 36/126/87
s 11
f 32/178/110 122/179/111 121/180/112 34/181/113 35/182/114
s 12
f 39/197/115 40/198/116 76/199/117 75/200/118
s 5
f 40/101/63 41/100/62 77/105/101 76/106/119
f 42/108/69 43/107/68 55/113/120 54/114/82
s 6
f 43/18/65 44/17/64 56/21/121 55/22/122
s 5
f 37/99/61 38/98/123 46/102/71 47/103/70
s 6
f 38/23/124 126/24/125 125/25/126 45/20/67 46/19/66
s 5
f 48/116/77 49/117/76 70/112/127 69/111/107
s 8
f 49/48/73 50/47/72 71/51/90 70/52/128
f 51/50/75 52/49/74 58/53/129 57/54/95
s 5
f 52/123/79 53/122/78 59/128/105 58/129/130
f 54/114/82 55/113/120 61/118/131 60/119/84
s 6
f 55/22/122 56/21/121 62/29/132 61/30/133
s 8
f 57/54/95 58/53/129 64/58/134 63/59/93
s 5
f 58/129/130 59/128/105 65/133/103 64/134/135
f 32/124/136 33/125/86 60/119/84 61/118/131
s 8
f 63/59/93 64/58/134 67/61/137 66/62/94
s 5
f 64/134/135 65/133/103 68/136/102 67/137/138
s 11
f 66/189/139 67/196/140 73/191/141 72/190/142
s 5
f 67/137/138 68/136/102 74/131/98 73/135/143
f 36/126/87 35/130/109 73/135/143 74/131/98
s 11
f 35/182/114 34/181/113 72/190/142 73/191/141
s 5
f 69/111/107 70/112/127 76/106/119 77/105/101
s 12
f 70/204/144 71/205/145 75/200/118 76/199/117
s 1
f 102/85/146 101/86/147 14/84/8 10/83/7 1/87/148
s 6
f 123/37/149 122/38/150 32/39/151 61/30/133 62/29/132
s 12
f 127/201/152 126/202/153 38/203/154 40/198/116 39/197/115
f 79/206/155 78/212/156 124/211/157 127/201/152
s 6
f 78/40/158 83/32/159 125/25/126 124/31/160
s 12
f 89/208/161 88/213/162 92/214/163 91/209/164
s 15
f 88/218/165 87/219/166 93/220/167 92/221/168
s 11
f 96/185/169 95/193/170 99/194/171 98/186/172
s 16
f 95/65/173 94/66/174 100/67/175 99/68/176
s 6
f 110/36/177 109/42/178 118/46/179 117/43/180
s 18
f 109/138/181 108/139/182 119/140/183 118/141/184
s 15
f 93/220/167 87/219/166 104/222/185 100/223/186
s 16
f 86/69/187 93/70/188 100/67/175 94/66/174
s 18
f 108/139/182 105/143/189 4/149/190 3/144/191
f 105/143/189 111/148/192 5/153/193 4/149/190
f 111/148/192 114/152/194 6/156/195 5/153/193
f 108/139/182 3/144/191 97/145/196 96/146/197 119/140/183
f 81/155/198 86/159/199 6/156/195 114/152/194
s 11
f 119/184/200 96/185/169 98/186/172 102/187/201 1/188/202 66/189/139 72/190/142 34/181/113 121/180/112
s 12
f 79/206/155 127/201/152 39/197/115 75/200/118 71/205/145 2/207/203 89/208/161 91/209/164 84/210/204
s 6
f 83/32/159 116/26/205 45/20/67 125/25/126
f 110/36/177 117/43/180 123/37/149 62/29/132
f 62/29/132 56/21/121 107/28/206 110/36/177
f 56/21/121 44/17/64 113/27/207 107/28/206
f 44/17/64 45/20/67 116/26/205 113/27/207
s off
f 90/161/208 87/162/209 88/163/210
s 1
f 90/75/3 88/80/211 89/76/4
s off
f 97/164/212 94/165/213 95/166/214
s 18
f 97/145/196 95/150/215 96/146/197
s 1
f 101/86/147 102/85/146 103/88/216
s off
f 101/167/217 103/168/218 104/169/219
s 6
f 122/38/220 123/37/149 120/44/221
s 11
f 122/179/222 120/183/223 121/180/112
s 12
f 126/202/224 127/201/152 124/211/157
s 6
f 126/24/225 124/31/160 125/25/126
s 18
f 81/155/198 80/157/226 85/160/227 86/159/199
s 12
f 80/216/228 79/206/155 84/210/204 85/215/229
s 16
f 86/69/187 85/71/230 92/72/231 93/70/188
s 12
f 85/215/229 84/210/204 91/209/164 92/214/232
s 11
f 98/186/172 99/194/233 103/195/234 102/187/201
s 15
f 99/224/235 100/223/186 104/222/185 103/225/236
s 18
f 105/143/189 106/142/237 112/147/238 111/148/192
s 6
f 106/35/239 107/28/206 113/27/207 112/33/240
f 107/28/206 106/35/239 109/42/178 110/36/177
s 18
f 106/142/237 105/143/189 108/139/182 109/138/181
f 111/148/192 112/147/238 115/151/241 114/152/194
s 6
f 112/33/240 113/27/207 116/26/205 115/34/242
f 83/32/159 82/41/243 115/34/242 116/26/205
s 18
f 82/154/244 81/155/198 114/152/194 115/151/241
s 6
f 117/43/180 118/46/245 120/44/221 123/37/149
s 11
f 118/192/246 119/184/200 121/180/112 120/183/223
s 6
f 82/41/243 83/32/159 78/40/158 128/45/247
s 12
f 78/212/156 79/206/155 80/216/228 128/217/248
s 18
f 80/157/226 81/155/198 82/154/244 128/158/249
