# This file uses centimeters as units for non-parametric coordinates.

v 5.631569 1.502048 4.811419
v 5.432400 1.502048 4.811419
v 5.432400 1.439610 5.085079
v 5.631569 1.439610 5.085079
v 5.613014 7.347025 6.144987
v 5.450956 7.347025 6.144987
v 5.369927 7.315806 6.281817
v 5.450956 7.284587 6.418648
v 5.613014 7.284587 6.418648
v 5.694043 7.315806 6.281817
v 5.531985 7.419376 6.305447
v 5.587292 1.765242 4.917166
v 5.476678 1.765242 4.917166
v 5.421372 1.743934 5.010560
v 5.476678 1.722625 5.103954
v 5.587292 1.722625 5.103954
v 5.642598 1.743934 5.010560
v 6.073593 1.502048 4.811419
v 4.990372 1.502048 4.811419
v 6.073593 1.314872 4.768713
v 4.990372 1.314872 4.768713
v 4.990372 1.439610 5.085079
v 4.990372 1.252434 5.042374
v 6.073593 1.439610 5.085079
v 6.073593 1.252434 5.042374
v 5.056120 1.311082 4.785324
v 6.007845 1.311082 4.785324
v 5.056120 1.256224 5.025764
v 6.007845 1.256224 5.025764
v 5.619480 0.591658 4.621183
v 5.444489 0.591658 4.621183
v 5.444489 0.536800 4.861623
v 5.619480 0.536800 4.861623
v 5.056120 0.591658 4.621183
v 6.007845 0.591658 4.621183
v 5.056120 0.536800 4.861623
v 6.007845 0.536800 4.861623
v 5.376559 1.457116 5.008353
v 5.340912 1.530412 4.961843
v 5.376559 1.484542 4.888145
v 4.686670 1.484542 4.888145
v 4.686670 1.457116 5.008353
v 4.686670 1.269940 4.965648
v 4.686670 1.297366 4.845440
v 5.687411 1.484542 4.888145
v 5.723058 1.530412 4.961843
v 5.687411 1.457116 5.008353
v 6.377297 1.457116 5.008353
v 6.377297 1.484542 4.888145
v 6.377297 1.297366 4.845440
v 6.377297 1.269940 4.965648
v 4.818167 1.269940 4.965648
v 4.818167 1.297366 4.845440
v 6.245800 1.297366 4.845440
v 6.245800 1.269940 4.965648
v 5.531985 0.550516 4.801507
v 5.531985 0.577943 4.681299
v 5.400737 0.577943 4.681299
v 5.400737 0.550516 4.801507
v 5.663232 0.550516 4.801507
v 5.663232 0.577943 4.681299
v 4.818167 0.577943 4.681299
v 4.818167 0.550516 4.801507
v 6.245800 0.550516 4.801507
v 6.245800 0.577943 4.681299
vt 0.506623 0.921048
vt 0.512421 0.821471
vt 0.512421 0.921048
vt 0.512421 0.921048
vt 0.506623 0.921048
vt 0.506623 0.821471
vt 0.506623 0.821471
vt 0.512421 0.821471
vt 0.657762 0.127276
vt 0.698786 0.127276
vt 0.698786 0.773323
vt 0.638683 0.773323
vt 0.739809 0.127276
vt 0.758889 0.773323
vt 0.888592 0.159930
vt 0.929616 0.159930
vt 0.929616 0.805977
vt 0.869513 0.805977
vt 0.970639 0.159930
vt 0.989719 0.805977
vt 0.500825 0.821471
vt 0.500825 0.891919
vt 0.494894 0.891919
vt 0.494894 0.821471
vt 0.489096 0.821471
vt 0.489096 0.891919
vt 0.483166 0.891919
vt 0.483166 0.821471
vt 0.477368 0.821471
vt 0.477368 0.891919
vt 0.454574 0.891919
vt 0.454574 0.821471
vt 0.448776 0.821471
vt 0.448776 0.891919
vt 0.425982 0.891919
vt 0.425982 0.821471
vt 0.565697 0.157675
vt 0.565697 0.227077
vt 0.505594 0.192376
vt 0.505594 0.261777
vt 0.505594 0.122975
vt 0.445491 0.227077
vt 0.445491 0.157675
vt 0.140367 0.442331
vt 0.140367 0.527625
vt 0.121287 0.508663
vt 0.121287 0.461293
vt 0.106664 0.551539
vt 0.080263 0.566804
vt 0.080263 0.532348
vt 0.080263 0.403151
vt 0.106664 0.418417
vt 0.080263 0.437608
vt 0.106664 0.846982
vt 0.140367 0.716922
vt 0.053863 0.551539
vt 0.020160 0.527625
vt 0.039240 0.508663
vt 0.106664 0.122975
vt 0.140367 0.253036
vt 0.020160 0.442331
vt 0.053863 0.418417
vt 0.039240 0.461293
vt 0.053863 0.846982
vt 0.020160 0.716922
vt 0.053863 0.122975
vt 0.020160 0.253036
vt 0.165250 0.716922
vt 0.165250 0.253036
vt 0.172547 0.281192
vt 0.172547 0.688766
vt 0.198953 0.122975
vt 0.198953 0.179288
vt 0.198953 0.846982
vt 0.198953 0.790669
vt 0.251754 0.122975
vt 0.251754 0.179288
vt 0.251754 0.846982
vt 0.251754 0.790669
vt 0.285457 0.253036
vt 0.278160 0.281192
vt 0.285457 0.716922
vt 0.278160 0.688766
vt 0.414259 0.428665
vt 0.361458 0.428665
vt 0.361458 0.372458
vt 0.414259 0.372458
vt 0.414259 0.484872
vt 0.361458 0.484872
vt 0.335051 0.391195
vt 0.361458 0.122975
vt 0.414259 0.122975
vt 0.440665 0.391195
vt 0.440665 0.466135
vt 0.414259 0.734356
vt 0.361458 0.734356
vt 0.335051 0.466135
vt 0.335051 0.224879
vt 0.440665 0.224879
vt 0.440665 0.632453
vt 0.335051 0.632453
vt 0.420183 0.891919
vt 0.399816 0.856695
vt 0.420183 0.821471
vt 0.373650 0.821471
vt 0.394018 0.856695
vt 0.373650 0.891919
vt 0.858433 0.783167
vt 0.811063 0.783167
vt 0.800048 0.137120
vt 0.869449 0.137120
vt 0.575951 0.158942
vt 0.623321 0.158942
vt 0.634337 0.804989
vt 0.564936 0.804989
vt 0.145924 0.716922
vt 0.145924 0.253036
vt 0.150368 0.253036
vt 0.150368 0.716922
vt 0.145924 0.122975
vt 0.150368 0.122975
vt 0.145924 0.846982
vt 0.150368 0.846982
vt 0.160032 0.253036
vt 0.160032 0.716922
vt 0.155587 0.716922
vt 0.155587 0.253036
vt 0.160032 0.846982
vt 0.155587 0.846982
vt 0.160032 0.122975
vt 0.155587 0.122975
vt 0.307960 0.391195
vt 0.307960 0.466135
vt 0.307960 0.632453
vt 0.307960 0.224879
vt 0.290876 0.632453
vt 0.290876 0.224879
vt 0.290876 0.122975
vt 0.307960 0.122975
vt 0.290876 0.734356
vt 0.307960 0.734356
vt 0.312963 0.466135
vt 0.312963 0.391195
vt 0.312963 0.224879
vt 0.312963 0.632453
vt 0.330048 0.224879
vt 0.330048 0.632453
vt 0.330048 0.734356
vt 0.312963 0.734356
vt 0.330048 0.122975
vt 0.312963 0.122975
vn 0.000000 0.226656 -0.973975
vn 0.000000 0.226656 -0.973975
vn 0.000000 0.214833 -0.976651
vn 0.000000 0.214833 -0.976651
vn -0.863719 0.117121 -0.490176
vn -0.863400 0.118929 -0.490301
vn -0.866000 0.103616 -0.489191
vn -0.866000 0.103616 -0.489191
vn -0.863400 -0.105500 0.493365
vn -0.863719 -0.107076 0.492468
vn -0.866000 -0.118816 0.485723
vn -0.866000 -0.118816 0.485723
vn -0.000000 -0.218220 0.975900
vn -0.000000 -0.218220 0.975900
vn -0.000000 -0.230033 0.973183
vn -0.000000 -0.230033 0.973183
vn 0.863718 -0.107076 0.492470
vn 0.863400 -0.105501 0.493367
vn 0.865999 -0.118817 0.485724
vn 0.865999 -0.118817 0.485724
vn 0.863400 0.118930 -0.490303
vn 0.863718 0.117121 -0.490178
vn 0.865999 0.103617 -0.489192
vn 0.865999 0.103617 -0.489192
vn 0.274112 0.920987 -0.276849
vn -0.274112 0.920988 -0.276847
vn 0.000000 0.974946 0.222440
vn -0.548224 0.815378 0.186034
vn -0.274112 0.709769 0.648915
vn 0.274112 0.709769 0.648915
vn 0.548224 0.815378 0.186033
vn 0.000000 0.372816 -0.927905
vn 0.000000 0.372816 -0.927905
vn -0.794659 0.355722 -0.491913
vn -0.794659 0.355722 -0.491913
vn -0.794659 0.355722 -0.491913
vn -0.000000 -0.066542 0.997784
vn -0.000000 -0.066542 0.997784
vn 0.794659 0.107159 0.597524
vn 0.794659 0.107159 0.597524
vn 0.794659 0.107159 0.597524
vn -0.056652 0.222083 -0.973381
vn 0.056652 0.222083 -0.973381
vn 0.056652 0.222083 -0.973381
vn -0.056652 0.222083 -0.973381
vn 0.056652 -0.222083 0.973381
vn -0.056652 -0.222083 0.973381
vn -0.056652 -0.222083 0.973381
vn 0.056652 -0.222083 0.973381
vn 0.000000 -0.000000 -0.000000
vn 0.000000 -0.000000 -0.000000
vn 0.000000 -0.000000 -0.000000
vn 0.000000 -0.000000 -0.000000
vn 0.000000 0.000000 -0.000000
vn 0.000000 0.000000 -0.000000
vn 0.000000 0.000000 -0.000000
vn 0.000000 0.000000 -0.000000
vn 0.000000 0.000000 0.000000
vn 0.000000 0.000000 0.000000
vn 0.000000 0.000000 0.000000
vn 0.000000 0.000000 0.000000
vn 0.000000 -0.000000 0.000000
vn 0.000000 -0.000000 0.000000
vn 0.000000 -0.000000 0.000000
vn 0.000000 -0.000000 0.000000
vn 0.000000 -0.974948 -0.222435
vn 0.000000 -0.974946 -0.222440
vn 0.000000 -0.974947 -0.222439
vn 0.000000 -0.974947 -0.222438
vn 0.000000 -0.974946 -0.222441
vn 0.000000 -0.974946 -0.222443
vn 0.000000 -0.974946 -0.222443
vn 0.000000 -0.974946 -0.222443
vn -0.051760 0.222142 -0.973639
vn 0.051760 0.222142 -0.973639
vn 0.051760 0.222142 -0.973639
vn -0.051760 0.222142 -0.973639
vn 0.051760 -0.222142 0.973639
vn -0.051760 -0.222142 0.973639
vn -0.051760 -0.222142 0.973639
vn 0.051760 -0.222142 0.973639
vn -0.794660 0.107161 0.597522
vn -0.794660 0.107161 0.597522
vn -0.794660 0.107161 0.597522
vn 0.794659 0.355721 -0.491914
vn 0.794659 0.355721 -0.491914
vn 0.794659 0.355721 -0.491914
vn 0.000000 0.974946 0.222440
vn 0.000000 0.974946 0.222440
vn 0.000000 0.974946 0.222440
vn 0.000000 0.974946 0.222440
vn -1.000000 0.000000 0.000000
vn -1.000000 0.000000 0.000000
vn -1.000000 0.000000 0.000000
vn -1.000000 0.000000 0.000000
vn 0.000000 -0.974946 -0.222440
vn 0.000000 -0.974946 -0.222440
vn 0.000000 -0.974947 -0.222437
vn 0.000000 -0.974946 -0.222442
vn 0.000000 0.974946 0.222440
vn 0.000000 0.974946 0.222440
vn 0.000000 0.974946 0.222440
vn 0.000000 0.974946 0.222440
vn 1.000000 0.000000 0.000000
vn 1.000000 0.000000 0.000000
vn 1.000000 0.000000 0.000000
vn 1.000000 0.000000 0.000000
vn 0.000000 -0.974946 -0.222440
vn 0.000000 -0.974946 -0.222440
vn 0.000000 -0.974946 -0.222440
vn 0.000000 -0.974946 -0.222440
vn -1.000000 0.000000 0.000000
vn -1.000000 0.000000 0.000000
vn -1.000000 0.000000 0.000000
vn -1.000000 0.000000 0.000000
vn 1.000000 0.000000 0.000000
vn 1.000000 0.000000 0.000000
vn 1.000000 0.000000 0.000000
vn 1.000000 0.000000 0.000000
vn 0.000000 -0.974946 -0.222440
vn 0.000000 -0.974946 -0.222440
vn 0.000000 -0.974947 -0.222438
vn 0.000000 -0.974946 -0.222441
vn 0.000000 -0.974946 -0.222440
vn 0.000000 -0.974946 -0.222440
vn 0.000000 -0.974946 -0.222440
vn 0.000000 -0.974946 -0.222440
vn 0.000000 -0.974946 -0.222440
vn 0.000000 -0.974946 -0.222440
vn 0.000000 -0.974946 -0.222440
vn 0.000000 -0.974948 -0.222433
vn 0.000000 -0.974946 -0.222441
vn 0.000000 -0.974946 -0.222443
vn -0.250844 0.215328 -0.943775
vn -0.250844 0.215328 -0.943775
vn -0.250844 -0.215328 0.943775
vn -0.250844 -0.215328 0.943775
vn 0.250842 -0.215328 0.943775
vn 0.250842 -0.215328 0.943775
vn 0.250842 0.215328 -0.943775
vn 0.250842 0.215328 -0.943775
vn 0.000000 0.974946 0.222440
vn 0.000000 0.974946 0.222440
vn 0.000000 -0.974946 -0.222440
vn 0.000000 0.974946 0.222440
vn 0.000000 0.974946 0.222440
vn 0.000000 -0.974946 -0.222440
vn 0.000000 0.974946 0.222440
vn 0.000000 0.974946 0.222440
vn 0.000000 -0.974945 -0.222444
vn 0.000000 0.974946 0.222440
vn 0.000000 0.974946 0.222440
vn 0.000000 -0.974948 -0.222433
vn -0.250844 0.215328 -0.943775
vn -0.250844 0.215328 -0.943775
vn -0.250844 -0.215328 0.943775
vn -0.250844 -0.215328 0.943775
vn 0.250842 -0.215328 0.943775
vn 0.250842 -0.215328 0.943775
vn 0.250842 0.215328 -0.943775
vn 0.250842 0.215328 -0.943775
vn -0.863799 -0.491213 -0.112073
vn -0.863799 -0.491213 -0.112073
vn -0.863799 -0.491213 -0.112073
vn 0.863797 -0.491216 -0.112074
vn 0.863797 -0.491216 -0.112074
vn 0.863797 -0.491216 -0.112074
s 1
f 12/108/1 13/109/2 6/110/3 5/111/4
s 2
f 13/9/5 14/10/6 7/11/7 6/12/8
s 3
f 14/10/9 15/13/10 8/14/11 7/11/12
s 4
f 15/112/13 16/113/14 9/114/15 8/115/16
s 5
f 16/15/17 17/16/18 10/17/19 9/18/20
s 6
f 17/16/21 12/19/22 5/20/23 10/17/24
s 7
f 5/37/25 6/38/26 11/39/27
f 6/38/26 7/40/28 11/39/27
f 7/40/28 8/42/29 11/39/27
f 8/42/29 9/43/30 11/39/27
f 9/43/30 10/41/31 11/39/27
f 10/41/31 5/37/25 11/39/27
s 1
f 1/44/32 2/45/33 13/46/2 12/47/1
s 2
f 2/45/34 40/48/35 39/49/36 14/50/6 13/46/5
s 4
f 3/57/37 4/61/38 16/63/14 15/58/13
s 5
f 4/61/39 47/62/40 46/51/41 17/53/18 16/63/17
s 8
f 19/116/42 18/117/43 20/118/44 21/119/45
s 9
f 24/124/46 22/125/47 23/126/48 25/127/49
s off
f 2/3/50 1/8/51 18/2/52 19/4/53
f 30/132/54 31/133/55 34/134/56 35/135/57
f 4/6/58 3/5/59 22/1/60 24/7/61
f 32/142/62 33/143/63 37/144/64 36/145/65
s 10
f 21/68/66 20/69/67 27/70/68 26/71/69
f 25/80/70 23/82/71 28/83/72 29/81/73
s 12
f 26/136/74 27/137/75 35/135/76 34/134/77
s 13
f 29/146/78 28/147/79 36/145/80 37/144/81
s 3
f 39/49/82 38/56/83 3/57/84 15/58/10 14/50/9
s 6
f 46/51/85 45/52/86 1/44/87 12/47/22 17/53/21
s 14
f 38/56/88 40/48/89 41/54/90 42/64/91
s off
f 42/21/92 41/22/93 44/23/94 43/24/95
s 10
f 43/78/96 44/74/97 53/75/98 52/79/99
s 15
f 45/52/100 47/62/101 48/66/102 49/59/103
s off
f 49/25/104 48/26/105 51/27/106 50/28/107
s 10
f 50/72/108 51/76/109 55/77/110 54/73/111
s off
f 52/29/112 53/30/113 62/31/114 63/32/115
f 54/33/116 55/34/117 64/35/118 65/36/119
s 16
f 56/84/120 57/85/121 61/86/122 60/87/123
f 57/85/121 56/84/120 59/88/124 58/89/125
f 58/89/125 59/88/124 63/95/126 62/96/127
f 60/87/123 61/86/122 65/91/128 64/92/129
f 31/97/130 30/90/131 57/85/121
f 58/89/125 31/97/130 57/85/121
f 32/94/132 59/88/124 56/84/120
f 33/93/133 32/94/132 56/84/120
f 60/87/123 33/93/133 56/84/120
f 30/90/131 61/86/122 57/85/121
s 8
f 41/122/134 19/116/42 21/119/45 44/123/135
s 9
f 22/125/47 42/128/136 43/129/137 23/126/48
f 48/130/138 24/124/46 25/127/49 51/131/139
s 8
f 18/117/43 49/120/140 50/121/141 20/118/44
s 14
f 41/54/90 40/48/89 2/45/142 19/55/143
s 16
f 31/97/130 58/89/125 62/96/127 34/101/144
s 14
f 3/57/145 38/56/88 42/64/91 22/65/146
s 16
f 59/88/124 32/94/132 36/100/147 63/95/126
s 15
f 48/66/102 47/62/101 4/61/148 24/67/149
s 16
f 33/93/133 60/87/123 64/92/129 37/99/150
s 15
f 1/44/151 45/52/100 49/59/103 18/60/152
s 16
f 61/86/122 30/90/131 35/98/153 65/91/128
s 10
f 44/74/97 21/68/66 26/71/69 53/75/98
f 23/82/71 43/78/96 52/79/99 28/83/72
f 51/76/109 25/80/70 29/81/73 55/77/110
f 20/69/67 50/72/108 54/73/111 27/70/68
s 12
f 53/140/154 26/136/74 34/134/77 62/141/155
s 13
f 28/147/79 52/148/156 63/149/157 36/145/80
f 55/150/158 29/146/78 37/144/81 64/151/159
s 12
f 27/137/75 54/138/160 65/139/161 35/135/76
s off
f 38/102/162 39/103/163 40/104/164
f 45/105/165 46/106/166 47/107/167
