# This file uses centimeters as units for non-parametric coordinates.

mtllib Apoio.mtl
v 7.940483 -2.100601 -3.638353
v 7.940483 -3.638344 -2.100592
v 7.940483 -4.201183 -0.000010
v 7.940483 -3.638344 2.100592
v 7.940483 -2.100601 3.638325
v 7.940483 0.000000 4.201193
v 7.940483 2.100601 3.638325
v 7.940483 3.638344 2.100592
v 7.940483 4.201183 -0.000010
v 7.940483 3.638344 -2.100592
v 7.940483 2.100601 -3.638353
v 7.940483 0.000000 -4.201193
v 1.084595 -2.100601 -3.638353
v 1.084595 -3.638344 -2.100592
v 1.084595 -4.201183 -0.000010
v 1.084595 -3.638344 2.100592
v 1.084595 -2.100601 3.638325
v 1.084595 0.000000 4.201193
v 1.084595 2.100601 3.638325
v 1.084595 3.638344 2.100592
v 1.084595 4.201183 -0.000010
v 1.084595 3.638344 -2.100592
v 1.084595 2.100601 -3.638353
v 1.084595 0.000000 -4.201193
v 7.940483 0.000000 -0.000010
v 1.084595 0.000000 -0.000010
v -7.940483 0.000000 -0.000010
v -1.623611 -2.100601 -3.638353
v -6.090317 -1.853142 -3.209753
v -7.940483 -1.255760 -2.175055
v -7.940483 -2.175035 -1.255770
v -6.090317 -3.209743 -1.853151
v -1.623611 -3.638344 -2.100592
v -7.940483 -2.511520 -0.000010
v -6.090317 -3.706303 -0.000010
v -1.623611 -4.201183 -0.000010
v -7.940483 2.511520 -0.000010
v -1.623611 4.201183 -0.000010
v -6.090317 3.706303 -0.000010
v -7.940483 2.175035 -1.255770
v -6.090317 3.209743 -1.853151
v -1.623611 3.638344 -2.100592
v -7.940483 1.255760 -2.175055
v -6.090317 1.853142 -3.209753
v -1.623611 2.100601 -3.638353
v -7.940483 0.000000 -2.511530
v -6.090317 0.000000 -3.706293
v -1.623611 0.000000 -4.201193
vt 0.195182 0.001884
vt 0.246947 0.001884
vt 0.246947 0.284733
vt 0.195182 0.284733
vt 0.395027 0.657072
vt 0.324314 0.657072
vt 0.324314 0.374223
vt 0.395027 0.374223
vt 0.253602 0.657072
vt 0.253602 0.374223
vt 0.316507 0.661064
vt 0.368272 0.661064
vt 0.368272 0.943913
vt 0.316507 0.943913
vt 0.438984 0.661064
vt 0.438984 0.943913
vt 0.509697 0.661064
vt 0.509697 0.943913
vt 0.561462 0.661064
vt 0.561462 0.943913
vt 0.401722 0.001884
vt 0.472435 0.001884
vt 0.472435 0.284733
vt 0.401722 0.284733
vt 0.543147 0.001884
vt 0.543147 0.284733
vt 0.001992 0.001884
vt 0.053757 0.001884
vt 0.053757 0.284733
vt 0.001992 0.284733
vt 0.124470 0.001884
vt 0.124470 0.284733
vt 0.734105 0.448927
vt 0.785870 0.397162
vt 0.856583 0.519640
vt 0.715158 0.519640
vt 0.734105 0.590352
vt 0.785870 0.642118
vt 0.856583 0.661065
vt 0.927296 0.642118
vt 0.979061 0.590352
vt 0.998008 0.519640
vt 0.979061 0.448927
vt 0.927296 0.397162
vt 0.856583 0.378215
vt 0.709023 0.661065
vt 0.638310 0.642118
vt 0.709023 0.519640
vt 0.586545 0.590352
vt 0.567597 0.519640
vt 0.586545 0.448927
vt 0.638310 0.397162
vt 0.709023 0.378215
vt 0.166743 0.657072
vt 0.186852 0.580742
vt 0.232520 0.580742
vt 0.197689 0.657072
vt 0.195182 0.396462
vt 0.246947 0.396462
vt 0.472435 0.657072
vt 0.472435 0.580742
vt 0.534817 0.580742
vt 0.514708 0.657072
vt 0.472435 0.396462
vt 0.543147 0.396462
vt 0.299044 0.787883
vt 0.268098 0.818829
vt 0.225825 0.745610
vt 0.225825 0.830156
vt 0.225825 0.661064
vt 0.268098 0.672391
vt 0.299044 0.703337
vt 0.310371 0.745610
vt 0.324314 0.262494
vt 0.395027 0.262494
vt 0.053757 0.396462
vt 0.001992 0.396462
vt 0.124470 0.396462
vt 0.549843 0.001884
vt 0.691268 0.001884
vt 0.691268 0.374223
vt 0.606722 0.374223
vt 0.566502 0.297892
vt 0.549843 0.113613
vt 0.775814 0.374223
vt 0.832693 0.001884
vt 0.832693 0.113613
vt 0.816033 0.297892
vt 0.366587 0.001884
vt 0.386697 0.078215
vt 0.324314 0.078215
vt 0.324314 0.001884
vt 0.051251 0.657072
vt 0.016420 0.580742
vt 0.062087 0.580742
vt 0.082197 0.657072
vt 0.124470 0.580742
vt 0.124470 0.657072
vn -0.000000 -0.707109 -0.707105
vn -0.000000 -0.707109 -0.707105
vn -0.000000 -0.866026 -0.500000
vn -0.000000 -0.707109 -0.707105
vn -0.000000 -0.965926 -0.258820
vn -0.000000 -0.965926 -0.258820
vn -0.000000 -0.965926 -0.258820
vn -0.000000 -0.866026 -0.500000
vn -0.000000 -0.965926 0.258820
vn -0.000000 -0.965926 0.258820
vn -0.000000 -0.965926 0.258820
vn -0.000000 -0.965926 0.258820
vn -0.000000 -0.707109 0.707105
vn -0.000000 -0.707109 0.707105
vn -0.000000 -0.707109 0.707105
vn -0.000000 -0.707109 0.707105
vn -0.000000 -0.258818 0.965926
vn -0.000000 -0.258818 0.965926
vn -0.000000 -0.258818 0.965926
vn -0.000000 -0.258818 0.965926
vn 0.000000 0.258818 0.965926
vn 0.000000 0.258818 0.965926
vn 0.000000 0.258818 0.965926
vn 0.000000 0.258818 0.965926
vn 0.000000 0.707108 0.707106
vn 0.000000 0.707108 0.707106
vn 0.000000 0.707108 0.707106
vn 0.000000 0.707108 0.707106
vn 0.000000 0.965926 0.258819
vn 0.000000 0.965926 0.258819
vn 0.000000 0.965926 0.258819
vn 0.000000 0.965926 0.258819
vn 0.000000 0.965926 -0.258819
vn 0.000000 0.965926 -0.258819
vn 0.000000 0.866026 -0.500000
vn 0.000000 0.965926 -0.258819
vn 0.000000 0.707108 -0.707106
vn 0.000000 0.707108 -0.707106
vn 0.000000 0.707108 -0.707105
vn 0.000000 0.866026 -0.500000
vn 0.000000 0.258818 -0.965926
vn 0.000000 0.258818 -0.965926
vn 0.000000 0.000000 -1.000000
vn 0.000000 0.258818 -0.965926
vn -0.000000 -0.258818 -0.965926
vn -0.000000 -0.258818 -0.965926
vn -0.000000 -0.258818 -0.965926
vn 0.000000 0.000000 -1.000000
vn 1.000000 -0.000000 -0.000000
vn 1.000000 -0.000000 -0.000000
vn 1.000000 -0.000000 -0.000000
vn 1.000000 -0.000000 -0.000000
vn 1.000000 -0.000000 -0.000000
vn 1.000000 -0.000000 -0.000000
vn 1.000000 -0.000000 -0.000000
vn 1.000000 -0.000000 -0.000000
vn 1.000000 -0.000000 -0.000000
vn 1.000000 -0.000000 -0.000000
vn 1.000000 -0.000000 -0.000000
vn 1.000000 -0.000000 -0.000000
vn 1.000000 -0.000000 -0.000000
vn 1.000000 -0.000000 -0.000000
vn 1.000000 -0.000000 -0.000000
vn 1.000000 -0.000000 -0.000000
vn 1.000000 -0.000000 -0.000000
vn 1.000000 -0.000000 -0.000000
vn 1.000000 -0.000000 -0.000000
vn 1.000000 -0.000000 -0.000000
vn 1.000000 -0.000000 -0.000000
vn 1.000000 -0.000000 -0.000000
vn 1.000000 -0.000000 -0.000000
vn 1.000000 -0.000000 -0.000000
vn 1.000000 -0.000000 -0.000000
vn 1.000000 -0.000000 -0.000000
vn 1.000000 -0.000000 -0.000000
vn 1.000000 -0.000000 -0.000000
vn 1.000000 -0.000000 -0.000000
vn 1.000000 -0.000000 -0.000000
vn 1.000000 -0.000000 -0.000000
vn 1.000000 -0.000000 -0.000000
vn 1.000000 -0.000000 -0.000000
vn 1.000000 -0.000000 -0.000000
vn 1.000000 -0.000000 -0.000000
vn 1.000000 -0.000000 -0.000000
vn -1.000000 0.000000 0.000000
vn -1.000000 0.000000 0.000000
vn -1.000000 0.000000 0.000000
vn -1.000000 0.000000 0.000000
vn -1.000000 0.000000 0.000000
vn -1.000000 0.000000 0.000000
vn -1.000000 0.000000 0.000000
vn -1.000000 0.000000 0.000000
vn -1.000000 0.000000 0.000000
vn -1.000000 0.000000 0.000000
vn -1.000000 0.000000 0.000000
vn -1.000000 0.000000 0.000000
vn -1.000000 0.000000 0.000000
vn -1.000000 0.000000 0.000000
vn -1.000000 0.000000 0.000000
vn -1.000000 0.000000 0.000000
vn -1.000000 0.000000 0.000000
vn -1.000000 0.000000 0.000000
vn -0.730607 -0.341399 -0.591320
vn -0.542482 -0.420034 -0.727519
vn -0.542482 -0.727519 -0.420034
vn -0.730608 -0.591320 -0.341399
vn -0.110122 -0.496960 -0.860758
vn -0.066839 -0.498883 -0.864088
vn -0.066838 -0.864089 -0.498882
vn -0.110121 -0.860758 -0.496959
vn -0.718679 0.671649 -0.179968
vn -0.529241 0.819561 -0.219600
vn -0.542483 0.727519 -0.420034
vn -0.730608 0.591320 -0.341399
vn -0.106412 0.960441 -0.257350
vn -0.064570 0.963910 -0.258279
vn -0.066838 0.864089 -0.498882
vn -0.110121 0.860758 -0.496959
vn -0.730607 -0.341399 -0.591320
vn -0.730608 -0.591320 -0.341399
vn -1.000000 0.000000 0.000000
vn -0.730608 -0.591320 -0.341399
vn -0.718679 -0.671649 -0.179968
vn -1.000000 0.000000 0.000000
vn -0.718679 0.671649 -0.179968
vn -0.730608 0.591320 -0.341399
vn -1.000000 0.000000 0.000000
vn -0.730608 0.591320 -0.341399
vn -0.730607 0.341399 -0.591320
vn -1.000000 0.000000 0.000000
vn -0.730607 0.341399 -0.591320
vn -0.730607 0.000000 -0.682798
vn -1.000000 0.000000 0.000000
vn -0.730607 0.000000 -0.682798
vn -0.730607 -0.341399 -0.591320
vn -1.000000 0.000000 0.000000
vn -0.000000 -0.707109 -0.707105
vn -0.000000 -0.866026 -0.500000
vn -0.066838 -0.864089 -0.498882
vn -0.066839 -0.498883 -0.864088
vn -0.000000 -0.866026 -0.500000
vn -0.000000 -0.965926 -0.258820
vn -0.064570 -0.963910 -0.258280
vn -0.066838 -0.864089 -0.498882
vn 0.000000 0.965926 -0.258819
vn 0.000000 0.866026 -0.500000
vn -0.066838 0.864089 -0.498882
vn -0.064570 0.963910 -0.258279
vn 0.000000 0.866026 -0.500000
vn 0.000000 0.707108 -0.707105
vn -0.066839 0.498882 -0.864089
vn -0.066838 0.864089 -0.498882
vn 0.000000 0.258818 -0.965926
vn 0.000000 0.000000 -1.000000
vn -0.066839 0.000000 -0.997764
vn -0.066839 0.498882 -0.864089
vn 0.000000 0.000000 -1.000000
vn -0.000000 -0.258818 -0.965926
vn -0.066839 -0.498883 -0.864088
vn -0.066839 0.000000 -0.997764
vn -0.000000 -0.000000 1.000000
vn -0.000000 -0.000000 1.000000
vn -0.000000 -0.000000 1.000000
vn -0.000000 -0.000000 1.000000
vn -0.000000 -0.000000 1.000000
vn -0.000000 -0.000000 1.000000
vn -0.000000 -0.000000 1.000000
vn -0.000000 -0.000000 1.000000
vn -0.000000 -0.000000 1.000000
vn -0.000000 -0.000000 1.000000
vn -0.000000 -0.000000 1.000000
vn -0.000000 -0.000000 1.000000
vn -0.730608 -0.591320 -0.341399
vn -0.542482 -0.727519 -0.420034
vn -0.529241 -0.819560 -0.219601
vn -0.718679 -0.671649 -0.179968
vn -0.110121 -0.860758 -0.496959
vn -0.066838 -0.864089 -0.498882
vn -0.064570 -0.963910 -0.258280
vn -0.106412 -0.960441 -0.257351
vn -0.730608 0.591320 -0.341399
vn -0.542483 0.727519 -0.420034
vn -0.542482 0.420034 -0.727519
vn -0.730607 0.341399 -0.591320
vn -0.110121 0.860758 -0.496959
vn -0.066838 0.864089 -0.498882
vn -0.066839 0.498882 -0.864089
vn -0.110122 0.496959 -0.860758
vn -0.730607 0.341399 -0.591320
vn -0.542482 0.420034 -0.727519
vn -0.542482 0.000000 -0.840067
vn -0.730607 0.000000 -0.682798
vn -0.110122 0.496959 -0.860758
vn -0.066839 0.498882 -0.864089
vn -0.066839 0.000000 -0.997764
vn -0.110122 0.000000 -0.993918
vn -0.066839 -0.498883 -0.864088
vn -0.110122 -0.496960 -0.860758
vn -0.110122 0.000000 -0.993918
vn -0.066839 0.000000 -0.997764
vn -0.542482 -0.420034 -0.727519
vn -0.730607 -0.341399 -0.591320
vn -0.730607 0.000000 -0.682798
vn -0.542482 0.000000 -0.840067
s off
g initialShadingGroup Mesh
f 1/1/1 2/2/2 14/3/3 13/4/4
f 2/5/5 3/6/6 15/7/7 14/8/8
f 3/6/9 4/9/10 16/10/11 15/7/12
f 4/11/13 5/12/14 17/13/15 16/14/16
f 5/12/17 6/15/18 18/16/19 17/13/20
f 6/15/21 7/17/22 19/18/23 18/16/24
f 7/17/25 8/19/26 20/20/27 19/18/28
f 8/21/29 9/22/30 21/23/31 20/24/32
f 9/22/33 10/25/34 22/26/35 21/23/36
f 10/27/37 11/28/38 23/29/39 22/30/40
f 11/28/41 12/31/42 24/32/43 23/29/44
f 12/31/45 1/1/46 13/4/47 24/32/48
f 2/33/49 1/34/50 25/35/51
f 3/36/52 2/33/53 25/35/54
f 4/37/55 3/36/56 25/35/57
f 5/38/58 4/37/59 25/35/60
f 6/39/61 5/38/62 25/35/63
f 7/40/64 6/39/65 25/35/66
f 8/41/67 7/40/68 25/35/69
f 9/42/70 8/41/71 25/35/72
f 10/43/73 9/42/74 25/35/75
f 11/44/76 10/43/77 25/35/78
f 12/45/79 11/44/80 25/35/81
f 1/34/82 12/45/83 25/35/84
f 15/46/85 16/47/86 26/48/87
f 16/47/88 17/49/89 26/48/90
f 17/49/91 18/50/92 26/48/93
f 18/50/94 19/51/95 26/48/96
f 19/51/97 20/52/98 26/48/99
f 20/52/100 21/53/101 26/48/102
f 30/54/103 29/55/104 32/56/105 31/57/106
f 29/55/107 28/58/108 33/59/109 32/56/110
f 37/60/111 39/61/112 41/62/113 40/63/114
f 39/61/115 38/64/116 42/65/117 41/62/118
f 30/66/119 31/67/120 27/68/121
f 31/67/122 34/69/123 27/68/124
f 37/70/125 40/71/126 27/68/127
f 40/71/128 43/72/129 27/68/130
f 43/72/131 46/73/132 27/68/133
f 46/73/134 30/66/135 27/68/136
f 13/4/137 14/3/138 33/59/139 28/58/140
f 14/8/141 15/7/142 36/74/143 33/75/144
f 21/23/145 22/26/146 42/65/147 38/64/148
f 22/30/149 23/29/150 45/76/151 42/77/152
f 23/29/153 24/32/154 48/78/155 45/76/156
f 24/32/157 13/4/158 28/58/159 48/78/160
f 15/79/161 26/80/162 27/81/163 34/82/164 35/83/165 36/84/166
f 37/85/167 27/81/168 26/80/169 21/86/170 38/87/171 39/88/172
f 31/89/173 32/90/174 35/91/175 34/92/176
f 32/90/177 33/75/178 36/74/179 35/91/180
f 40/93/181 41/94/182 44/95/183 43/96/184
f 41/94/185 42/77/186 45/76/187 44/95/188
f 43/96/189 44/95/190 47/97/191 46/98/192
f 44/95/193 45/76/194 48/78/195 47/97/196
f 28/58/197 29/55/198 47/97/199 48/78/200
f 29/55/201 30/54/202 46/98/203 47/97/204
