# This file uses centimeters as units for non-parametric coordinates.

mtllib Baqueta.mtl
v 0.117216 0.558529 16.197968
v 0.072460 -0.184174 16.205807
v -0.072460 -0.184174 16.205807
v -0.117245 0.558529 16.197968
v -0.000000 0.643673 16.197052
v -0.000000 0.217991 16.201553
v 0.666914 0.126686 -14.240570
v 0.412197 -0.684223 -14.232006
v -0.412207 -0.684223 -14.232006
v -0.666943 0.126686 -14.240570
v 0.000000 0.611229 -14.245682
v 0.797100 0.159492 -14.102650
v 0.492659 -0.782528 -14.092674
v 0.511532 -0.810356 -15.785980
v 0.827694 0.135479 -15.795956
v -0.492668 -0.782528 -14.092674
v -0.511541 -0.810356 -15.785980
v -0.797100 0.159492 -14.102650
v -0.827703 0.135479 -15.795956
v 0.000000 0.738583 -14.108753
v 0.000000 0.736809 -15.802288
v 0.000000 -0.125561 -16.331406
vt 0.375000 0.671720
vt 0.425000 0.671720
vt 0.425000 0.688440
vt 0.375000 0.688440
vt 0.475000 0.671720
vt 0.475000 0.688440
vt 0.525000 0.671720
vt 0.525000 0.688440
vt 0.575000 0.671720
vt 0.575000 0.688440
vt 0.625000 0.671720
vt 0.625000 0.688440
vt 0.373591 0.064409
vt 0.548284 0.007647
vt 0.500000 0.150000
vt 0.373591 0.248091
vt 0.548284 0.304853
vt 0.656250 0.156250
vt 0.548284 0.992353
vt 0.373591 0.935591
vt 0.500000 0.837500
vt 0.373591 0.751909
vt 0.548284 0.695147
vt 0.656250 0.843750
vt 0.375000 0.312500
vt 0.425000 0.312500
vt 0.425000 0.671720
vt 0.375000 0.671720
vt 0.475000 0.312500
vt 0.475000 0.671720
vt 0.525000 0.312500
vt 0.525000 0.671720
vt 0.575000 0.312500
vt 0.575000 0.671720
vt 0.625000 0.312500
vt 0.625000 0.671720
vn 0.949878 -0.312065 0.018655
vn 0.949878 -0.312065 0.018655
vn 0.949878 -0.312065 0.018655
vn 0.949878 -0.312065 0.018655
vn -0.000000 -0.999865 0.016426
vn -0.000000 -0.999865 0.016426
vn -0.000000 -0.999865 0.016426
vn -0.000000 -0.999865 0.016426
vn -0.949878 -0.312065 0.018655
vn -0.949878 -0.312065 0.018655
vn -0.949878 -0.312065 0.018655
vn -0.949878 -0.312065 0.018655
vn -0.587761 0.809034 -0.000861
vn -0.587761 0.809034 -0.000861
vn -0.587761 0.809034 -0.000861
vn -0.587761 0.809034 -0.000861
vn 0.587773 0.809025 -0.000860
vn 0.587773 0.809025 -0.000860
vn 0.587773 0.809025 -0.000860
vn 0.587773 0.809025 -0.000860
vn -0.000000 0.010560 0.999944
vn -0.000000 0.010560 0.999944
vn -0.000000 0.010560 0.999944
vn -0.000000 0.010560 0.999944
vn -0.000000 0.010560 0.999944
vn -0.000000 0.010560 0.999944
vn -0.000000 0.010560 0.999944
vn -0.000000 0.010560 0.999944
vn -0.000000 0.010560 0.999944
vn -0.000000 0.010560 0.999944
vn -0.000000 0.010560 0.999944
vn -0.000000 0.010560 0.999944
vn -0.000000 0.010560 0.999944
vn -0.000000 0.010560 0.999944
vn -0.000000 0.010560 0.999944
vn 0.502463 0.152505 -0.851042
vn 0.310642 -0.439333 -0.842904
vn 0.000004 -0.008014 -0.999968
vn 0.310642 -0.439333 -0.842904
vn -0.310646 -0.439322 -0.842909
vn 0.000004 -0.008014 -0.999968
vn -0.310646 -0.439322 -0.842909
vn -0.502451 0.152502 -0.851050
vn 0.000004 -0.008014 -0.999968
vn -0.502451 0.152502 -0.851050
vn -0.000002 0.522966 -0.852354
vn 0.000004 -0.008014 -0.999968
vn -0.000002 0.522966 -0.852354
vn 0.502463 0.152505 -0.851042
vn 0.000004 -0.008014 -0.999968
vn 0.981807 -0.189096 0.017239
vn 0.981807 -0.189096 0.017239
vn 0.981807 -0.189096 0.017239
vn 0.981807 -0.189096 0.017239
vn -0.000000 -0.999865 0.016426
vn -0.000000 -0.999865 0.016426
vn -0.000000 -0.999865 0.016426
vn -0.000000 -0.999865 0.016426
vn -0.981807 -0.189096 0.017239
vn -0.981807 -0.189096 0.017239
vn -0.981807 -0.189096 0.017239
vn -0.981807 -0.189096 0.017239
vn -0.587759 0.809036 -0.000863
vn -0.587759 0.809036 -0.000863
vn -0.587759 0.809036 -0.000863
vn -0.587759 0.809036 -0.000863
vn 0.587781 0.809020 -0.000862
vn 0.587781 0.809020 -0.000862
vn 0.587781 0.809020 -0.000862
vn 0.587781 0.809020 -0.000862
vn -0.743656 0.243797 0.622526
vn -0.743656 0.243797 0.622526
vn -0.743656 0.243797 0.622526
vn -0.743656 0.243797 0.622526
vn 0.000000 0.817039 0.576583
vn 0.000000 0.817039 0.576583
vn 0.000000 0.817039 0.576583
vn 0.000000 0.817039 0.576583
vn 0.743655 0.243797 0.622527
vn 0.743655 0.243797 0.622527
vn 0.743655 0.243797 0.622527
vn 0.743655 0.243797 0.622527
vn 0.473217 -0.645040 0.599991
vn 0.473217 -0.645040 0.599991
vn 0.473217 -0.645040 0.599991
vn 0.473217 -0.645040 0.599991
vn -0.473226 -0.645029 0.599996
vn -0.473226 -0.645029 0.599996
vn -0.473226 -0.645029 0.599996
vn -0.473226 -0.645029 0.599996
s off
g initialShadingGroup Mesh
f 12/1/1 13/2/2 14/3/3 15/4/4
f 13/2/5 16/5/6 17/6/7 14/3/8
f 16/5/9 18/7/10 19/8/11 17/6/12
f 18/7/13 20/9/14 21/10/15 19/8/16
f 20/9/17 12/11/18 15/12/19 21/10/20
f 2/13/21 1/14/22 6/15/23
f 3/16/24 2/13/25 6/15/26
f 4/17/27 3/16/28 6/15/29
f 5/18/30 4/17/31 6/15/32
f 1/14/33 5/18/34 6/15/35
f 15/19/36 14/20/37 22/21/38
f 14/20/39 17/22/40 22/21/41
f 17/22/42 19/23/43 22/21/44
f 19/23/45 21/24/46 22/21/47
f 21/24/48 15/19/49 22/21/50
f 1/25/51 2/26/52 8/27/53 7/28/54
f 2/26/55 3/29/56 9/30/57 8/27/58
f 3/29/59 4/31/60 10/32/61 9/30/62
f 4/31/63 5/33/64 11/34/65 10/32/66
f 5/33/67 1/35/68 7/36/69 11/34/70
f 7/28/71 8/27/72 13/2/73 12/1/74
f 8/27/75 9/30/76 16/5/77 13/2/78
f 9/30/79 10/32/80 18/7/81 16/5/82
f 10/32/83 11/34/84 20/9/85 18/7/86
f 11/34/87 7/36/88 12/11/89 20/9/90
