# This file uses centimeters as units for non-parametric coordinates.

mtllib Cigarro.mtl
v -0.510263 0.409632 -2.695260
v -0.298796 0.008872 -2.848558
v 0.176239 -0.005109 -2.903123
v 0.439825 0.381691 -2.804379
v 0.228357 0.782471 -2.651081
v -0.246696 0.796430 -2.596531
v -0.439825 -0.381689 2.804379
v -0.228357 -0.782468 2.651081
v 0.246696 -0.796430 2.596531
v 0.510263 -0.409629 2.695255
v 0.298796 -0.008850 2.848558
v -0.176239 0.005112 2.903118
v -0.035219 0.395670 -2.749825
v 0.035229 -0.395648 2.749829
v -0.610542 0.148771 1.182079
v -0.399075 -0.251989 1.028786
v 0.075979 -0.265949 0.974236
v 0.339546 0.120850 1.072965
v 0.128078 0.521610 1.226258
v -0.346956 0.535591 1.280828
vt 0.046158 0.680105
vt 0.145706 0.680105
vt 0.145706 0.949558
vt 0.046158 0.949558
vt 0.245253 0.680105
vt 0.245253 0.949558
vt 0.344801 0.680105
vt 0.344801 0.949558
vt 0.344801 0.680105
vt 0.444349 0.680105
vt 0.444349 0.949558
vt 0.344801 0.949558
vt 0.543897 0.680105
vt 0.543897 0.949558
vt 0.643445 0.680105
vt 0.643445 0.949558
vt 0.767536 0.206553
vt 0.863033 0.206553
vt 0.815284 0.285435
vt 0.719788 0.289255
vt 0.767536 0.371957
vt 0.863033 0.371957
vt 0.910781 0.289255
vt 0.863033 0.792142
vt 0.767536 0.792142
vt 0.815284 0.705620
vt 0.719788 0.709439
vt 0.767536 0.626737
vt 0.863033 0.626737
vt 0.910781 0.709439
vt 0.046158 0.051382
vt 0.145706 0.051382
vt 0.245253 0.051382
vt 0.344801 0.051382
vt 0.344801 0.051382
vt 0.444349 0.051382
vt 0.543897 0.051382
vt 0.643445 0.051382
vn -0.891444 -0.449981 -0.053328
vn -0.891444 -0.449981 -0.053328
vn -0.891444 -0.449981 -0.053328
vn -0.891444 -0.449981 -0.053328
vn -0.047333 -0.986026 -0.159725
vn -0.044007 -0.990590 -0.129592
vn -0.062882 -0.950532 -0.304194
vn -0.062882 -0.950532 -0.304194
vn 0.832975 -0.547909 -0.077129
vn 0.834138 -0.541078 -0.106993
vn 0.828562 -0.500551 -0.250866
vn 0.828562 -0.500551 -0.250866
vn 0.891444 0.449982 0.053328
vn 0.891444 0.449982 0.053328
vn 0.891444 0.449982 0.053328
vn 0.891444 0.449982 0.053328
vn 0.044007 0.990590 0.129592
vn 0.047333 0.986026 0.159725
vn 0.062882 0.950532 0.304194
vn 0.062882 0.950532 0.304194
vn -0.834138 0.541078 0.106993
vn -0.832975 0.547909 0.077129
vn -0.828562 0.500551 0.250866
vn -0.828562 0.500551 0.250866
vn -0.099525 0.309250 -0.945758
vn -0.099525 0.309250 -0.945758
vn -0.099525 0.309250 -0.945758
vn -0.099525 0.309250 -0.945758
vn -0.099525 0.309250 -0.945758
vn -0.099525 0.309250 -0.945758
vn -0.099526 0.309250 -0.945758
vn -0.099525 0.309250 -0.945758
vn -0.099525 0.309250 -0.945758
vn -0.099526 0.309250 -0.945758
vn -0.099526 0.309250 -0.945758
vn -0.099525 0.309250 -0.945758
vn -0.099525 0.309250 -0.945758
vn -0.099526 0.309250 -0.945758
vn -0.099525 0.309250 -0.945758
vn -0.099525 0.309250 -0.945758
vn -0.099525 0.309250 -0.945758
vn -0.099525 0.309250 -0.945758
vn 0.099526 -0.309250 0.945758
vn 0.099526 -0.309250 0.945758
vn 0.099526 -0.309250 0.945758
vn 0.099526 -0.309250 0.945758
vn 0.099525 -0.309250 0.945758
vn 0.099526 -0.309250 0.945758
vn 0.099525 -0.309250 0.945758
vn 0.099525 -0.309250 0.945758
vn 0.099526 -0.309250 0.945758
vn 0.099525 -0.309250 0.945758
vn 0.099525 -0.309250 0.945758
vn 0.099526 -0.309250 0.945758
vn 0.099525 -0.309250 0.945758
vn 0.099525 -0.309250 0.945758
vn 0.099526 -0.309250 0.945758
vn 0.099525 -0.309250 0.945758
vn 0.099526 -0.309250 0.945758
vn 0.099526 -0.309250 0.945758
vn -0.891444 -0.449981 -0.053328
vn -0.891444 -0.449981 -0.053328
vn -0.891444 -0.449981 -0.053328
vn -0.891444 -0.449981 -0.053328
vn -0.037126 -0.996992 -0.068033
vn -0.037126 -0.996992 -0.068033
vn -0.044007 -0.990590 -0.129592
vn -0.047333 -0.986026 -0.159725
vn 0.828202 -0.560194 -0.016268
vn 0.828202 -0.560194 -0.016268
vn 0.834138 -0.541078 -0.106993
vn 0.832975 -0.547909 -0.077129
vn 0.891444 0.449982 0.053328
vn 0.891444 0.449982 0.053328
vn 0.891444 0.449982 0.053328
vn 0.891444 0.449982 0.053328
vn 0.037126 0.996992 0.068033
vn 0.037126 0.996992 0.068033
vn 0.047333 0.986026 0.159725
vn 0.044007 0.990590 0.129592
vn -0.828202 0.560194 0.016268
vn -0.828202 0.560194 0.016268
vn -0.832975 0.547909 0.077129
vn -0.834138 0.541078 0.106993
s off
g initialShadingGroup Mesh
f 15/1/1 16/2/2 8/3/3 7/4/4
f 16/2/5 17/5/6 9/6/7 8/3/8
f 17/5/9 18/7/10 10/8/11 9/6/12
f 18/9/13 19/10/14 11/11/15 10/12/16
f 19/10/17 20/13/18 12/14/19 11/11/20
f 20/13/21 15/15/22 7/16/23 12/14/24
f 2/17/25 1/18/26 13/19/27
f 3/20/28 2/17/29 13/19/30
f 4/21/31 3/20/32 13/19/33
f 5/22/34 4/21/35 13/19/36
f 6/23/37 5/22/38 13/19/39
f 1/18/40 6/23/41 13/19/42
f 7/24/43 8/25/44 14/26/45
f 8/25/46 9/27/47 14/26/48
f 9/27/49 10/28/50 14/26/51
f 10/28/52 11/29/53 14/26/54
f 11/29/55 12/30/56 14/26/57
f 12/30/58 7/24/59 14/26/60
f 1/31/61 2/32/62 16/2/63 15/1/64
f 2/32/65 3/33/66 17/5/67 16/2/68
f 3/33/69 4/34/70 18/7/71 17/5/72
f 4/35/73 5/36/74 19/10/75 18/9/76
f 5/36/77 6/37/78 20/13/79 19/10/80
f 6/37/81 1/38/82 15/15/83 20/13/84
